<svg xmlns="http://www.w3.org/2000/svg" width="19.64" height="24" viewBox="0 0 19.64 24"><defs><style>.cls-1{fill:#968584;}</style></defs><title>icon_pin_full</title><g id="Layer_2" data-name="Layer 2"><g id="Layer_1-2" data-name="Layer 1"><path class="cls-1" d="M9.82,0A9.82,9.82,0,0,0,0,9.82a14.85,14.85,0,0,0,2.63,8.4A19.41,19.41,0,0,0,9.82,24,19.45,19.45,0,0,0,17,18.22a14.85,14.85,0,0,0,2.64-8.4A9.82,9.82,0,0,0,9.82,0Zm0,14.26a4.44,4.44,0,1,1,4.44-4.44A4.45,4.45,0,0,1,9.82,14.26Z"/></g></g></svg>