<svg xmlns="http://www.w3.org/2000/svg" width="36" height="36" viewBox="0 0 36 36"><defs><style>.cls-1{fill:#968584;}</style></defs><title>icon_pin_multi</title><g id="Layer_2" data-name="Layer 2"><g id="Layer_1-2" data-name="Layer 1"><path class="cls-1" d="M18,12a9.82,9.82,0,0,0-9.82,9.82,14.85,14.85,0,0,0,2.63,8.4A19.49,19.49,0,0,0,18,36a19.49,19.49,0,0,0,7.19-5.78,14.85,14.85,0,0,0,2.63-8.4A9.82,9.82,0,0,0,18,12Zm0,14.26a4.44,4.44,0,1,1,4.44-4.44A4.45,4.45,0,0,1,18,26.26ZM27.39,33a1,1,0,0,1-.84-.45,1,1,0,0,1,.28-1.38A15.94,15.94,0,1,0,2,17.91,15.87,15.87,0,0,0,9.17,31.17a1,1,0,0,1,.28,1.38,1,1,0,0,1-1.39.28A17.89,17.89,0,0,1,18,0a17.89,17.89,0,0,1,9.94,32.83A.94.94,0,0,1,27.39,33Z"/></g></g></svg>