<svg xmlns="http://www.w3.org/2000/svg" width="16.62" height="24" viewBox="0 0 16.62 24"><defs><style>.cls-1{fill:#CEE6C1;}</style></defs><title>icon_HSS_symbol</title><g id="Layer_2" data-name="Layer 2"><g id="Layer_1-2" data-name="Layer 1"><path class="cls-1" d="M11.08,12A2.77,2.77,0,1,1,8.31,9.23,2.77,2.77,0,0,1,11.08,12ZM12,4.54a4.05,4.05,0,0,1-7.3,0A8.3,8.3,0,0,0,0,12a12.51,12.51,0,0,0,2.23,7.11,16.24,16.24,0,0,0,3.6,3.46,5,5,0,0,1,1-5.15c.4-.44.82-.82,1.26-1.22l.16-.14A4.06,4.06,0,1,1,12.37,12a4,4,0,0,1-.44,1.82h0a5,5,0,0,1-.4.62A14.89,14.89,0,0,1,9,17.16a15.72,15.72,0,0,0-1.17,1.12,3.72,3.72,0,0,0-.74,4A5.23,5.23,0,0,0,8.3,24h0a16.43,16.43,0,0,0,6.08-4.89A12.59,12.59,0,0,0,16.62,12,8.3,8.3,0,0,0,12,4.54ZM8.31,0a2.77,2.77,0,1,0,2.77,2.77A2.77,2.77,0,0,0,8.31,0Z"/></g></g></svg>