<svg xmlns="http://www.w3.org/2000/svg" width="370" height="510" viewBox="0 0 370 510"><defs><style>.cls-1{fill:#cde5c0;}.cls-2{fill:#6fbab6;}.cls-3,.cls-5{fill:none;}.cls-4{fill:#968584;}.cls-5{stroke:#968584;stroke-miterlimit:10;stroke-width:7px;}</style></defs><title>infografic_centre_servicii_sociale_05</title><g id="Layer_2" data-name="Layer 2"><g id="Layer_1-2" data-name="Layer 1"><path class="cls-1" d="M185,41.92v28a127.05,127.05,0,1,1-59.66,239.25l-13.11,24.66c23.88,12.7,45.71,18.14,72.77,18.14a155,155,0,0,0,0-310Z"/><path class="cls-2" d="M58,196.92A127,127,0,0,1,185,69.87h0V41.92c-58.47,0-109.42,30.6-136.86,82.23a155,155,0,0,0,64.09,209.63l13.11-24.66A127,127,0,0,1,58,196.92Z"/><rect class="cls-3" width="370" height="510"/><path d="M167.19,394.86h-2.47v-1.45h6.71v1.45H169v6.25h-1.78Z"/><path d="M174.51,400.72A3.7,3.7,0,0,1,173,399.3a4.12,4.12,0,0,1,0-4.08,3.7,3.7,0,0,1,1.51-1.42,4.42,4.42,0,0,1,2.16-.52,4.36,4.36,0,0,1,2.15.52,3.91,3.91,0,0,1,0,6.92,4.36,4.36,0,0,1-2.15.52A4.42,4.42,0,0,1,174.51,400.72Zm3.39-1.31a2.25,2.25,0,0,0,.86-.87,2.72,2.72,0,0,0,0-2.56,2.25,2.25,0,0,0-.86-.87,2.44,2.44,0,0,0-1.23-.31,2.39,2.39,0,0,0-1.23.31,2.27,2.27,0,0,0-.87.87,2.8,2.8,0,0,0,0,2.56,2.27,2.27,0,0,0,.87.87,2.39,2.39,0,0,0,1.23.31A2.44,2.44,0,0,0,177.9,399.41Z"/><path d="M184.37,394.86H181.9v-1.45h6.71v1.45h-2.46v6.25h-1.78Z"/><path d="M194.92,399.46h-3.58l-.68,1.65h-1.83l3.44-7.7H194l3.44,7.7H195.6Zm-.56-1.35-1.23-2.95-1.22,2.95Z"/><path d="M198.93,393.41h1.78v6.25h3.86v1.45h-5.64Z"/><path class="cls-4" d="M154.55,432.36v1.83H135.37v-1.43L147.17,421a16.37,16.37,0,0,0,3.13-4,7.54,7.54,0,0,0,.82-3.41,5.15,5.15,0,0,0-1.82-4.18,8,8,0,0,0-5.24-1.52,12.24,12.24,0,0,0-4.6.8,8.91,8.91,0,0,0-3.41,2.43l-1.43-1.27a10.36,10.36,0,0,1,4-2.83,14.58,14.58,0,0,1,5.56-1,10,10,0,0,1,6.54,2,6.59,6.59,0,0,1,2.43,5.38,9.19,9.19,0,0,1-1,4.11,17.79,17.79,0,0,1-3.58,4.54l-10.29,10.25Z"/><path class="cls-4" d="M159.39,433.85a1.66,1.66,0,0,1-.5-1.21,1.61,1.61,0,0,1,.5-1.2,1.68,1.68,0,0,1,2.35,0,1.61,1.61,0,0,1,.5,1.2,1.66,1.66,0,0,1-.5,1.21,1.63,1.63,0,0,1-2.35,0Z"/><path class="cls-4" d="M182.41,420.1a7.2,7.2,0,0,1,2.75,6,8.17,8.17,0,0,1-1.1,4.24,7.44,7.44,0,0,1-3.29,2.93,12.08,12.08,0,0,1-5.38,1.08,15.29,15.29,0,0,1-5.68-1,10.4,10.4,0,0,1-4.12-2.71l1-1.55a9.59,9.59,0,0,0,3.65,2.47,13.24,13.24,0,0,0,5.08,1,8.59,8.59,0,0,0,5.76-1.72,5.72,5.72,0,0,0,2-4.58,5.52,5.52,0,0,0-2.3-4.79c-1.52-1.08-4.1-1.63-7.71-1.63h-5.66l1.48-13.51h14.78v1.83H170.65L169.57,418h4Q179.67,418,182.41,420.1Z"/><path class="cls-4" d="M204.45,420.1a7.17,7.17,0,0,1,2.75,6,8.16,8.16,0,0,1-1.09,4.24,7.5,7.5,0,0,1-3.29,2.93,12.11,12.11,0,0,1-5.38,1.08,15.25,15.25,0,0,1-5.68-1,10.37,10.37,0,0,1-4.13-2.71l1-1.55a9.47,9.47,0,0,0,3.64,2.47,13.26,13.26,0,0,0,5.09,1,8.63,8.63,0,0,0,5.76-1.72,5.71,5.71,0,0,0,2-4.58,5.51,5.51,0,0,0-2.29-4.79c-1.53-1.08-4.1-1.63-7.72-1.63H189.5L191,406.29h14.79v1.83H192.69L191.62,418h4Q201.71,418,204.45,420.1Z"/><path class="cls-4" d="M216.27,432.66a11.29,11.29,0,0,1-3.87-4.93,21.16,21.16,0,0,1,0-15,11.29,11.29,0,0,1,3.87-4.93,10.19,10.19,0,0,1,11.36,0,11.29,11.29,0,0,1,3.87,4.93,21.16,21.16,0,0,1,0,15,11.29,11.29,0,0,1-3.87,4.93,10.19,10.19,0,0,1-11.36,0Zm10.33-1.6a9.35,9.35,0,0,0,3.12-4.22,20,20,0,0,0,0-13.2,9.35,9.35,0,0,0-3.12-4.22,8.12,8.12,0,0,0-9.29,0,9.37,9.37,0,0,0-3.13,4.22,20,20,0,0,0,0,13.2,9.37,9.37,0,0,0,3.13,4.22,8.12,8.12,0,0,0,9.29,0Z"/><path d="M81.71,213.12v2h3.57v1.43H81.71v2.81H79.93v-7.7h5.82v1.43Z"/><path d="M92.37,217.74H88.8l-.68,1.65H86.29l3.43-7.7h1.76l3.45,7.7H93.06Zm-3.2-7a1.58,1.58,0,0,1-.59-1.22h1.08a.69.69,0,0,0,.28.56,1.12,1.12,0,0,0,1.33,0,.72.72,0,0,0,.28-.56h1.08a1.59,1.59,0,0,1-.6,1.22,2.5,2.5,0,0,1-2.86,0Zm2.64,5.68-1.22-2.94-1.22,2.94Z"/><path d="M101.29,219.39l-1.48-2.15H98.17v2.15H96.39v-7.7h3.33a4.25,4.25,0,0,1,1.78.34,2.53,2.53,0,0,1,1.56,2.45,2.57,2.57,0,0,1-.41,1.48,2.53,2.53,0,0,1-1.17.95l1.73,2.48Zm-.45-5.9a1.87,1.87,0,0,0-1.22-.35H98.17v2.68h1.45a1.81,1.81,0,0,0,1.22-.35,1.38,1.38,0,0,0,0-2Z"/><path d="M110.2,217.74h-3.57l-.68,1.65h-1.83l3.43-7.7h1.76l3.45,7.7h-1.87Zm-3.2-7a1.58,1.58,0,0,1-.59-1.22h1.08a.69.69,0,0,0,.28.56,1.12,1.12,0,0,0,1.33,0,.72.72,0,0,0,.28-.56h1.08a1.59,1.59,0,0,1-.6,1.22,2.5,2.5,0,0,1-2.86,0Zm2.64,5.68-1.22-2.94-1.22,2.94Z"/><path d="M118,211.69h1.78v6.25h3.86v1.45H118Z"/><path d="M125.3,211.69h1.78v7.7H125.3Z"/><path d="M131.12,219a4,4,0,0,1-1.5-5.52,3.86,3.86,0,0,1,1.5-1.42,4.45,4.45,0,0,1,2.14-.51,4.4,4.4,0,0,1,1.81.35,3.59,3.59,0,0,1,1.36,1L135.28,214a2.46,2.46,0,0,0-1.93-.91,2.59,2.59,0,0,0-1.28.32,2.27,2.27,0,0,0-.87.87,2.59,2.59,0,0,0-.32,1.28,2.55,2.55,0,0,0,.32,1.27,2.23,2.23,0,0,0,.87.88,2.58,2.58,0,0,0,1.28.31,2.43,2.43,0,0,0,1.93-.91l1.15,1a3.6,3.6,0,0,1-1.37,1,4.56,4.56,0,0,1-1.81.35A4.41,4.41,0,0,1,131.12,219Z"/><path d="M144.25,218v1.43h-6v-7.7h5.81v1.43h-4v1.67h3.57v1.39h-3.57V218Z"/><path d="M153.39,211.69v7.7h-1.46l-3.84-4.68v4.68h-1.76v-7.7h1.47l3.83,4.67v-4.67Z"/><path d="M157.47,213.14H155v-1.45h6.71v1.45h-2.47v6.25h-1.78Zm1.45,7.23a.63.63,0,0,1,.2.48,1.57,1.57,0,0,1-.2.72l-.38.74h-.81l.28-.88a.55.55,0,0,1-.3-.21.62.62,0,0,1-.11-.37.6.6,0,0,1,.21-.48.79.79,0,0,1,.55-.18A.82.82,0,0,1,158.92,220.37Z"/><path d="M168,217.74h-3.58l-.68,1.65h-1.82l3.43-7.7h1.76l3.44,7.7H168.7Zm-3.2-7a1.59,1.59,0,0,1-.6-1.22h1.08a.72.72,0,0,0,.28.56,1.12,1.12,0,0,0,1.33,0,.69.69,0,0,0,.28-.56h1.08a1.58,1.58,0,0,1-.59,1.22,2.5,2.5,0,0,1-2.86,0Zm2.64,5.68-1.22-2.94L165,216.38Z"/><path class="cls-2" d="M88.23,169v27.9h-2V170.85H79.38V169Z"/><path class="cls-2" d="M95.9,196.58a1.66,1.66,0,0,1-.5-1.21,1.61,1.61,0,0,1,.5-1.2,1.68,1.68,0,0,1,2.35,0,1.61,1.61,0,0,1,.5,1.2,1.66,1.66,0,0,1-.5,1.21,1.63,1.63,0,0,1-2.35,0Z"/><path class="cls-2" d="M108.06,195.39a11.29,11.29,0,0,1-3.87-4.93,21.19,21.19,0,0,1,0-15,11.32,11.32,0,0,1,3.87-4.92,10.19,10.19,0,0,1,11.36,0,11.32,11.32,0,0,1,3.87,4.92,21.19,21.19,0,0,1,0,15,11.29,11.29,0,0,1-3.87,4.93,10.19,10.19,0,0,1-11.36,0Zm10.32-1.6a9.37,9.37,0,0,0,3.13-4.22,20,20,0,0,0,0-13.2,9.31,9.31,0,0,0-3.13-4.22,8.12,8.12,0,0,0-9.29,0,9.3,9.3,0,0,0-3.12,4.22,20,20,0,0,0,0,13.2,9.35,9.35,0,0,0,3.12,4.22,8.12,8.12,0,0,0,9.29,0Z"/><path class="cls-2" d="M147.86,169v1.43l-12,26.47h-2.23l11.88-26.07H129.84v5.34h-2V169Z"/><path class="cls-2" d="M167,183.43a7.15,7.15,0,0,1,2.41,5.64,7.8,7.8,0,0,1-1.11,4.16,7.52,7.52,0,0,1-3.33,2.85,12.46,12.46,0,0,1-5.32,1,15.84,15.84,0,0,1-5.7-1,10.17,10.17,0,0,1-4.15-2.73l1-1.55a9.84,9.84,0,0,0,3.69,2.47,13.3,13.3,0,0,0,5.12,1,8.72,8.72,0,0,0,5.7-1.66,6.12,6.12,0,0,0,0-9.07q-2-1.64-6.1-1.63h-1.75v-1.48l8.25-10.56H150.85V169h17.5v1.43L160,181.17C163.06,181.26,165.41,182,167,183.43Z"/><path d="M220.84,219.51a4,4,0,0,1-1.49-5.52,3.77,3.77,0,0,1,1.49-1.42,4.48,4.48,0,0,1,2.14-.51,4.4,4.4,0,0,1,1.81.35,3.59,3.59,0,0,1,1.36,1L225,214.48a2.45,2.45,0,0,0-1.94-.91,2.59,2.59,0,0,0-1.28.32,2.27,2.27,0,0,0-.87.87,2.58,2.58,0,0,0-.31,1.28,2.54,2.54,0,0,0,.31,1.27,2.23,2.23,0,0,0,.87.88,2.58,2.58,0,0,0,1.28.31,2.45,2.45,0,0,0,1.94-.91l1.14,1a3.64,3.64,0,0,1-1.36,1A4.65,4.65,0,0,1,223,220,4.47,4.47,0,0,1,220.84,219.51Z"/><path d="M228.8,219.11a3.49,3.49,0,0,1-.92-2.61v-4.31h1.78v4.24c0,1.38.57,2.07,1.72,2.07a1.58,1.58,0,0,0,1.27-.5,2.34,2.34,0,0,0,.44-1.57v-4.24h1.76v4.31a3.53,3.53,0,0,1-.92,2.61,4.07,4.07,0,0,1-5.13,0Z"/><path d="M241,212.19h1.79v6.25h3.86v1.45H241Z"/><path d="M248.35,212.19h1.78v7.7h-1.78Z"/><path d="M254.17,219.51a4,4,0,0,1-1.49-5.52,3.77,3.77,0,0,1,1.49-1.42,4.48,4.48,0,0,1,2.14-.51,4.4,4.4,0,0,1,1.81.35,3.59,3.59,0,0,1,1.36,1l-1.14,1.06a2.46,2.46,0,0,0-1.94-.91,2.59,2.59,0,0,0-1.28.32,2.27,2.27,0,0,0-.87.87,2.58,2.58,0,0,0-.31,1.28,2.54,2.54,0,0,0,.31,1.27,2.23,2.23,0,0,0,.87.88,2.58,2.58,0,0,0,1.28.31,2.46,2.46,0,0,0,1.94-.91l1.14,1a3.64,3.64,0,0,1-1.36,1,4.65,4.65,0,0,1-1.82.35A4.47,4.47,0,0,1,254.17,219.51Z"/><path d="M267.3,218.46v1.43h-6v-7.7h5.82v1.43h-4.05v1.67h3.57v1.39h-3.57v1.78Z"/><path d="M276.44,212.19v7.7H275l-3.84-4.68v4.68h-1.76v-7.7h1.47l3.83,4.67v-4.67Z"/><path d="M280.52,213.64h-2.46v-1.45h6.71v1.45H282.3v6.25h-1.78Zm1.45,7.23a.63.63,0,0,1,.2.48,1.46,1.46,0,0,1-.2.72l-.38.74h-.8l.27-.88a.55.55,0,0,1-.3-.21.62.62,0,0,1-.11-.37.6.6,0,0,1,.21-.48.79.79,0,0,1,.55-.18A.82.82,0,0,1,282,220.87Z"/><path d="M291.07,218.24H287.5l-.69,1.65H285l3.43-7.7h1.76l3.44,7.7h-1.87Zm-3.2-7a1.58,1.58,0,0,1-.59-1.22h1.07a.75.75,0,0,0,.28.56,1.13,1.13,0,0,0,1.34,0,.72.72,0,0,0,.28-.56h1.07a1.58,1.58,0,0,1-.59,1.22,2.5,2.5,0,0,1-2.86,0Zm2.64,5.68-1.22-2.94-1.22,2.94Z"/><path class="cls-1" d="M210.55,169v27.9h-2V170.85H201.7V169Z"/><path class="cls-1" d="M218.22,196.58a1.66,1.66,0,0,1-.5-1.21,1.61,1.61,0,0,1,.5-1.2,1.68,1.68,0,0,1,2.35,0,1.61,1.61,0,0,1,.5,1.2,1.66,1.66,0,0,1-.5,1.21,1.63,1.63,0,0,1-2.35,0Z"/><path class="cls-1" d="M248.22,189.19h-5.86v7.73h-2v-7.73h-15.9v-1.48L239.61,169h2.27L227,187.39H240.4v-6.81h2v6.81h5.86Z"/><path class="cls-1" d="M268.11,169v1.43l-12,26.47h-2.23l11.88-26.07H250.09v5.34h-2V169Z"/><path class="cls-1" d="M291.27,169v1.43l-12,26.47H277l11.87-26.07H273.25v5.34h-2V169Z"/><path d="M85.79,468.38a4.2,4.2,0,0,1-1.47-.77,8.1,8.1,0,0,1-1.24-1.33l1.44-1.21A5,5,0,0,0,86,466.53a3.66,3.66,0,0,0,1.86.43,4.18,4.18,0,0,0,2.25-.48,1.67,1.67,0,0,0,.74-1.5,1.32,1.32,0,0,0-.31-.91,2.7,2.7,0,0,0-1.1-.61,22.23,22.23,0,0,0-2.33-.58,4.92,4.92,0,0,1-2.63-1.26,3.3,3.3,0,0,1-.86-2.4,3.35,3.35,0,0,1,.55-1.92,3.58,3.58,0,0,1,1.59-1.25,6,6,0,0,1,2.41-.45,6.25,6.25,0,0,1,2.76.53,4,4,0,0,1,1.7,1.54l-1.4,1.16a5.11,5.11,0,0,0-1.38-1.18,3.45,3.45,0,0,0-1.7-.37,2.75,2.75,0,0,0-1.78.51,1.77,1.77,0,0,0-.63,1.45,1.44,1.44,0,0,0,.7,1.29,6.31,6.31,0,0,0,2,.71,14.13,14.13,0,0,1,2.55.71,3.44,3.44,0,0,1,1.5,1.11A3.12,3.12,0,0,1,93,465q0,3.66-5.1,3.66A7.3,7.3,0,0,1,85.79,468.38Z"/><path d="M97,461.49v4a1.81,1.81,0,0,0,.27,1.11,1.06,1.06,0,0,0,.88.34h1.3v1.52h-1.3a3.44,3.44,0,0,1-2.4-.68,3.08,3.08,0,0,1-.71-2.29v-7.06a1.32,1.32,0,0,0-.16-.7,2.41,2.41,0,0,0-.6-.61L95.57,456a2.71,2.71,0,0,1,1.1,1,3,3,0,0,1,.3,1.48V460h2.45v1.53Z"/><path d="M108.47,466.87a2.41,2.41,0,0,0,.6.61l-1.32,1.16a2.33,2.33,0,0,1-1.27-1.34,3.18,3.18,0,0,1-1.14,1,3.66,3.66,0,0,1-1.71.38,3,3,0,0,1-2-.66,2.35,2.35,0,0,1-.76-1.86,2.12,2.12,0,0,1,1-2,5.81,5.81,0,0,1,2.43-.73l1-.11a2,2,0,0,0,.82-.21.58.58,0,0,0,.28-.46c-.07-1-.68-1.51-1.82-1.51a2.44,2.44,0,0,0-2,1l-1.35-1a3.2,3.2,0,0,1,1.3-1,5.2,5.2,0,0,1,2.1-.37,4.39,4.39,0,0,1,2.84.79,2.78,2.78,0,0,1,.94,2.27v3.37A1.42,1.42,0,0,0,108.47,466.87Zm-2.71-.2a1.67,1.67,0,0,0,.59-1.31v-1a5,5,0,0,1-1.19.23l-.81.09q-1.65.18-1.65,1.32a1.07,1.07,0,0,0,.36.87,1.65,1.65,0,0,0,1.06.3A2.41,2.41,0,0,0,105.76,466.67Z"/><path d="M112.54,461.49v4a1.81,1.81,0,0,0,.27,1.11,1.06,1.06,0,0,0,.88.34H115v1.52h-1.3a3.44,3.44,0,0,1-2.4-.68,3.08,3.08,0,0,1-.71-2.29v-7.06a1.32,1.32,0,0,0-.16-.7,2.41,2.41,0,0,0-.6-.61l1.32-1.16a2.71,2.71,0,0,1,1.1,1,3,3,0,0,1,.3,1.48V460H115v1.53Z"/><path d="M124.39,466.86a2,2,0,0,0,.61.61l-1.32,1.13a3,3,0,0,1-.9-.66,2.14,2.14,0,0,1-.43-.85,3,3,0,0,1-1.08,1.13,3,3,0,0,1-1.62.42,2.87,2.87,0,0,1-2.14-.77,3,3,0,0,1-.76-2.19V460h2v5.56a1.64,1.64,0,0,0,.39,1.16,1.45,1.45,0,0,0,1.12.43,1.69,1.69,0,0,0,1.26-.53,3.46,3.46,0,0,0,.77-1.38V460h2v6.19A1.36,1.36,0,0,0,124.39,466.86Z"/><path d="M128.71,461.49v4a1.81,1.81,0,0,0,.27,1.11,1,1,0,0,0,.88.34h1.29v1.52h-1.29a3.47,3.47,0,0,1-2.41-.68,3.08,3.08,0,0,1-.71-2.29v-7.06a1.32,1.32,0,0,0-.16-.7,2.34,2.34,0,0,0-.59-.61L127.3,456a2.64,2.64,0,0,1,1.1,1,3,3,0,0,1,.31,1.48V460h2.44v1.53Z"/><path d="M140.55,466.86a2.17,2.17,0,0,0,.61.61l-1.31,1.13a2.76,2.76,0,0,1-.9-.66,1.91,1.91,0,0,1-.43-.85,3.17,3.17,0,0,1-1.08,1.13,3,3,0,0,1-1.62.42,2.9,2.9,0,0,1-2.15-.77,3,3,0,0,1-.75-2.19V460h2v5.56a1.6,1.6,0,0,0,.4,1.16,1.41,1.41,0,0,0,1.11.43,1.66,1.66,0,0,0,1.26-.53,3.35,3.35,0,0,0,.78-1.38V460h2v6.19A1.36,1.36,0,0,0,140.55,466.86Z"/><path d="M143.49,467.68a2.92,2.92,0,0,1-.31-1.47v-8.68a1.48,1.48,0,0,0-.16-.72,2.23,2.23,0,0,0-.6-.59l1.32-1.16a2.67,2.67,0,0,1,1.09.95,2.91,2.91,0,0,1,.31,1.48v8.68a1.32,1.32,0,0,0,.17.7,2.59,2.59,0,0,0,.6.61l-1.31,1.16A2.69,2.69,0,0,1,143.49,467.68Z"/><path d="M153.3,468.27a4.11,4.11,0,0,1-1.32-1.18l1.22-1a3.28,3.28,0,0,0,1,.83,3.15,3.15,0,0,0,2.46,0,.82.82,0,0,0,.42-.77.78.78,0,0,0-.19-.53,1.67,1.67,0,0,0-.69-.37,9.31,9.31,0,0,0-1.43-.32c-1.68-.32-2.52-1.19-2.52-2.63a2.15,2.15,0,0,1,.89-1.82,3.94,3.94,0,0,1,2.39-.67,3.39,3.39,0,0,1,3.13,1.43l-1.2,1a3.16,3.16,0,0,0-.89-.7,2.32,2.32,0,0,0-1-.22,1.73,1.73,0,0,0-1.05.27.86.86,0,0,0-.37.74.79.79,0,0,0,.41.7,3.7,3.7,0,0,0,1.14.38,12.48,12.48,0,0,1,1.81.53,2.49,2.49,0,0,1,1.08.81,2.3,2.3,0,0,1,.4,1.42c0,1.68-1.2,2.52-3.58,2.52A4.6,4.6,0,0,1,153.3,468.27Z"/><path d="M165.51,466.94a3.18,3.18,0,0,0,1-.66l1.17,1.08a3.35,3.35,0,0,1-1.35.95,5.33,5.33,0,0,1-2,.33,4.4,4.4,0,0,1-2.88-.8,3.09,3.09,0,0,1-.93-2.46v-2.63a2.67,2.67,0,0,1,1-2.19,4.15,4.15,0,0,1,2.69-.8,4,4,0,0,1,2.72.86,3.12,3.12,0,0,1,1,2.45,3.54,3.54,0,0,1-.15,1.16,1,1,0,0,1-.52.6,2.49,2.49,0,0,1-1.11.19h-3.64v.36c0,1.16.64,1.74,1.91,1.74A3.37,3.37,0,0,0,165.51,466.94Zm-2.63-5.23a1.56,1.56,0,0,0-.46,1.18v.78H165a1.15,1.15,0,0,0,.71-.17.8.8,0,0,0,.19-.61,1.55,1.55,0,0,0-.46-1.21,1.85,1.85,0,0,0-1.3-.42A1.69,1.69,0,0,0,162.88,461.71Z"/><path d="M175.63,460.19l-.5,1.66a2.46,2.46,0,0,0-.66-.31,2.54,2.54,0,0,0-.76-.1q-1.41,0-2,2.07v4.91h-2v-6.21a1.32,1.32,0,0,0-.16-.7,2.52,2.52,0,0,0-.59-.61l1.31-1.16a3,3,0,0,1,1,.72,1.91,1.91,0,0,1,.4,1,3.16,3.16,0,0,1,1-1.23,2.5,2.5,0,0,1,1.49-.45A2.45,2.45,0,0,1,175.63,460.19Z"/><path d="M179.27,468.2a3.08,3.08,0,0,1-.81-1.47L176.35,460h1.91l2,6.59a2.55,2.55,0,0,0,.17.45.22.22,0,0,0,.21.11.23.23,0,0,0,.2-.12,1.82,1.82,0,0,0,.18-.44l2-6.59h1.89l-2.07,6.77a3.26,3.26,0,0,1-.8,1.47,2,2,0,0,1-1.36.44A2,2,0,0,1,179.27,468.2Z"/><path d="M186.58,458.22a1.14,1.14,0,0,1-.35-.83,1.12,1.12,0,0,1,.35-.82,1.14,1.14,0,0,1,.84-.35,1.1,1.1,0,0,1,.82.35,1.12,1.12,0,0,1,.35.82,1.14,1.14,0,0,1-.35.83,1.1,1.1,0,0,1-.82.35A1.14,1.14,0,0,1,186.58,458.22Zm.17,9.46a2.91,2.91,0,0,1-.32-1.47V460h2v6.21a1.42,1.42,0,0,0,.16.7,2.41,2.41,0,0,0,.6.61l-1.3,1.16A2.65,2.65,0,0,1,186.75,467.68Z"/><path d="M191.76,467.79a3,3,0,0,1-1-2.43V463a3,3,0,0,1,1-2.42,4.18,4.18,0,0,1,2.81-.86,3.83,3.83,0,0,1,3.3,1.43l-1.35,1.09a3.07,3.07,0,0,0-.87-.76,2.3,2.3,0,0,0-1.08-.23,1.93,1.93,0,0,0-1.36.46,1.68,1.68,0,0,0-.49,1.29v2.34a1.71,1.71,0,0,0,.48,1.3,1.92,1.92,0,0,0,1.37.45,2.41,2.41,0,0,0,1.11-.23,2.66,2.66,0,0,0,.86-.75l1.35,1.1a3.33,3.33,0,0,1-1.32,1.06,5,5,0,0,1-2,.35A4.24,4.24,0,0,1,191.76,467.79Z"/><path d="M199.9,458.22a1.14,1.14,0,0,1-.35-.83,1.12,1.12,0,0,1,.35-.82,1.14,1.14,0,0,1,.84-.35,1.1,1.1,0,0,1,.82.35,1.12,1.12,0,0,1,.35.82,1.14,1.14,0,0,1-.35.83,1.1,1.1,0,0,1-.82.35A1.14,1.14,0,0,1,199.9,458.22Zm.17,9.46a2.91,2.91,0,0,1-.32-1.47V460h2v6.21a1.42,1.42,0,0,0,.16.7,2.41,2.41,0,0,0,.6.61l-1.3,1.16A2.65,2.65,0,0,1,200.07,467.68Z"/><path d="M204.66,458.22a1.11,1.11,0,0,1-.36-.83,1.09,1.09,0,0,1,.36-.82,1.15,1.15,0,0,1,1.65,0,1.08,1.08,0,0,1,.35.82,1.17,1.17,0,0,1-2,.83Zm.16,9.46a2.91,2.91,0,0,1-.32-1.47V460h2v6.21a1.32,1.32,0,0,0,.17.7,2.18,2.18,0,0,0,.59.61l-1.3,1.16A2.72,2.72,0,0,1,204.82,467.68Z"/><path d="M209.64,467.68a2.92,2.92,0,0,1-.31-1.47v-8.68a1.37,1.37,0,0,0-.17-.72,2,2,0,0,0-.59-.59l1.31-1.16a2.64,2.64,0,0,1,1.1.95,2.91,2.91,0,0,1,.31,1.48v8.68a1.32,1.32,0,0,0,.17.7,2.41,2.41,0,0,0,.6.61l-1.31,1.16A2.69,2.69,0,0,1,209.64,467.68Z"/><path d="M214.58,467.77a3.07,3.07,0,0,1-1-2.45v-2.26a3.07,3.07,0,0,1,1-2.45,4.94,4.94,0,0,1,5.6,0,3.07,3.07,0,0,1,1,2.45v2.26a3.07,3.07,0,0,1-1,2.45,4.94,4.94,0,0,1-5.6,0Zm4.15-1.12a1.76,1.76,0,0,0,.48-1.33v-2.26a1.76,1.76,0,0,0-.48-1.33,2.21,2.21,0,0,0-2.7,0,1.76,1.76,0,0,0-.48,1.33v2.26a1.76,1.76,0,0,0,.48,1.33,2.21,2.21,0,0,0,2.7,0Z"/><path d="M229.23,460.19l-.5,1.66a2.32,2.32,0,0,0-.66-.31,2.5,2.5,0,0,0-.76-.1q-1.41,0-2,2.07v4.91h-2v-6.21a1.32,1.32,0,0,0-.17-.7,2.18,2.18,0,0,0-.59-.61l1.31-1.16a3,3,0,0,1,1,.72,1.91,1.91,0,0,1,.4,1,3.25,3.25,0,0,1,1-1.23,2.51,2.51,0,0,1,1.5-.45A2.42,2.42,0,0,1,229.23,460.19Z"/><path d="M236.08,468.27a4.11,4.11,0,0,1-1.32-1.18l1.22-1a3.28,3.28,0,0,0,1,.83,3.15,3.15,0,0,0,2.46,0,.82.82,0,0,0,.42-.77.73.73,0,0,0-.19-.53,1.62,1.62,0,0,0-.68-.37,9.49,9.49,0,0,0-1.44-.32c-1.68-.32-2.52-1.19-2.52-2.63a2.14,2.14,0,0,1,.9-1.82,3.89,3.89,0,0,1,2.38-.67,3.39,3.39,0,0,1,3.13,1.43l-1.2,1a3.16,3.16,0,0,0-.89-.7,2.32,2.32,0,0,0-1-.22,1.73,1.73,0,0,0-1.05.27.86.86,0,0,0-.37.74.79.79,0,0,0,.41.7,3.7,3.7,0,0,0,1.14.38,12.48,12.48,0,0,1,1.81.53,2.49,2.49,0,0,1,1.08.81,2.3,2.3,0,0,1,.4,1.42q0,2.52-3.58,2.52A4.6,4.6,0,0,1,236.08,468.27Z"/><path d="M244.07,467.77a3.07,3.07,0,0,1-1-2.45v-2.26a3.07,3.07,0,0,1,1-2.45,4.92,4.92,0,0,1,5.59,0,3.07,3.07,0,0,1,1,2.45v2.26a3.07,3.07,0,0,1-1,2.45,4.92,4.92,0,0,1-5.59,0Zm4.15-1.12a1.8,1.8,0,0,0,.47-1.33v-2.26a1.8,1.8,0,0,0-.47-1.33,1.93,1.93,0,0,0-1.36-.46,1.86,1.86,0,0,0-1.34.46,1.76,1.76,0,0,0-.48,1.33v2.26a1.76,1.76,0,0,0,.48,1.33,1.86,1.86,0,0,0,1.34.46A1.93,1.93,0,0,0,248.22,466.65Z"/><path d="M253.44,467.79a3,3,0,0,1-1-2.43V463a3,3,0,0,1,1-2.42,4.22,4.22,0,0,1,2.82-.86,3.8,3.8,0,0,1,3.29,1.43l-1.35,1.09a3.07,3.07,0,0,0-.87-.76,2.26,2.26,0,0,0-1.07-.23,2,2,0,0,0-1.37.46,1.71,1.71,0,0,0-.48,1.29v2.34a1.74,1.74,0,0,0,.47,1.3,1.94,1.94,0,0,0,1.38.45,2.46,2.46,0,0,0,1.11-.23,2.64,2.64,0,0,0,.85-.75l1.35,1.1a3.3,3.3,0,0,1-1.31,1.06,5,5,0,0,1-2,.35A4.27,4.27,0,0,1,253.44,467.79Z"/><path d="M261.59,458.22a1.1,1.1,0,0,1-.35-.83,1.08,1.08,0,0,1,.35-.82,1.11,1.11,0,0,1,.84-.35,1.08,1.08,0,0,1,.81.35,1.09,1.09,0,0,1,.36.82,1.11,1.11,0,0,1-.36.83,1.08,1.08,0,0,1-.81.35A1.11,1.11,0,0,1,261.59,458.22Zm.16,9.46a2.92,2.92,0,0,1-.31-1.47V460h2v6.21a1.32,1.32,0,0,0,.16.7,2.52,2.52,0,0,0,.59.61l-1.29,1.16A2.69,2.69,0,0,1,261.75,467.68Z"/><path d="M273.24,466.87a2.41,2.41,0,0,0,.6.61l-1.32,1.16a2.33,2.33,0,0,1-1.27-1.34,3.18,3.18,0,0,1-1.14,1,3.66,3.66,0,0,1-1.71.38,3,3,0,0,1-2-.66,2.35,2.35,0,0,1-.76-1.86,2.12,2.12,0,0,1,1-2,5.81,5.81,0,0,1,2.43-.73l1-.11a2,2,0,0,0,.82-.21.58.58,0,0,0,.28-.46c-.07-1-.68-1.51-1.82-1.51a2.44,2.44,0,0,0-2.05,1l-1.35-1a3.2,3.2,0,0,1,1.3-1,5.2,5.2,0,0,1,2.1-.37,4.39,4.39,0,0,1,2.84.79,2.78,2.78,0,0,1,.94,2.27v3.37A1.42,1.42,0,0,0,273.24,466.87Zm-2.71-.2a1.67,1.67,0,0,0,.59-1.31v-1a5,5,0,0,1-1.19.23l-.81.09q-1.65.18-1.65,1.32a1.07,1.07,0,0,0,.36.87,1.65,1.65,0,0,0,1.06.3A2.41,2.41,0,0,0,270.53,466.67Z"/><path d="M275.67,467.68a2.91,2.91,0,0,1-.32-1.47v-8.68a1.37,1.37,0,0,0-.16-.72,2.23,2.23,0,0,0-.6-.59l1.32-1.16a2.71,2.71,0,0,1,1.1.95,3,3,0,0,1,.3,1.48v8.68a1.32,1.32,0,0,0,.17.7,2.67,2.67,0,0,0,.61.61l-1.32,1.16A2.65,2.65,0,0,1,275.67,467.68Z"/><path d="M284.65,466.94a3.06,3.06,0,0,0,1-.66l1.17,1.08a3.35,3.35,0,0,1-1.35.95,5.33,5.33,0,0,1-2,.33,4.4,4.4,0,0,1-2.88-.8,3.09,3.09,0,0,1-.93-2.46v-2.63a2.67,2.67,0,0,1,1-2.19,4.15,4.15,0,0,1,2.69-.8,4,4,0,0,1,2.72.86,3.12,3.12,0,0,1,1,2.45,3.54,3.54,0,0,1-.15,1.16,1,1,0,0,1-.52.6,2.49,2.49,0,0,1-1.11.19h-3.64v.36c0,1.16.64,1.74,1.91,1.74A3.37,3.37,0,0,0,284.65,466.94ZM282,461.71a1.56,1.56,0,0,0-.46,1.18v.78h2.57a1.15,1.15,0,0,0,.71-.17.8.8,0,0,0,.19-.61,1.58,1.58,0,0,0-.45-1.21,1.89,1.89,0,0,0-1.31-.42A1.71,1.71,0,0,0,282,461.71Z"/><path class="cls-5" d="M51.92,312.59a176.31,176.31,0,0,0,266.16,0"/></g></g></svg>