<svg xmlns="http://www.w3.org/2000/svg" width="260.51" height="30.26" viewBox="0 0 260.51 30.26"><defs><style>.cls-1{fill:#13356f;}.cls-2{fill:#8abc3f;}.cls-3{fill:#f5e51e;}.cls-3,.cls-4{fill-rule:evenodd;}.cls-4{fill:#c4182f;}</style></defs><title>logo_OMV_Petrom</title><g id="Layer_2" data-name="Layer 2"><g id="Layer_1-2" data-name="Layer 1"><path class="cls-1" d="M49.09,12.44v-.07A12.26,12.26,0,0,1,61.63,0,12.14,12.14,0,0,1,74.1,12.3v.07a12.51,12.51,0,0,1-25,.07Zm20.61,0v-.07a8.2,8.2,0,0,0-8.14-8.51c-4.75,0-8.06,3.8-8.06,8.44v.07a8.19,8.19,0,0,0,8.13,8.51C66.38,20.88,69.7,17.09,69.7,12.44Z"/><path class="cls-1" d="M78.71.41h4.48l7.28,11.31L97.74.41h4.48V24.33H98V7.18L90.47,18.45h-.14L82.85,7.24V24.33H78.71Z"/><path class="cls-1" d="M105.57.41h4.64l7.21,18.38L124.6.41h4.55l-10,24.09h-3.69Z"/><path class="cls-1" d="M142.81.41h9.43c5.57,0,9.09,3.18,9.09,8v.06c0,5.37-4.3,8.17-9.56,8.17H147v7.69h-4.21Zm9.09,12.44c3.18,0,5.16-1.78,5.16-4.27V8.51c0-2.8-2-4.27-5.16-4.27H147v8.61Z"/><path class="cls-1" d="M163.35,15.38v-.07c0-5.16,3.66-9.4,8.82-9.4,5.74,0,8.65,4.51,8.65,9.71,0,.37,0,.75-.07,1.16H167.49a5,5,0,0,0,5.19,4.58,6.54,6.54,0,0,0,4.89-2.16L180,21.36a9.14,9.14,0,0,1-7.39,3.38A9,9,0,0,1,163.35,15.38ZM176.71,14c-.27-2.66-1.84-4.75-4.57-4.75-2.53,0-4.31,2-4.69,4.75Z"/><path class="cls-1" d="M184.89,19.34V9.84H182.6V6.29h2.29v-5H189v5h4.85V9.84H189v8.85A2,2,0,0,0,191.25,21a5.56,5.56,0,0,0,2.56-.62v3.39a7.24,7.24,0,0,1-3.72.92C187.05,24.64,184.89,23.31,184.89,19.34Z"/><path class="cls-1" d="M197.36,6.29h4.14v4.06c1.13-2.69,3.21-4.54,6.39-4.4v4.37h-.24c-3.62,0-6.15,2.36-6.15,7.14v6.87h-4.14Z"/><path class="cls-1" d="M209.46,15.41v-.07a9.62,9.62,0,0,1,19.24-.07v.07a9.43,9.43,0,0,1-9.67,9.4A9.33,9.33,0,0,1,209.46,15.41Zm15.1,0v-.07A5.58,5.58,0,0,0,219,9.53a5.41,5.41,0,0,0-5.43,5.74v.07a5.59,5.59,0,0,0,5.5,5.81A5.43,5.43,0,0,0,224.56,15.41Z"/><path class="cls-1" d="M232.24,6.29h4.13V9a6.47,6.47,0,0,1,5.5-3.11,5.69,5.69,0,0,1,5.37,3.18,7.37,7.37,0,0,1,6.11-3.18c3.93,0,6.33,2.5,6.33,6.9V24.33h-4.14V14.08c0-2.87-1.33-4.41-3.65-4.41S248,11.24,248,14.15V24.33h-4.13V14c0-2.8-1.37-4.37-3.66-4.37s-3.86,1.71-3.86,4.51V24.33h-4.13Z"/><rect class="cls-2" x="49.14" y="28.22" width="211.37" height="2.04"/><path class="cls-1" d="M22.73,28.39H2.8L10.27.49H28.43A8.1,8.1,0,0,1,34.5,2.68,8.76,8.76,0,0,1,36.61,9C36.5,16.83,27,19.76,21,19.76h-.51a12.25,12.25,0,0,0,3.82,1.55l-.06.41-4.64.06a12.51,12.51,0,0,0,4.15,1.91l0,.42-4.64,0a15.41,15.41,0,0,0,4.13,1.6l0,.41-4.85.08A14.22,14.22,0,0,0,22.79,28Z"/><path class="cls-1" d="M19.93,30.26H0L.07,30,7.48,2.36H25.63a8.1,8.1,0,0,1,6.08,2.19,8.78,8.78,0,0,1,2.1,6.29c-.11,7.86-9.66,10.78-15.65,10.78h-.51a12.25,12.25,0,0,0,3.82,1.55l0,.41-4.65.06a12.76,12.76,0,0,0,4.16,1.91l-.05.41-4.65,0a15.12,15.12,0,0,0,4.13,1.59l0,.42-4.84.08A14.78,14.78,0,0,0,20,29.85Z"/><path class="cls-3" d="M33.39,10.83a8.3,8.3,0,0,0-2-6,7.67,7.67,0,0,0-5.77-2.06H7.8L.55,29.84H18.4A9.31,9.31,0,0,1,14.77,28l.14-.36,3.91-.07A25,25,0,0,1,15.3,26l.09-.39,4.14,0A13.16,13.16,0,0,1,16,23.6l.13-.37L20,23.18a9.33,9.33,0,0,1-3.19-1.64l.14-.37c.38,0,.78,0,1.18,0C24,21.21,33.28,18.39,33.39,10.83Z"/><path class="cls-4" d="M21.17,8.43a.5.5,0,1,1,0,1,.5.5,0,1,1,0-1m-3.1-1.68c-4.8.12-9.32.4-10.88,6,1.12-1.08,2.59-2.48,4.22-2.29a10.21,10.21,0,0,0-4.89,5c1.49-1.31,3.5-2.29,5-2.18-2.94,1.51-5,3.2-5.75,5.1a10,10,0,0,1,5.73-2.41c-4.59,2-9.25,7.24-5.21,9.8a9.75,9.75,0,0,0,4.48,1.19,6.19,6.19,0,0,1-2.94-2.4c-1.77-3.19,4.52-5.45,6.56-6a70.75,70.75,0,0,1,14-1.84l.94-2.36L28,14.36l-.09-.59-1.33,1-.15-1.15-1.27,1.17h-.06l-.21-1.4L23,14.71l-.11-1.24-1.17.86-.1-.48,1.9-2.22h.1l.07,1.82L25.21,12h.08l.23,1.36L27,12.05l.1,1.39,1.52-1.09.09,1.1,2.73-3.39L23,9.22l0-1.45-2.92-.56c.09-.66.82-1.4,1.12-1.93a4.9,4.9,0,0,0-3.19,1.47"/></g></g></svg>