<svg width="150" height="70" viewBox="0 0 150 70" fill="none" xmlns="http://www.w3.org/2000/svg">
<path d="M60.5831 20.0577V16.5103H56.9575V20.0577H56.059V12.3043L56.9575 12.2494V15.7773H60.5831V12.3043H61.4777V20.0577H60.5831Z" fill="#6FBBB7"/>
<path d="M67.0801 12.3043L70.0454 19.991L69.1585 20.14L68.2951 17.8587H65.0329L64.2281 20.0616H63.353L66.2167 12.3082L67.0801 12.3043ZM66.6386 13.4802L65.2869 17.1139H68.0216L66.6386 13.4802Z" fill="#6FBBB7"/>
<path d="M71.9871 12.3043H74.0889C74.8217 12.2669 75.5479 12.4587 76.1674 12.8531C76.4299 13.0494 76.6391 13.3088 76.7756 13.6074C76.9122 13.9061 76.9717 14.2344 76.9487 14.5621C76.9526 15.0122 76.816 15.4521 76.558 15.8204C76.3099 16.1709 75.9669 16.443 75.5696 16.6043L77.523 20.0694H76.5737L74.8039 16.8434C74.5304 16.8709 74.2608 16.8866 73.9952 16.8866H72.9052V20.0694H72.0066L71.9871 12.3043ZM74.1007 13.0883H72.8856V16.1536H74.0108C74.5181 16.1772 75.0214 16.0533 75.4602 15.7969C75.6459 15.6652 75.7947 15.4879 75.8925 15.282C75.9903 15.0761 76.0339 14.8485 76.0189 14.6209C76.0413 14.3989 76.0075 14.1747 75.9208 13.9692C75.8341 13.7637 75.6972 13.5834 75.5227 13.445C75.0956 13.1826 74.6012 13.0518 74.1007 13.0687V13.0883Z" fill="#6FBBB7"/>
<path d="M84.7116 13.0138H82.0432V20.0694H81.1329V13.0138H78.5271V12.3043H84.5944L84.7116 13.0138Z" fill="#6FBBB7"/>
<path d="M88.5754 12.3043L91.5407 19.991L90.6539 20.14L89.7905 17.8587H86.5283L85.7235 20.0616H84.8483L87.712 12.3082L88.5754 12.3043ZM88.1301 13.4802L86.7783 17.1139H89.5131L88.1301 13.4802Z" fill="#6FBBB7"/>
<path d="M55.4221 32.362L56.2035 30.6137C56.5004 30.785 56.8182 30.9168 57.1489 31.0057C57.4934 31.1128 57.8511 31.1709 58.2116 31.1782C58.4983 31.1913 58.7824 31.119 59.0281 30.9704C59.1134 30.9241 59.1859 30.8572 59.2391 30.7758C59.2923 30.6943 59.3245 30.601 59.3329 30.504C59.3242 30.4359 59.2995 30.3708 59.2608 30.3142C59.2221 30.2576 59.1704 30.2112 59.1102 30.1786C58.9617 30.0728 58.7195 29.9199 58.3913 29.7239L58.0006 29.4966C57.4224 29.1556 56.9731 28.8733 56.6528 28.646C56.3148 28.408 56.0212 28.1121 55.7855 27.7719C55.5292 27.4206 55.3922 26.996 55.3948 26.5606C55.387 26.1015 55.5237 25.6516 55.7855 25.275C56.0735 24.8827 56.4624 24.5765 56.9106 24.3891C57.4467 24.1673 58.0226 24.0592 58.6023 24.0716C59.0608 24.0732 59.5169 24.1379 59.958 24.2636C60.3802 24.373 60.7824 24.5489 61.1495 24.785L60.4619 26.3529C60.122 26.229 59.775 26.1256 59.4227 26.0432C59.1655 25.9916 58.9037 25.9667 58.6414 25.9688C58.4219 25.9582 58.2051 26.0202 58.0241 26.1451C57.9531 26.1935 57.8948 26.2583 57.854 26.334C57.8132 26.4097 57.7911 26.4942 57.7897 26.5802C57.7923 26.6482 57.8114 26.7144 57.8455 26.7732C57.8795 26.832 57.9274 26.8815 57.985 26.9173C58.1945 27.0631 58.4138 27.194 58.6414 27.3093L59.0985 27.5641C59.5587 27.8221 60.0047 28.1047 60.4346 28.4108C60.7814 28.6642 61.086 28.9711 61.3371 29.3202C61.5879 29.6609 61.7247 30.0726 61.7277 30.4961C61.7342 30.9696 61.5861 31.4322 61.3058 31.8132C60.9949 32.2182 60.5804 32.5311 60.1064 32.7187C59.525 32.9504 58.9035 33.0637 58.278 33.0519C57.7702 33.0433 57.2652 32.9735 56.7739 32.8441C56.3021 32.7512 55.8465 32.5887 55.4221 32.362Z" fill="#6FBBB7"/>
<path d="M63.4389 32.899V24.2205H69.1741L69.3929 26.0472H65.7518V27.6151H68.4123L68.6272 29.4417H65.7518V31.0645H69.5414L69.7563 32.8872L63.4389 32.899Z" fill="#6FBBB7"/>
<path d="M71.4948 24.2205H75.1321C76.0424 24.1835 76.9402 24.4434 77.691 24.9614C78.0277 25.2195 78.2955 25.5571 78.4706 25.9442C78.6458 26.3313 78.7229 26.7558 78.6951 27.18C78.7075 27.6489 78.5999 28.1131 78.3825 28.5284C78.1798 28.9117 77.8859 29.2388 77.5269 29.4809L79.4335 32.899H76.7495L75.3508 30.1551H73.8389V32.899H71.4948V24.2205ZM75.0578 26.0471H73.8389V28.3442H75.1086C75.4329 28.3558 75.7486 28.2389 75.9877 28.0188C76.101 27.9115 76.1903 27.7812 76.2496 27.6365C76.3089 27.4919 76.3368 27.3363 76.3315 27.18C76.3422 27.0237 76.3188 26.8669 76.2628 26.7206C76.2068 26.5743 76.1195 26.4421 76.0072 26.3333C75.7407 26.1219 75.4043 26.0197 75.0656 26.0471H75.0578Z" fill="#6FBBB7"/>
<path d="M84.1998 30.1159L86.2587 24.2362H88.5637L85.3172 32.9147H83.0043L79.7734 24.3381L82.0511 24.1068L84.1998 30.1159Z" fill="#6FBBB7"/>
<path d="M90.2163 32.899V24.2205H92.533V32.899H90.2163Z" fill="#6FBBB7"/>
<path d="M101.499 24.7693L100.815 26.3372C100.475 26.2138 100.128 26.1104 99.7763 26.0276C99.519 25.9763 99.2572 25.9513 98.9949 25.9531C98.6349 25.9561 98.285 26.0726 97.9948 26.2863C97.6596 26.524 97.3906 26.8438 97.2134 27.2153C97.0088 27.6416 96.9071 28.1102 96.9165 28.5833C96.9063 29.056 97.0109 29.5242 97.2212 29.9474C97.4044 30.3158 97.6839 30.6274 98.0299 30.8489C98.3425 31.0499 98.7057 31.1573 99.0769 31.1586C99.6566 31.1559 100.224 30.9932 100.718 30.6882L101.577 32.4286C101.211 32.6392 100.816 32.7962 100.405 32.8951C99.954 33.0072 99.491 33.0651 99.0262 33.0675C98.1939 33.0862 97.3707 32.8905 96.6352 32.4992C95.9728 32.1409 95.4295 31.5958 95.0725 30.9312C94.6976 30.2176 94.5069 29.4212 94.5177 28.6146C94.5015 27.7943 94.6981 26.9839 95.0881 26.2627C95.457 25.5871 96.0063 25.0278 96.6742 24.6478C97.3699 24.2544 98.1574 24.0542 98.9558 24.0677C99.4143 24.0693 99.8705 24.1339 100.312 24.2597C100.732 24.3646 101.133 24.5367 101.499 24.7693Z" fill="#6FBBB7"/>
<path d="M103.269 32.899V24.2205H105.586V32.899H103.269Z" fill="#6FBBB7"/>
<path d="M108.078 32.899V24.2205H110.391V32.899H108.078Z" fill="#6FBBB7"/>
<path d="M119.096 32.899H112.907V24.2205H115.22V31.0763H118.896L119.096 32.899Z" fill="#6FBBB7"/>
<path d="M124.526 24.0402C125.36 24.0197 126.184 24.2227 126.913 24.6282C127.576 25.0036 128.118 25.5612 128.476 26.2353C128.84 26.9367 129.025 27.7179 129.015 28.5088C129.028 29.3282 128.833 30.1375 128.448 30.8607C128.086 31.5418 127.537 32.1048 126.866 32.4835C126.149 32.8802 125.341 33.0803 124.522 33.0636C123.702 33.0788 122.892 32.873 122.178 32.4678C121.515 32.0885 120.974 31.5285 120.615 30.8528C120.246 30.1545 120.058 29.3739 120.068 28.5833C120.055 27.7628 120.253 26.9529 120.643 26.2314C121.008 25.551 121.56 24.9894 122.233 24.6125C122.934 24.2228 123.725 24.0254 124.526 24.0402ZM122.44 28.5872C122.411 29.2454 122.607 29.8938 122.995 30.4256C123.172 30.6581 123.403 30.8442 123.668 30.9684C123.932 31.0926 124.222 31.1511 124.514 31.139C124.802 31.1466 125.088 31.0893 125.351 30.9712C125.614 30.8532 125.848 30.6774 126.034 30.4569C126.463 29.8981 126.673 29.2008 126.624 28.497C126.652 27.8431 126.452 27.1998 126.057 26.6782C125.88 26.4496 125.651 26.2662 125.39 26.143C125.129 26.0197 124.842 25.96 124.553 25.9687C124.174 25.9655 123.803 26.0791 123.491 26.2941C123.153 26.5256 122.883 26.8437 122.709 27.2152C122.515 27.6457 122.423 28.1152 122.44 28.5872Z" fill="#6FBBB7"/>
<path d="M130.878 24.2205H134.516C135.425 24.1829 136.322 24.443 137.071 24.9614C137.408 25.2188 137.677 25.5562 137.853 25.9434C138.029 26.3306 138.106 26.7554 138.079 27.18C138.088 27.6486 137.981 28.1122 137.766 28.5284C137.562 28.9118 137.267 29.239 136.907 29.4809L138.813 32.899H136.114L134.715 30.1551H133.176V32.899H130.878V24.2205ZM134.438 26.0471H133.191V28.3442H134.465C134.788 28.3561 135.103 28.2391 135.34 28.0188C135.453 27.9115 135.543 27.7812 135.602 27.6365C135.661 27.4919 135.689 27.3363 135.684 27.18C135.695 27.0236 135.672 26.8666 135.616 26.7202C135.56 26.5738 135.473 26.4417 135.36 26.3333C135.094 26.1229 134.759 26.0207 134.422 26.0471H134.438Z" fill="#6FBBB7"/>
<path d="M55.4222 45.2072L56.2035 43.4589C56.5004 43.6302 56.8182 43.762 57.149 43.8509C57.4938 43.9561 57.8513 44.0142 58.2116 44.0234C58.4989 44.0373 58.7836 43.9635 59.0282 43.8117C59.1139 43.7659 59.1868 43.6992 59.2401 43.6177C59.2933 43.5361 59.3252 43.4425 59.3329 43.3453C59.3329 43.2355 59.2587 43.1297 59.1102 43.0199C58.9617 42.9102 58.7195 42.7651 58.3913 42.5692L58.0007 42.3379C57.4225 41.9956 56.9732 41.7133 56.6528 41.4912C56.3159 41.2518 56.0225 40.9562 55.7855 40.6171C55.5297 40.2641 55.3928 39.8384 55.3948 39.4019C55.3876 38.9441 55.5243 38.4956 55.7855 38.1202C56.0729 37.7282 56.4621 37.4231 56.9107 37.2382C57.4458 37.0132 58.0222 36.9037 58.6023 36.9168C59.0607 36.9204 59.5165 36.9849 59.958 37.1089C60.3802 37.2182 60.7824 37.3942 61.1496 37.6302L60.462 39.1981C60.1215 39.0769 59.7745 38.9749 59.4227 38.8924C59.1657 38.8394 58.9038 38.8131 58.6414 38.814C58.4215 38.8049 58.2047 38.8682 58.0241 38.9943C57.9524 39.0419 57.8935 39.1065 57.8527 39.1824C57.8118 39.2583 57.7901 39.3431 57.7897 39.4294C57.7929 39.4972 57.8124 39.5632 57.8464 39.6218C57.8804 39.6805 57.9279 39.7301 57.985 39.7665C58.1947 39.9119 58.414 40.0429 58.6414 40.1585L59.0985 40.4133C59.558 40.6738 60.0039 40.9577 60.4346 41.2639C60.7859 41.5177 61.0934 41.8275 61.3449 42.1811C61.5946 42.5224 61.7312 42.9337 61.7356 43.357C61.7427 43.8294 61.5944 44.2909 61.3136 44.6702C61.005 45.0774 60.5898 45.3909 60.1142 45.5756C59.5334 45.8092 58.9115 45.9226 58.2859 45.9088C57.7781 45.9017 57.2731 45.8333 56.7817 45.705C56.3069 45.6061 55.8489 45.4384 55.4222 45.2072Z" fill="#6FBBB7"/>
<path d="M67.2676 36.8854C68.1001 36.8645 68.9229 37.0675 69.6508 37.4734C70.3141 37.8482 70.8565 38.4059 71.2135 39.0805C71.5778 39.782 71.7631 40.5631 71.7526 41.354C71.7648 42.1734 71.5699 42.9825 71.1862 43.7059C70.8233 44.3858 70.2743 44.9475 69.6039 45.3248C68.8875 45.723 68.0786 45.9232 67.2598 45.9049C66.4397 45.9219 65.6301 45.7174 64.9157 45.313C64.2531 44.9337 63.7113 44.3738 63.353 43.6981C62.9844 42.9979 62.7963 42.2163 62.806 41.4246C62.7934 40.6047 62.9897 39.7951 63.3764 39.0727C63.7458 38.3927 64.2981 37.8304 64.9704 37.4499C65.6733 37.0621 66.4657 36.8674 67.2676 36.8854ZM65.1814 41.4285C65.153 42.0861 65.3471 42.734 65.7322 43.2669C65.9106 43.4997 66.1421 43.686 66.4073 43.8102C66.6725 43.9344 66.9635 43.9927 67.2559 43.9803C67.5439 43.9879 67.83 43.9306 68.093 43.8125C68.356 43.6945 68.5893 43.5188 68.7756 43.2983C69.2058 42.74 69.4158 42.0422 69.3656 41.3383C69.3943 40.6843 69.1938 40.0408 68.7991 39.5196C68.6219 39.2897 68.3927 39.1055 68.1305 38.9821C67.8682 38.8587 67.5805 38.7997 67.2911 38.8101C66.9122 38.8081 66.5416 38.9215 66.2284 39.1354C65.8906 39.3653 65.6207 39.6821 65.447 40.0527C65.2543 40.4847 65.1634 40.9555 65.1814 41.4285Z" fill="#6FBBB7"/>
<path d="M80 37.6302L79.3084 39.1981C78.9678 39.0775 78.6209 38.9754 78.2692 38.8924C78.0121 38.8398 77.7503 38.8135 77.4879 38.814C77.1282 38.8188 76.7788 38.9352 76.4877 39.1472C76.1533 39.3874 75.8846 39.7082 75.7064 40.0801C75.5022 40.5052 75.4005 40.9724 75.4094 41.4442C75.3988 41.9183 75.5034 42.3878 75.7142 42.8122C75.8963 43.1803 76.1762 43.491 76.5229 43.7098C76.8351 43.9122 77.1983 44.021 77.5699 44.0234C78.1495 44.0207 78.7172 43.858 79.2108 43.553L80.0898 45.2856C79.7139 45.5 79.3084 45.6572 78.8865 45.7521C78.4356 45.866 77.9724 45.924 77.5074 45.9245C76.6749 45.9449 75.8513 45.7491 75.1164 45.3562C74.453 44.9994 73.9093 44.4539 73.5537 43.7882C73.1832 43.0708 72.9978 42.2716 73.0146 41.4638C72.9989 40.6435 73.1955 39.8332 73.585 39.1119C73.9551 38.4371 74.504 37.8781 75.1711 37.4969C75.8675 37.1053 76.6545 36.9052 77.4527 36.9168C77.9111 36.9204 78.3669 36.985 78.8084 37.1089C79.231 37.2171 79.6334 37.3931 80 37.6302Z" fill="#6FBBB7"/>
<path d="M81.7697 45.7442V37.0657H84.0865V45.7442H81.7697Z" fill="#6FBBB7"/>
<path d="M91.2985 37.0657L94.5451 45.6423L92.2674 45.8696L91.6423 44.0352H88.6536L88.0558 45.7442H85.7547L88.9974 37.0657H91.2985ZM90.103 39.8449L89.2747 42.1968H90.9664L90.103 39.8449Z" fill="#6FBBB7"/>
<path d="M102.417 45.7442H96.2094V37.0657H98.5222V43.9019H102.199L102.417 45.7442Z" fill="#6FBBB7"/>
<path d="M104.121 45.7442V37.0657H109.86L110.075 38.8884H106.437V40.4564H109.094L109.313 42.283H106.437V43.9019H110.239L110.458 45.7285L104.121 45.7442Z" fill="#6FBBB7"/>
<path d="M58.6961 57.5938H56.059V49.8404H58.7625C59.8994 49.8404 60.7471 50.1971 61.3097 50.9027C61.899 51.7006 62.1957 52.6781 62.1497 53.6701C62.1641 54.3619 62.0309 55.0489 61.759 55.6849C61.5111 56.254 61.104 56.7387 60.587 57.0803C60.0216 57.4363 59.3632 57.6151 58.6961 57.5938ZM58.8094 50.6048H56.9575V56.8373H58.7078C59.1824 56.8454 59.6484 56.7087 60.0439 56.4453C60.4386 56.1734 60.7477 55.7939 60.9347 55.3517C61.1569 54.8197 61.2647 54.2467 61.2511 53.6701C61.2887 52.8783 61.0723 52.0952 60.6338 51.4358C60.4208 51.158 60.143 50.9369 59.8249 50.792C59.5068 50.6471 59.158 50.5828 58.8094 50.6048Z" fill="#6FBBB7"/>
<path d="M64.3649 57.5938V49.8404H65.2634V57.5938H64.3649Z" fill="#6FBBB7"/>
<path d="M67.6818 57.5938V49.8404H68.3967L72.159 55.0851L72.6239 55.8495V49.8404H73.5342V57.5938H72.8036L68.8733 52.0198L68.5803 51.5063V57.5938H67.6818Z" fill="#6FBBB7"/>
<path d="M79.6444 49.8404H81.7463C82.479 49.803 83.2053 49.9948 83.8247 50.3892C84.0873 50.5855 84.2965 50.8449 84.433 51.1435C84.5696 51.4422 84.6291 51.7705 84.6061 52.0982C84.6095 52.5494 84.4729 52.9905 84.2154 53.3604C83.9655 53.7093 83.6231 53.9809 83.227 54.1444L85.1804 57.6095H84.192L82.4339 54.3678C82.1668 54.399 81.898 54.4147 81.6291 54.4148H80.5391V57.5938H79.6405L79.6444 49.8404ZM81.758 50.6048H80.543V53.6701H81.6525C82.1587 53.6943 82.6609 53.5703 83.0981 53.3134C83.2683 53.1707 83.4064 52.9933 83.5031 52.793C83.5997 52.5927 83.6528 52.3741 83.6587 52.1516C83.6646 51.9291 83.6232 51.7079 83.5374 51.5027C83.4515 51.2975 83.323 51.113 83.1606 50.9615C82.7375 50.7084 82.2502 50.5845 81.758 50.6048Z" fill="#6FBBB7"/>
<path d="M90.1303 49.6601C90.7851 49.6506 91.4291 49.8275 91.9878 50.1702C92.5465 50.5129 92.997 51.0074 93.287 51.5965C93.6071 52.237 93.768 52.9458 93.7559 53.6622C93.7648 54.3825 93.6028 55.0947 93.2831 55.7397C92.9857 56.3385 92.532 56.8451 91.9704 57.2057C91.4062 57.5648 90.7516 57.7552 90.0834 57.7545C89.4301 57.7634 88.7877 57.5853 88.2316 57.241C87.6826 56.8917 87.2394 56.3983 86.9502 55.8142C86.6301 55.175 86.4693 54.4676 86.4813 53.7524C86.4715 53.0332 86.6336 52.3221 86.9541 51.6788C87.2508 51.0843 87.6998 50.5796 88.255 50.2167C88.8159 49.8587 89.4656 49.6659 90.1303 49.6601ZM87.4268 53.7406C87.4175 54.3116 87.5335 54.8777 87.7667 55.3987C87.9702 55.8605 88.2942 56.2586 88.7043 56.5511C89.1019 56.8283 89.5759 56.9736 90.06 56.9666C90.561 56.9734 91.0519 56.8256 91.4665 56.5433C91.8908 56.2478 92.2259 55.841 92.4354 55.3673C92.6764 54.8333 92.7965 54.2523 92.787 53.6661C92.7963 53.0951 92.6802 52.529 92.4471 52.0081C92.2446 51.5467 91.9204 51.1496 91.5094 50.8596C91.1121 50.5819 90.6379 50.4365 90.1538 50.4441C89.6533 50.4362 89.1628 50.5856 88.7512 50.8713C88.3264 51.1673 87.9901 51.5738 87.7784 52.0473C87.537 52.5784 87.4169 53.1569 87.4268 53.7406Z" fill="#6FBBB7"/>
<path d="M99.0613 55.0381L96.7758 51.7415V57.6213H95.8773V49.8404H96.4125L99.1824 53.7955L101.866 49.8404H102.433V57.5938H101.523V51.7415L99.366 54.9675L99.0613 55.0381Z" fill="#6FBBB7"/>
<path d="M107.922 49.8404L110.887 57.5232L110 57.6722L109.137 55.3948H105.875L105.07 57.5938H104.195L107.047 49.8404H107.922ZM106.57 49.1701L105.762 49.0565L107.047 47.3905H107.762L109.078 49.0565L108.262 49.1701L107.438 48.053L106.57 49.1701ZM107.477 51.0281L106.125 54.6618H108.86L107.477 51.0281Z" fill="#6FBBB7"/>
<path d="M112.739 57.5938V49.8404H113.454L117.205 55.0851L117.673 55.8495V49.8404H118.58V57.5938H117.853L113.923 52.0198L113.626 51.5063V57.5938H112.739Z" fill="#6FBBB7"/>
<path d="M121.279 57.5938V49.8404H122.178V57.5938H121.279Z" fill="#6FBBB7"/>
<path d="M127.655 49.8404L130.621 57.5233L129.734 57.6722L128.87 55.3948H125.608L124.803 57.5938H123.928L126.792 49.8404H127.655ZM127.21 51.0164L125.858 54.65H128.593L127.21 51.0164Z" fill="#6FBBB7"/>
<path d="M32.8564 35C32.8572 36.0995 32.5329 37.1745 31.9246 38.0891C31.3164 39.0037 30.4514 39.7167 29.4392 40.138C28.427 40.5593 27.313 40.6699 26.2381 40.4559C25.1632 40.2419 24.1758 39.7128 23.4006 38.9356C22.6255 38.1584 22.0974 37.1681 21.8834 36.0897C21.6693 35.0114 21.7788 33.8937 22.198 32.8778C22.6171 31.8619 23.3272 30.9936 24.2383 30.3827C25.1494 29.7717 26.2207 29.4456 27.3165 29.4456C28.0438 29.4451 28.7641 29.5884 29.4362 29.8673C30.1083 30.1462 30.7191 30.5553 31.2336 31.0711C31.748 31.5869 32.1562 32.1994 32.4346 32.8735C32.7131 33.5477 32.8564 34.2703 32.8564 35ZM34.6184 20.0263C33.9565 21.4049 32.9203 22.568 31.629 23.382C30.3376 24.196 28.8435 24.6278 27.3185 24.6278C25.7934 24.6278 24.2993 24.196 23.008 23.382C21.7166 22.568 20.6804 21.4049 20.0186 20.0263C17.2244 21.3968 14.87 23.527 13.2233 26.1743C11.5767 28.8215 10.704 31.8795 10.7047 35C10.7047 41.1384 13.0957 46.4655 15.1585 49.2642C17.1899 51.9352 19.6214 54.2743 22.3666 56.1984C21.8079 54.4854 20.6319 50.1736 24.4645 45.8618C25.262 44.9998 26.1045 44.1807 26.9883 43.408C27.0899 43.3139 27.1954 43.2238 27.3009 43.1336C25.5265 43.1337 23.8005 42.5524 22.3855 41.4781C20.9705 40.4039 19.9439 38.8954 19.4616 37.1821C18.9793 35.4688 19.0678 33.6444 19.7137 31.9861C20.3595 30.3279 21.5273 28.9267 23.0396 27.9954C24.5519 27.0641 26.326 26.6537 28.092 26.8267C29.858 26.9996 31.5195 27.7464 32.8237 28.9536C34.128 30.1607 35.0037 31.7621 35.3178 33.5143C35.6318 35.2665 35.367 37.0737 34.5637 38.6611V38.6846C34.3417 39.1245 34.0802 39.543 33.7823 39.9351C32.1453 42.3418 30.2662 43.9568 28.7347 45.3483C27.9138 46.0599 27.1314 46.8149 26.3906 47.6101C23.3589 51.0046 24.4372 54.2463 24.8982 55.63C25.2889 56.8059 26.4609 58.2484 27.297 59.0637C32.0741 56.8225 36.244 53.4615 39.455 49.2642C41.5217 46.4655 43.9088 41.1384 43.9088 35C43.9111 31.8821 43.0418 28.826 41.3995 26.1791C39.7572 23.5322 37.4078 21.4005 34.6184 20.0263ZM27.3165 10.9245C26.2208 10.9245 25.1497 11.2505 24.2387 11.8613C23.3277 12.472 22.6176 13.3401 22.1983 14.3558C21.779 15.3714 21.6693 16.489 21.8831 17.5672C22.0968 18.6454 22.6245 19.6358 23.3992 20.4131C24.174 21.1905 25.1611 21.7198 26.2357 21.9343C27.3104 22.1488 28.4242 22.0387 29.4365 21.618C30.4488 21.1973 31.314 20.4849 31.9227 19.5708C32.5315 18.6568 32.8564 17.5821 32.8564 16.4828C32.8564 15.0087 32.2727 13.5949 31.2338 12.5525C30.1949 11.5101 28.7858 10.9245 27.3165 10.9245Z" fill="#978585"/>
</svg>
