<svg width="150" height="70" viewBox="0 0 150 70" fill="none" xmlns="http://www.w3.org/2000/svg">
<path d="M60.7167 20.0577V16.5102H57.0832V20.0577H56.1826V12.3043L57.0832 12.2494V15.7772H60.7167V12.3043H61.6133V20.0577H60.7167Z" fill="#EDF7EF"/>
<path d="M67.2275 12.3043L70.1993 19.9911L69.3105 20.14L68.4452 17.8587H65.1758L64.3692 20.0616H63.4922L66.3622 12.3082L67.2275 12.3043ZM66.785 13.4803L65.4303 17.1139H68.1711L66.785 13.4803Z" fill="#EDF7EF"/>
<path d="M72.1455 12.3043H74.252C74.9863 12.2669 75.7142 12.4586 76.335 12.853C76.5981 13.0494 76.8078 13.3088 76.9446 13.6074C77.0814 13.906 77.1411 14.2343 77.1181 14.5621C77.122 15.0121 76.985 15.4521 76.7265 15.8203C76.4778 16.1709 76.1341 16.4429 75.7359 16.6043L77.6936 20.0694H76.7422L74.9685 16.8434C74.6944 16.8708 74.4243 16.8865 74.158 16.8865H73.0656V20.0694H72.1651L72.1455 12.3043ZM74.2637 13.0882H73.0461V16.1535H74.1737C74.6821 16.1771 75.1865 16.0533 75.6263 15.7968C75.8123 15.6652 75.9615 15.4879 76.0595 15.282C76.1576 15.0761 76.2012 14.8485 76.1862 14.6209C76.2086 14.3988 76.1748 14.1747 76.0879 13.9692C76.001 13.7637 75.8638 13.5834 75.6889 13.4449C75.2609 13.1826 74.7654 13.0517 74.2637 13.0686V13.0882Z" fill="#EDF7EF"/>
<path d="M84.8973 13.0138H82.2231V20.0695H81.3108V13.0138H78.6992V12.3043H84.7798L84.8973 13.0138Z" fill="#EDF7EF"/>
<path d="M88.7705 12.3043L91.7422 19.9911L90.8534 20.14L89.9881 17.8587H86.7188L85.9122 20.0616H85.0352L87.9051 12.3082L88.7705 12.3043ZM88.3241 13.4803L86.9694 17.1139H89.7102L88.3241 13.4803Z" fill="#EDF7EF"/>
<path d="M55.5443 32.3619L56.3274 30.6137C56.6249 30.7849 56.9434 30.9167 57.2749 31.0057C57.6201 31.1128 57.9786 31.1708 58.3399 31.1781C58.6272 31.1913 58.9119 31.119 59.1582 30.9704C59.2437 30.924 59.3164 30.8571 59.3697 30.7757C59.423 30.6943 59.4553 30.6009 59.4636 30.5039C59.455 30.4358 59.4302 30.3708 59.3914 30.3142C59.3526 30.2576 59.3009 30.2111 59.2405 30.1786C59.0917 30.0727 58.8489 29.9199 58.52 29.7239L58.1285 29.4965C57.549 29.1555 57.0987 28.8733 56.7777 28.6459C56.4389 28.4079 56.1447 28.112 55.9085 27.7718C55.6516 27.4205 55.5144 26.9959 55.5169 26.5606C55.5091 26.1015 55.6461 25.6516 55.9085 25.2749C56.1971 24.8826 56.5869 24.5764 57.0361 24.389C57.5733 24.1673 58.1505 24.0592 58.7315 24.0715C59.191 24.0732 59.6481 24.1378 60.0901 24.2636C60.5133 24.3729 60.9164 24.5489 61.2843 24.7849L60.5952 26.3528C60.2545 26.2289 59.9067 26.1255 59.5537 26.0432C59.2959 25.9916 59.0335 25.9666 58.7706 25.9687C58.5507 25.9581 58.3334 26.0201 58.152 26.1451C58.0809 26.1935 58.0224 26.2582 57.9815 26.334C57.9406 26.4097 57.9185 26.4941 57.9171 26.5802C57.9197 26.6481 57.9389 26.7144 57.973 26.7732C58.0071 26.8319 58.0551 26.8814 58.1128 26.9173C58.3228 27.063 58.5426 27.194 58.7706 27.3093L59.2287 27.5641C59.6899 27.822 60.1369 28.1047 60.5678 28.4107C60.9154 28.6641 61.2207 28.9711 61.4722 29.3201C61.7237 29.6608 61.8608 30.0725 61.8638 30.4961C61.8703 30.9696 61.7218 31.4321 61.4409 31.8131C61.1293 32.2181 60.7139 32.531 60.2389 32.7186C59.6562 32.9504 59.0333 33.0636 58.4065 33.0518C57.8975 33.0432 57.3914 32.9735 56.8991 32.844C56.4262 32.7511 55.9697 32.5887 55.5443 32.3619Z" fill="#EDF7EF"/>
<path d="M63.5781 32.8989V24.2205H69.3259L69.5452 26.0471H65.896V27.615H68.5624L68.7778 29.4416H65.896V31.0645H69.694L69.9093 32.8872L63.5781 32.8989Z" fill="#EDF7EF"/>
<path d="M71.6523 24.2205H75.2976C76.21 24.1835 77.1098 24.4434 77.8622 24.9614C78.1995 25.2195 78.4679 25.5571 78.6435 25.9442C78.8191 26.3313 78.8963 26.7558 78.8684 27.18C78.8809 27.6489 78.773 28.1131 78.5552 28.5284C78.352 28.9117 78.0575 29.2388 77.6977 29.4809L79.6085 32.899H76.9186L75.5168 30.1551H74.0016V32.899H71.6523V24.2205ZM75.2232 26.0471H74.0016V28.3441H75.2741C75.599 28.3558 75.9155 28.2389 76.1551 28.0188C76.2687 27.9115 76.3582 27.7812 76.4176 27.6365C76.477 27.4919 76.505 27.3363 76.4996 27.18C76.5104 27.0236 76.4869 26.8669 76.4308 26.7206C76.3746 26.5743 76.2872 26.4421 76.1746 26.3333C75.9075 26.1219 75.5704 26.0197 75.231 26.0471H75.2232Z" fill="#EDF7EF"/>
<path d="M84.3844 30.1159L86.4478 24.2362H88.7579L85.5042 32.9146H83.1863L79.9482 24.3381L82.2309 24.1068L84.3844 30.1159Z" fill="#EDF7EF"/>
<path d="M90.4141 32.8989V24.2205H92.7359V32.8989H90.4141Z" fill="#EDF7EF"/>
<path d="M101.722 24.7693L101.037 26.3372C100.696 26.2138 100.349 26.1104 99.9957 26.0276C99.7378 25.9763 99.4755 25.9513 99.2126 25.9531C98.8518 25.9561 98.5012 26.0726 98.2102 26.2863C97.8744 26.524 97.6048 26.8438 97.4272 27.2153C97.2221 27.6416 97.1202 28.1102 97.1296 28.5833C97.1194 29.056 97.2242 29.5242 97.435 29.9474C97.6186 30.3158 97.8988 30.6274 98.2455 30.8489C98.5588 31.0499 98.9228 31.1573 99.2948 31.1586C99.8757 31.1559 100.445 30.9932 100.939 30.6882L101.801 32.4286C101.433 32.6392 101.038 32.7962 100.626 32.8951C100.174 33.0072 99.7098 33.0651 99.2439 33.0675C98.4098 33.0862 97.5848 32.8905 96.8477 32.4992C96.1839 32.1409 95.6394 31.5958 95.2815 30.9312C94.9058 30.2177 94.7147 29.4212 94.7255 28.6146C94.7093 27.7943 94.9063 26.9839 95.2972 26.2628C95.6669 25.5871 96.2174 25.0278 96.8868 24.6478C97.584 24.2544 98.3733 24.0542 99.1734 24.0677C99.6329 24.0693 100.09 24.1339 100.532 24.2597C100.954 24.3646 101.355 24.5367 101.722 24.7693Z" fill="#EDF7EF"/>
<path d="M103.496 32.8989V24.2205H105.818V32.8989H103.496Z" fill="#EDF7EF"/>
<path d="M108.315 32.8989V24.2205H110.633V32.8989H108.315Z" fill="#EDF7EF"/>
<path d="M119.357 32.8989H113.155V24.2205H115.473V31.0762H119.158L119.357 32.8989Z" fill="#EDF7EF"/>
<path d="M124.799 24.0402C125.635 24.0197 126.46 24.2227 127.191 24.6282C127.856 25.0037 128.399 25.5612 128.758 26.2353C129.123 26.9368 129.308 27.7179 129.298 28.5088C129.311 29.3283 129.115 30.1375 128.73 30.8607C128.367 31.5418 127.817 32.1048 127.144 32.4835C126.426 32.8803 125.616 33.0804 124.795 33.0636C123.973 33.0788 123.162 32.8731 122.446 32.4678C121.782 32.0885 121.239 31.5286 120.88 30.8529C120.509 30.1545 120.321 29.3739 120.332 28.5833C120.319 27.7629 120.517 26.9529 120.907 26.2314C121.274 25.5511 121.827 24.9895 122.501 24.6125C123.203 24.2228 123.996 24.0255 124.799 24.0402ZM122.708 28.5872C122.68 29.2454 122.876 29.8938 123.264 30.4256C123.442 30.6581 123.674 30.8443 123.939 30.9684C124.204 31.0926 124.495 31.1511 124.787 31.139C125.076 31.1466 125.363 31.0893 125.626 30.9712C125.89 30.8532 126.124 30.6775 126.31 30.457C126.741 29.8982 126.951 29.2008 126.902 28.4971C126.93 27.8431 126.729 27.1998 126.334 26.6783C126.156 26.4497 125.927 26.2663 125.665 26.143C125.403 26.0197 125.116 25.96 124.827 25.9688C124.447 25.9655 124.075 26.0791 123.762 26.2941C123.423 26.5256 123.153 26.8437 122.978 27.2153C122.784 27.6457 122.692 28.1152 122.708 28.5872Z" fill="#EDF7EF"/>
<path d="M131.166 24.2205H134.811C135.722 24.1829 136.621 24.4429 137.372 24.9613C137.71 25.2188 137.98 25.5562 138.156 25.9434C138.332 26.3305 138.41 26.7554 138.382 27.1799C138.392 27.6485 138.284 28.1121 138.069 28.5284C137.864 28.9118 137.568 29.2389 137.207 29.4809L139.118 32.8989H136.413L135.011 30.1551H133.468V32.8989H131.166V24.2205ZM134.733 26.0471H133.484V28.3441H134.76C135.084 28.356 135.4 28.239 135.637 28.0188C135.751 27.9115 135.841 27.7812 135.9 27.6365C135.959 27.4919 135.987 27.3362 135.982 27.1799C135.994 27.0235 135.97 26.8665 135.914 26.7201C135.858 26.5737 135.77 26.4416 135.657 26.3333C135.391 26.1229 135.055 26.0207 134.717 26.0471H134.733Z" fill="#EDF7EF"/>
<path d="M55.5443 45.2072L56.3274 43.459C56.6249 43.6302 56.9434 43.762 57.2749 43.851C57.6205 43.9562 57.9787 44.0142 58.3399 44.0234C58.6278 44.0373 58.9131 43.9635 59.1582 43.8118C59.2442 43.766 59.3172 43.6992 59.3706 43.6177C59.4239 43.5362 59.4559 43.4425 59.4636 43.3453C59.4636 43.2356 59.3892 43.1297 59.2404 43.02C59.0916 42.9102 58.8489 42.7652 58.52 42.5692L58.1285 42.3379C57.549 41.9956 57.0987 41.7134 56.7776 41.4912C56.44 41.2519 56.146 40.9562 55.9084 40.6171C55.652 40.2641 55.5149 39.8384 55.5169 39.402C55.5096 38.9441 55.6466 38.4957 55.9084 38.1202C56.1964 37.7283 56.5865 37.4232 57.0361 37.2382C57.5724 37.0133 58.15 36.9038 58.7314 36.9168C59.1908 36.9204 59.6477 36.985 60.0901 37.1089C60.5132 37.2183 60.9163 37.3942 61.2843 37.6302L60.5952 39.1981C60.2539 39.077 59.9062 38.9749 59.5537 38.8924C59.296 38.8394 59.0336 38.8131 58.7706 38.814C58.5502 38.8049 58.333 38.8682 58.1519 38.9943C58.0801 39.042 58.0211 39.1066 57.9801 39.1825C57.9392 39.2583 57.9175 39.3432 57.917 39.4294C57.9203 39.4972 57.9398 39.5632 57.9738 39.6219C58.0079 39.6805 58.0556 39.7302 58.1128 39.7665C58.3229 39.912 58.5427 40.0429 58.7706 40.1585L59.2287 40.4133C59.6892 40.6739 60.1361 40.9578 60.5677 41.2639C60.9198 41.5177 61.228 41.8276 61.48 42.1811C61.7303 42.5224 61.8672 42.9337 61.8716 43.3571C61.8787 43.8294 61.7301 44.2909 61.4487 44.6702C61.1394 45.0775 60.7233 45.3909 60.2467 45.5757C59.6646 45.8093 59.0413 45.9226 58.4143 45.9089C57.9054 45.9017 57.3993 45.8333 56.9068 45.705C56.4309 45.6061 55.972 45.4384 55.5443 45.2072Z" fill="#EDF7EF"/>
<path d="M67.4153 36.8854C68.2496 36.8644 69.0743 37.0675 69.8037 37.4734C70.4685 37.8481 71.0121 38.4059 71.3699 39.0805C71.735 39.7819 71.9207 40.5631 71.9102 41.354C71.9224 42.1733 71.727 42.9825 71.3425 43.7059C70.9789 44.3858 70.4287 44.9475 69.7567 45.3247C69.0388 45.7229 68.2281 45.9231 67.4075 45.9049C66.5856 45.9218 65.7742 45.7174 65.0583 45.313C64.3942 44.9337 63.8512 44.3737 63.4921 43.698C63.1227 42.9979 62.9342 42.2163 62.9439 41.4245C62.9313 40.6046 63.128 39.7951 63.5156 39.0726C63.8858 38.3926 64.4393 37.8303 65.1131 37.4498C65.8175 37.062 66.6117 36.8673 67.4153 36.8854ZM65.3245 41.4284C65.296 42.0861 65.4906 42.734 65.8766 43.2668C66.0553 43.4996 66.2873 43.686 66.5531 43.8101C66.8189 43.9343 67.1106 43.9926 67.4036 43.9802C67.6922 43.9878 67.9789 43.9305 68.2425 43.8125C68.5061 43.6944 68.7399 43.5187 68.9267 43.2982C69.3578 42.7399 69.5683 42.0421 69.5179 41.3383C69.5467 40.6842 69.3458 40.0408 68.9502 39.5195C68.7726 39.2896 68.5429 39.1054 68.2801 38.982C68.0173 38.8586 67.7289 38.7997 67.4388 38.81C67.0591 38.808 66.6877 38.9215 66.3738 39.1354C66.0353 39.3652 65.7648 39.682 65.5908 40.0526C65.3976 40.4846 65.3065 40.9554 65.3245 41.4284Z" fill="#EDF7EF"/>
<path d="M80.1756 37.6301L79.4826 39.1981C79.1412 39.0774 78.7935 38.9753 78.4411 38.8923C78.1834 38.8397 77.921 38.8134 77.658 38.8139C77.2976 38.8187 76.9474 38.9351 76.6557 39.1471C76.3206 39.3873 76.0512 39.7082 75.8726 40.08C75.668 40.5051 75.5661 40.9724 75.575 41.4441C75.5644 41.9182 75.6692 42.3877 75.8804 42.8121C76.063 43.1803 76.3434 43.4909 76.6909 43.7098C77.0038 43.9121 77.3678 44.0209 77.7402 44.0234C78.3211 44.0207 78.8901 43.8579 79.3847 43.553L80.2657 45.2855C79.889 45.4999 79.4826 45.6571 79.0597 45.752C78.6078 45.866 78.1436 45.9239 77.6776 45.9245C76.8433 45.9449 76.0179 45.7491 75.2814 45.3561C74.6164 44.9993 74.0716 44.4538 73.7152 43.7882C73.3438 43.0708 73.1581 42.2716 73.1749 41.4637C73.1592 40.6435 73.3562 39.8332 73.7465 39.1118C74.1174 38.437 74.6676 37.8781 75.3362 37.4969C76.034 37.1053 76.8228 36.9051 77.6228 36.9167C78.0821 36.9203 78.539 36.9849 78.9814 37.1088C79.4049 37.217 79.8082 37.3931 80.1756 37.6301Z" fill="#EDF7EF"/>
<path d="M81.9492 45.7441V37.0657H84.2711V45.7441H81.9492Z" fill="#EDF7EF"/>
<path d="M91.4993 37.0657L94.753 45.6422L92.4703 45.8696L91.8439 44.0351H88.8486L88.2495 45.7441H85.9434L89.1931 37.0657H91.4993ZM90.3012 39.8448L89.4711 42.1967H91.1665L90.3012 39.8448Z" fill="#EDF7EF"/>
<path d="M102.642 45.7441H96.4209V37.0657H98.7388V43.9018H102.423L102.642 45.7441Z" fill="#EDF7EF"/>
<path d="M104.35 45.7441V37.0657H110.101L110.317 38.8884H106.671V40.4563H109.334L109.553 42.2829H106.671V43.9018H110.481L110.7 45.7285L104.35 45.7441Z" fill="#EDF7EF"/>
<path d="M58.8255 57.5937H56.1826V49.8403H58.8921C60.0315 49.8403 60.8811 50.197 61.4449 50.9026C62.0355 51.7005 62.3328 52.678 62.2867 53.67C62.3012 54.3619 62.1677 55.0488 61.8952 55.6848C61.6467 56.2539 61.2387 56.7386 60.7206 57.0802C60.154 57.4363 59.4942 57.615 58.8255 57.5937ZM58.9391 50.6047H57.0832V56.8372H58.8373C59.313 56.8453 59.7799 56.7086 60.1763 56.4452C60.5719 56.1733 60.8817 55.7939 61.069 55.3516C61.2917 54.8196 61.3998 54.2466 61.3862 53.67C61.4238 52.8782 61.207 52.0951 60.7676 51.4357C60.5541 51.1579 60.2757 50.9368 59.9568 50.7919C59.638 50.647 59.2885 50.5827 58.9391 50.6047Z" fill="#EDF7EF"/>
<path d="M64.5059 57.5937V49.8403H65.4064V57.5937H64.5059Z" fill="#EDF7EF"/>
<path d="M67.8301 57.5937V49.8403H68.5466L72.3171 55.085L72.7831 55.8494V49.8403H73.6954V57.5937H72.9632L69.0243 52.0197L68.7306 51.5062V57.5937H67.8301Z" fill="#EDF7EF"/>
<path d="M79.8193 49.8404H81.9258C82.6602 49.803 83.388 49.9948 84.0088 50.3892C84.272 50.5855 84.4816 50.8449 84.6184 51.1435C84.7553 51.4422 84.8149 51.7705 84.7919 52.0982C84.7953 52.5494 84.6585 52.9905 84.4004 53.3604C84.1499 53.7093 83.8067 53.9809 83.4098 54.1444L85.3675 57.6095H84.3769L82.6149 54.3678C82.3472 54.399 82.0779 54.4147 81.8084 54.4148H80.716V57.5938H79.8154L79.8193 49.8404ZM81.9376 50.6048H80.7199V53.6701H81.8319C82.3391 53.6943 82.8424 53.5703 83.2806 53.3134C83.4512 53.1707 83.5896 52.9933 83.6864 52.793C83.7833 52.5927 83.8365 52.374 83.8424 52.1516C83.8483 51.9291 83.8069 51.7079 83.7208 51.5027C83.6347 51.2975 83.506 51.113 83.3432 50.9615C82.9192 50.7084 82.4308 50.5845 81.9376 50.6048Z" fill="#EDF7EF"/>
<path d="M90.3285 49.6602C90.9847 49.6507 91.6302 49.8276 92.1901 50.1703C92.75 50.513 93.2015 51.0075 93.4922 51.5965C93.813 52.2371 93.9742 52.9458 93.962 53.6623C93.971 54.3826 93.8086 55.0947 93.4883 55.7398C93.1902 56.3385 92.7355 56.8452 92.1727 57.2058C91.6072 57.5649 90.9512 57.7552 90.2815 57.7546C89.6267 57.7634 88.983 57.5853 88.4256 57.2411C87.8754 56.8918 87.4313 56.3983 87.1414 55.8143C86.8206 55.1751 86.6594 54.4676 86.6715 53.7524C86.6617 53.0333 86.8241 52.3222 87.1453 51.6788C87.4427 51.0843 87.8926 50.5797 88.4491 50.2168C89.0112 49.8588 89.6624 49.6659 90.3285 49.6602ZM87.6191 53.7407C87.6097 54.3117 87.726 54.8778 87.9597 55.3988C88.1637 55.8605 88.4883 56.2587 88.8994 56.5512C89.2978 56.8284 89.7729 56.9737 90.258 56.9667C90.7601 56.9734 91.2521 56.8257 91.6676 56.5433C92.0928 56.2479 92.4287 55.8411 92.6386 55.3674C92.8802 54.8334 93.0005 54.2524 92.991 53.6662C93.0003 53.0952 92.884 52.5291 92.6504 52.0081C92.4475 51.5467 92.1225 51.1496 91.7107 50.8596C91.3125 50.5819 90.8372 50.4366 90.352 50.4441C89.8504 50.4362 89.3589 50.5856 88.9464 50.8714C88.5207 51.1673 88.1836 51.5739 87.9714 52.0473C87.7295 52.5785 87.6091 53.157 87.6191 53.7407Z" fill="#EDF7EF"/>
<path d="M99.2789 55.038L96.9884 51.7414V57.6212H96.0879V49.8403H96.6243L99.4003 53.7954L102.09 49.8403H102.658V57.5937H101.746V51.7414L99.5843 54.9674L99.2789 55.038Z" fill="#EDF7EF"/>
<path d="M108.159 49.8404L111.131 57.5232L110.242 57.6722L109.377 55.3948H106.107L105.301 57.5938H104.424L107.282 49.8404H108.159ZM106.804 49.1701L105.994 49.0564L107.282 47.3905H107.999L109.318 49.0564L108.5 49.1701L107.674 48.0529L106.804 49.1701ZM107.713 51.0281L106.358 54.6617H109.099L107.713 51.0281Z" fill="#EDF7EF"/>
<path d="M112.987 57.5937V49.8403H113.704L117.463 55.085L117.932 55.8494V49.8403H118.841V57.5937H118.113L114.174 52.0197L113.876 51.5062V57.5937H112.987Z" fill="#EDF7EF"/>
<path d="M121.546 57.5937V49.8403H122.446V57.5937H121.546Z" fill="#EDF7EF"/>
<path d="M127.936 49.8403L130.907 57.5232L130.019 57.6721L129.153 55.3947H125.884L125.077 57.5937H124.2L127.07 49.8403H127.936ZM127.489 51.0163L126.134 54.6499H128.875L127.489 51.0163Z" fill="#EDF7EF"/>
<path d="M32.9289 34.9999C32.9296 36.0994 32.6047 37.1744 31.9951 38.089C31.3855 39.0036 30.5186 39.7166 29.5042 40.1379C28.4898 40.5592 27.3733 40.6698 26.2961 40.4558C25.2188 40.2418 24.2292 39.7127 23.4523 38.9355C22.6755 38.1583 22.1463 37.168 21.9317 36.0897C21.7172 35.0113 21.8269 33.8936 22.247 32.8777C22.6671 31.8618 23.3787 30.9935 24.2919 30.3826C25.205 29.7716 26.2786 29.4455 27.3768 29.4455C28.1057 29.445 28.8276 29.5883 29.5012 29.8672C30.1748 30.1461 30.7869 30.5552 31.3025 31.071C31.8181 31.5868 32.2271 32.1993 32.5062 32.8734C32.7852 33.5476 32.9289 34.2702 32.9289 34.9999ZM34.6947 20.0262C34.0314 21.4048 32.9929 22.5679 31.6987 23.3819C30.4046 24.1959 28.9072 24.6277 27.3788 24.6277C25.8504 24.6277 24.353 24.1959 23.0588 23.3819C21.7646 22.5679 20.7262 21.4048 20.0628 20.0262C17.2626 21.3967 14.9029 23.5269 13.2527 26.1742C11.6024 28.8214 10.7278 31.8794 10.7285 34.9999C10.7285 41.1383 13.1247 46.4654 15.1921 49.2641C17.228 51.9351 19.6648 54.2742 22.416 56.1983C21.8561 54.4853 20.6776 50.1735 24.5186 45.8617C25.3178 44.9997 26.1621 44.1806 27.0479 43.4079C27.1497 43.3138 27.2554 43.2237 27.3612 43.1335C25.5828 43.1336 23.8531 42.5523 22.435 41.478C21.0169 40.4038 19.988 38.8953 19.5046 37.182C19.0213 35.4687 19.11 33.6443 19.7573 31.9861C20.4045 30.3278 21.5749 28.9266 23.0906 27.9953C24.6062 27.064 26.3841 26.6536 28.154 26.8266C29.9239 26.9995 31.589 27.7463 32.8961 28.9535C34.2033 30.1606 35.0809 31.762 35.3957 33.5142C35.7104 35.2664 35.445 37.0736 34.6399 38.661V38.6845C34.4175 39.1244 34.1553 39.5429 33.8568 39.935C32.2163 42.3417 30.333 43.9567 28.7981 45.3482C27.9755 46.0598 27.1913 46.8148 26.4489 47.61C23.4105 51.0045 24.4912 54.2462 24.9532 55.6299C25.3447 56.8058 26.5193 58.2483 27.3572 59.0636C32.1449 56.8224 36.324 53.4614 39.542 49.2641C41.6132 46.4654 44.0055 41.1383 44.0055 34.9999C44.0079 31.882 43.1367 28.826 41.4907 26.179C39.8449 23.5321 37.4903 21.4004 34.6947 20.0262ZM27.3768 10.9244C26.2787 10.9244 25.2053 11.2504 24.2923 11.8612C23.3792 12.4719 22.6676 13.34 22.2474 14.3557C21.8272 15.3713 21.7172 16.4889 21.9315 17.5671C22.1457 18.6453 22.6745 19.6357 23.4509 20.413C24.2274 21.1904 25.2167 21.7198 26.2937 21.9342C27.3707 22.1487 28.487 22.0386 29.5015 21.6179C30.516 21.1972 31.3831 20.4848 31.9932 19.5708C32.6032 18.6567 32.9289 17.5821 32.9289 16.4827C32.9289 15.0086 32.3439 13.5948 31.3027 12.5524C30.2615 11.51 28.8493 10.9244 27.3768 10.9244Z" fill="#EDF7EF"/>
</svg>
