<svg width="160" height="232" viewBox="0 0 160 232" fill="none" xmlns="http://www.w3.org/2000/svg">
<path d="M106.667 116C106.667 121.296 105.103 126.473 102.173 130.876C99.2423 135.28 95.0776 138.712 90.2049 140.738C85.3322 142.765 79.9704 143.295 74.7976 142.262C69.6248 141.229 64.8732 138.679 61.1438 134.934C57.4144 131.189 54.8747 126.418 53.8457 121.224C52.8168 116.03 53.3449 110.646 55.3632 105.753C57.3815 100.86 60.7995 96.6783 65.1848 93.736C69.5701 90.7938 74.7258 89.2233 80 89.2233C87.0724 89.2233 93.8552 92.0444 98.8562 97.066C103.857 102.088 106.667 108.898 106.667 116ZM115.523 43.8867C112.341 50.5319 107.355 56.1398 101.139 60.0646C94.9222 63.9895 87.7283 66.0717 80.3851 66.0717C73.0419 66.0717 65.8479 63.9895 59.6315 60.0646C53.415 56.1398 48.4287 50.5319 45.2467 43.8867C31.7198 50.4249 20.3009 60.6574 12.2985 73.4116C4.29602 86.1657 0.0337262 100.926 0 116C0.0370714 140.568 7.52538 164.542 21.4681 184.73C31.2343 197.606 42.9248 208.888 56.1251 218.177C52.9796 209.798 52.2141 200.706 53.914 191.915C55.6138 183.125 59.7123 174.981 65.7521 168.393C69.6029 164.14 73.6462 160.467 77.8821 156.6L79.4224 155.247C71.7176 155.132 64.2184 152.734 57.8673 148.352C51.5162 143.971 46.5965 137.802 43.7266 130.622C40.8567 123.441 40.1646 115.569 41.7373 107.994C43.31 100.419 47.0774 93.4808 52.5659 88.0499C58.0544 82.619 65.0191 78.9383 72.5848 77.4704C80.1504 76.0025 87.9794 76.8128 95.0877 79.7996C102.196 82.7864 108.267 87.8163 112.536 94.2572C116.806 100.698 119.085 108.263 119.085 116C119.08 122.118 117.628 128.148 114.85 133.593C113.715 135.684 112.428 137.687 110.999 139.587C104.005 149.338 95.8225 158.171 86.6426 165.88C82.7053 169.292 78.9458 172.906 75.3791 176.707C70.581 181.761 67.3524 188.109 66.0873 194.976C64.8223 201.842 65.5755 208.93 68.2551 215.373C70.9768 221.65 74.9398 227.307 79.9037 232C102.911 221.191 122.988 204.977 138.436 184.73C152.368 164.531 159.886 140.571 160 116C160.037 101.008 155.889 86.3051 148.028 73.5591C140.167 60.8131 128.906 50.5338 115.523 43.8867ZM80 0C74.7258 0 69.5701 1.57042 65.1848 4.51268C60.7995 7.45494 57.3815 11.6369 55.3632 16.5297C53.3449 21.4225 52.8168 26.8064 53.8457 32.0005C54.8747 37.1947 57.4144 41.9658 61.1438 45.7106C64.8732 49.4554 69.6248 52.0056 74.7976 53.0388C79.9704 54.072 85.3322 53.5417 90.2049 51.5151C95.0776 49.4884 99.2423 46.0564 102.173 41.653C105.103 37.2496 106.667 32.0726 106.667 26.7767C106.667 19.6751 103.857 12.8643 98.8562 7.8427C93.8552 2.82111 87.0724 0 80 0V0Z" fill="#EDF7EF"/>
</svg>
