<svg width="25" height="30" viewBox="0 0 25 30" fill="none" xmlns="http://www.w3.org/2000/svg">
    <path d="M12.275 0C9.01947 0 5.89727 1.29326 3.59526 3.59526C1.29326 5.89727 0 9.01947 0 12.275C0.00953215 16.0268 1.15573 19.6877 3.2875 22.775C5.65916 25.8706 8.74207 28.3489 12.275 30C15.8024 28.3456 18.8804 25.8677 21.25 22.775C23.3862 19.6891 24.5368 16.0281 24.55 12.275C24.55 9.01947 23.2567 5.89727 20.9547 3.59526C18.6527 1.29326 15.5305 0 12.275 0V0ZM12.275 17.825C11.1773 17.825 10.1043 17.4995 9.19159 16.8897C8.27889 16.2798 7.56753 15.413 7.14747 14.3989C6.7274 13.3848 6.61749 12.2688 6.83164 11.1922C7.04579 10.1157 7.57438 9.12674 8.35056 8.35056C9.12674 7.57438 10.1157 7.04579 11.1922 6.83164C12.2688 6.61749 13.3848 6.7274 14.3989 7.14747C15.413 7.56753 16.2798 8.27889 16.8897 9.19159C17.4995 10.1043 17.825 11.1773 17.825 12.275C17.8217 13.7459 17.2359 15.1557 16.1958 16.1958C15.1557 17.2359 13.7459 17.8217 12.275 17.825Z" fill="#978585"/>
</svg>
