<?xml version="1.0" encoding="UTF-8"?>
<svg width="92px" height="270px" viewBox="0 0 92 270" version="1.1" xmlns="http://www.w3.org/2000/svg" xmlns:xlink="http://www.w3.org/1999/xlink">
    <!-- Generator: Sketch 57.1 (83088) - https://sketch.com -->
    <title>Slice 1</title>
    <desc>Created with Sketch.</desc>
    <g id="Page-1" stroke="none" stroke-width="1" fill="none" fill-rule="evenodd">
        <g id="infografic_centre_servicii_sociale_04" fill-rule="nonzero">
            <path d="M26.35,264.52 C27.12,262.95 31.18,261.52 34.4,260.52 C33.4,261.13 32.49,261.99 34,262.43 C36.22,263.06 41.08,262.35 42.52,260.75 C43.0078171,262.025095 43.2323303,263.385781 43.18,264.75 C43.17,266.2 25.09,267.06 26.35,264.52 Z" id="Path" fill="#968584"></path>
            <path d="M34,262.42 C32.49,261.98 33.44,261.12 34.4,260.51 C36.4,259.9 38.08,259.46 38.4,259.3 C38.9918914,259.061185 39.4611852,258.591891 39.7,258 L40.7,257.79 C40.7,257.79 40.05,259.19 41.93,259.88 C42.25,259.99 42.35,260.43 42.51,260.78 C41.08,262.34 36.22,263.05 34,262.42 Z" id="Path" fill="#FFFFFF"></path>
            <path d="M91.89,268.36 C92.45,266.73 86.4,261.59 84.1,260.64 C84.79,261.25 85.79,262.52 84.72,263.01 C83.16,263.73 80.06,262.61 79.01,260.96 C78.687721,262.342314 78.5531772,263.761752 78.61,265.18 C78.65,266.72 90.56,272.18 91.89,268.36 Z" id="Path" fill="#968584"></path>
            <path d="M86.52,264.41 C87.58,263.92 85.13,261.49 84.44,260.87 C83.6325366,260.281552 82.7721768,259.769354 81.87,259.34 C81.4348732,259.006356 81.1277012,258.533241 81,258 L79.82,257.84 C80.0050694,258.589747 79.8711059,259.382666 79.45,260.03 C79.2748965,260.345068 79.1404892,260.681086 79.05,261.03 C80.06,262.61 85,265.13 86.52,264.41 Z" id="Path" fill="#FFFFFF"></path>
            <path d="M57.24,74.27 C53.83,75.2 78.07,74.07 84.76,156.03 C86.63,178.93 84.14,236.59 81.42,256.95 C81.05,259.77 80.42,261.26 79.78,257.81 C78,248.22 62.48,187.09 59.29,171 C58.7566667,168.333333 58.1466667,165.666667 57.46,163 L43.93,111 L47.93,173.69 L40.73,258.76 C40.73,258.76 39.97,260.97 39.21,257.46 C33.96,233.25 13.57,140.6 12.48,119.31 C10.76,85.61 18.73,85.17 21.56,78.88 C26,80.31 49.6,79.05 57.24,74.27 Z" id="Path" fill="#FFFFFF"></path>
            <path d="M22.49,78.39 C22.49,78.39 43.41,80.39 60.42,77.16 C60.42,77.16 78.42,82.69 84.93,157.92 C84.93,157.92 63.71,182.48 23.57,184 C23.57,184 -4.29,93.78 22.49,78.39 Z" id="Path" fill="#6FBAB6"></path>
            <path d="M57,31.72 C57,31.72 63,32.52 71,45.14 C76.6934945,54.1129698 79.5896059,64.5765647 79.32,75.2 L68.62,72.27 C68.62,72.27 64,47.91 55.41,40.27 C51.05,36.37 57,31.72 57,31.72 Z" id="Path" fill="#ABCE97"></path>
            <path d="M20.43,19.56 C20.86,23.07 23.86,35.09 45.18,34.48 C45.18,34.48 61.92,32.68 65.5,23.23 C65.5929171,22.9366996 65.5456498,22.6169542 65.3718455,22.3630827 C65.1980411,22.1092112 64.9170494,21.9494772 64.61,21.93 C62.31,21.93 57.5,20.93 54.28,13.75 C49.92,4 46.81,-5.14 37.83,4.19 C37.83,4.19 31.92,0.91 28.97,9.48 C26.21,17.48 25.44,19.39 21.24,18.77 C21.0211889,18.7411739 20.8012442,18.8142948 20.6432462,18.9683916 C20.4852481,19.1224885 20.4066523,19.3405368 20.43,19.56 Z" id="Path" fill="#968584"></path>
            <path d="M20.66,60.14 C21.42,66.45 21.8,76.53 22.15,78.62 C26.43,79.45 54.32,80.47 61.85,76.56 C62.92,69.43 64.09,48.48 61.23,41.11 C59.07,35.52 59.87,33.48 57.37,31.79 C54.64,29.94 52.62,30.08 45.03,29.86 C19.71,29.12 16.67,38.24 16.67,38.24 C16.67,38.24 19.52,50.69 20.66,60.14 Z" id="Path" fill="#CDE5C0"></path>
            <path d="M22.49,41.33 L13.8,66.33 C13.8,66.33 4.15,81.91 0.69,72.49 C-2.77,63.07 8.93,40.87 21.19,33.87 L22.49,41.33 Z" id="Path" fill="#CDE5C0"></path>
            <path d="M8.19,62.08 L30.1,49.46 C31.0953355,48.876614 32.3427651,48.9435109 33.27,49.63 C35.5,51.29 39.27,54.5 38.99,56.99 C37.84,66.99 15.51,78.88 5.8,76.37 C-4.07,73.82 8.19,62.08 8.19,62.08 Z" id="Path" fill="#CDE5C0"></path>
            <path d="M40.75,21.31 C40.75,21.31 42.08,30.53 41.63,31.58 C41.18,32.63 39.46,34.06 38.35,31.78 C37.24,29.5 37.99,21.38 37.99,21.38 L40.75,21.31 Z" id="Path" fill="#FFFFFF"></path>
            <path d="M41.72,13.54 C41.72,13.54 41.72,25.85 41.51,27.54 C41.35,29.04 39.37,30.22 38.33,27.13 C37.29,24.04 38.7,13.41 38.7,13.41 L41.72,13.54 Z" id="Path" fill="#EDF6EF"></path>
            <path d="M34,19.44 C33.52,17.94 34.91,12.32 34.91,12.32 C35.91,8.97 41.32,10.17 42.61,10.55 C44.0673459,10.9202519 45.4105365,11.6450939 46.52,12.66 C47.85,13.88 47.52,16.02 47.35,17.66 C47.18,19.3 46.25,22.05 45.08,23.23 C43.5911561,24.3865009 41.7166075,24.9302631 39.84,24.75 C35.49,24 34.43,22.64 34,19.44 Z" id="Path" fill="#FFFFFF"></path>
            <path d="M46.69,1 C45.9453682,0.601309304 45.1020912,0.424325232 44.26,0.49 C43.4396956,0.587162441 42.6491339,0.856362326 41.94,1.28 C40.514433,2.15840582 39.2327283,3.25122776 38.14,4.52 L37.93,4.74 L37.62,4.6 C36.6817732,4.17201554 35.6441628,4.00945659 34.62,4.13 C33.6383502,4.27870223 32.7248437,4.7215088 32,5.4 C31.248847,6.16041147 30.6272889,7.03870008 30.16,8 C29.7,9 29.35,10 28.96,11.05 C28.267613,13.1980425 27.3350464,15.2610946 26.18,17.2 C25.8567302,17.6747638 25.4581604,18.0935998 25,18.44 C24.499453,18.7676289 23.9258705,18.9668372 23.33,19.02 C22.7613794,19.0574042 22.1903138,19.0238121 21.63,18.92 C21.34,18.92 21.09,18.78 20.85,18.92 C20.6076724,19.0442959 20.4594353,19.2978594 20.47,19.57 C20.4216468,19.2766933 20.5510875,18.9825098 20.8,18.82 C21.0632292,18.6893249 21.3636306,18.6539836 21.65,18.72 C22.1941753,18.7620705 22.741435,18.7385686 23.28,18.65 C23.7861485,18.5419188 24.2634291,18.3271425 24.68,18.02 C25.0761079,17.6767829 25.4138387,17.2715059 25.68,16.82 C26.2116329,15.8628758 26.6535183,14.8585907 27,13.82 C27.37,12.82 27.73,11.73 28.08,10.68 C28.75,8.6 29.55,6.29 31.31,4.68 C32.2070915,3.84079436 33.3497502,3.3115261 34.57,3.17 C35.7811172,3.05295621 37.0002156,3.28913481 38.08,3.85 L37.56,3.93 C38.7751678,2.67478262 40.1828703,1.62153759 41.73,0.81 C42.5262871,0.415865215 43.4015395,0.207308977 44.29,0.2 C45.1539879,0.209049947 45.9933797,0.488847201 46.69,1 Z" id="Path" fill="#CDE5C0"></path>
            <path d="M36.35,50.16 C36.35,50.16 38.59,47.83 39.53,47.66 C40.47,47.49 41.05,49.43 41.05,49.43 L36.35,50.16 Z" id="Path" fill="#FFFFFF"></path>
            <path d="M42.8,48.32 L41.15,49.5 L34.33,40 C34.1675576,39.7827991 34.1003093,39.508931 34.1436752,39.2411939 C34.187041,38.9734568 34.3373009,38.7348188 34.56,38.58 L34.56,38.58 C34.7772009,38.4175576 35.051069,38.3503093 35.3188061,38.3936752 C35.5865432,38.437041 35.8251812,38.5873009 35.98,38.81 L42.8,48.32 Z" id="Path" fill="#0A345E"></path>
            <path d="M34.93,38.34 L34.1,38.93 C34.1,38.93 32.82,37.78 32.91,37.27 C33.055485,36.9327506 33.3741402,36.7023975 33.74,36.67 C34.24,36.76 34.93,38.34 34.93,38.34 Z" id="Path" fill="#3889FA"></path>
            <path d="M37.33,44.2 L36.82,44.57 C36.82,44.57 33.67,41.27 33.48,39.93 C33.48,39.77 33.99,39.56 33.99,39.56 L37.33,44.2 Z" id="Path" fill="#3889FA"></path>
            <path d="M36.35,50.16 C38.6313536,49.1793086 41.0433033,48.5358974 43.51,48.25 C46.57,48.11 46.83,49.66 46,50.71 C46.2487836,52.0722281 45.857976,53.4732364 44.94,54.51 C43.55,55.9 38.39,54.78 37.17,54.33 C36.41,54.05 34.84,52.97 34.8499525,51.83 C34.8499525,51.17 36.35,50.16 36.35,50.16 Z" id="Path" fill="#FFFFFF"></path>
            <path d="M39,57 C38.8182,58.7299203 38.228738,60.3920659 37.28,61.85 C36.321396,63.2967614 35.2118391,64.6376156 33.97,65.85 C31.4591425,68.2550563 28.6454279,70.322481 25.6,72 C22.5681895,73.6807205 19.3449769,74.9901506 16,75.9 C12.69,76.77 9.11,77.35 5.77,76.37 C7.45115525,76.6335637 9.16436972,76.616668 10.84,76.32 C12.5153607,76.0702637 14.1651926,75.6720285 15.77,75.13 C19.0036956,74.0599899 22.125175,72.6767592 25.09,71 C28.061933,69.3762163 30.8512065,67.4384758 33.41,65.22 C34.6849894,64.1118932 35.8351418,62.8678508 36.84,61.51 C37.8804233,60.1822642 38.6176701,58.6429203 39,57 L39,57 Z" id="Path" fill="#ABCE97"></path>
            <path d="M8.19,62.08 C10.19,60.7 12.19,59.42 14.19,58.16 C16.19,56.9 18.27,55.68 20.33,54.47 C22.39,53.26 24.48,52.11 26.6,51 L29.78,49.34 C30.884903,48.6771796 32.2896486,48.7939063 33.27,49.63 C32.2612773,49.006446 30.972379,49.0700953 30.03,49.79 L27.03,51.7 C25.03,52.98 22.95,54.18 20.89,55.38 C18.83,56.58 16.74,57.74 14.62,58.85 C12.5,59.96 10.37,61.07 8.19,62.08 Z" id="Path" fill="#ABCE97"></path>
            <path d="M42.93,79.32 C42.93,79.32 54.52,78.32 60.42,77.16 C60.42,77.16 78.42,82.69 84.93,157.92 C80.989266,162.011292 76.6018061,165.647382 71.85,168.76 C66.9200976,171.805736 61.7957696,174.524903 56.51,176.9 C56.51,176.9 64.03,144.39 60.41,117.46 C57.36,94.77 42.93,79.32 42.93,79.32 Z" id="Path" fill="#509B96"></path>
            <path d="M42.93,79.32 C42.93,79.32 58.51,79.32 61.85,76.56 C62.92,69.43 64.09,48.48 61.23,41.11 C59.07,35.52 59.87,33.48 57.37,31.79 C54.64,29.94 45,29.86 45,29.86 C45,29.86 52.15,38.63 51.82,47.65 C51.3,62.29 42.93,79.32 42.93,79.32 Z" id="Path" fill="#ABCE97"></path>
            <polygon id="Path" fill="#EDF6EF" points="48.94 38.15 42.93 69.87 62.72 71 69.44 39.83"></polygon>
            <path d="M51.68,72.67 C53.35,80.23 67.9,82 71.38,82.36 C78.03,83.06 79.98,77.55 80.02,73.44 C80.02,72.19 78.7,64.22 77.94,63.53 C75.47,61.26 71.69,66.53 68.46,65.38 C58.42,61.74 48.61,58.73 51.68,72.67 Z" id="Path" fill="#ABCE97"></path>
            <path d="M55.07,66.33 C55.2395142,66.0848542 55.2908446,65.7768723 55.21,65.49 C54.8362177,64.0330359 54.3204145,62.6162517 53.67,61.26 C52.95,60.11 49.67,57.83 48.92,58.03 C48.17,58.23 49.52,59.63 49.52,59.63 C49.52,59.63 48.15,58.04 47.35,58.54 C46.8952974,58.8777803 46.7478676,59.4927729 47,60 C47.1802158,60.8472156 47.4242449,61.6795891 47.73,62.49 C48.1567302,63.3833463 48.6834314,64.2253972 49.3,65 C49.8308503,65.4106324 50.4001667,65.7689668 51,66.07 C51.9902481,66.6875776 53.0385819,67.2067205 54.13,67.62 C54.4925321,67.2280996 54.8080066,66.7951612 55.07,66.33 L55.07,66.33 Z" id="Path" fill="#FFFFFF"></path>
        </g>
    </g>
</svg>