<svg xmlns="http://www.w3.org/2000/svg" width="20.39" height="23.54" viewBox="0 0 20.39 23.54"><defs><style>.cls-1{fill:none;stroke:#6fbab6;stroke-linecap:round;stroke-linejoin:round;stroke-width:2px;}</style></defs><title>icon_servicii</title><g id="Layer_2" data-name="Layer 2"><g id="Layer_1-2" data-name="Layer 1"><path class="cls-1" d="M2.8,3.79A9.17,9.17,0,0,0,1,9.26a13.88,13.88,0,0,0,2.47,7.87,14.89,14.89,0,0,0,1.4,1.63"/><path class="cls-1" d="M8.13,13.25a4.5,4.5,0,1,1,6.56-4A4.35,4.35,0,0,1,13.76,12,16.09,16.09,0,0,1,11,15c-.46.42-.9.81-1.29,1.24a4.09,4.09,0,0,0-.82,4.43,5.75,5.75,0,0,0,1.32,1.89h0a18.2,18.2,0,0,0,6.73-5.41,13.88,13.88,0,0,0,2.47-7.87A9.2,9.2,0,0,0,14.24,1"/></g></g></svg>