<svg xmlns="http://www.w3.org/2000/svg" width="20" height="24.1" viewBox="0 0 20 24.1"><defs><style>.cls-1{fill:none;stroke:#6fbab6;stroke-linecap:round;stroke-miterlimit:10;stroke-width:2px;}</style></defs><title>icon_location</title><g id="Layer_2" data-name="Layer 2"><g id="Layer_1-2" data-name="Layer 1"><path class="cls-1" d="M10,1a9,9,0,0,0-9,9,13.59,13.59,0,0,0,2.41,7.7A17.76,17.76,0,0,0,10,23a17.76,17.76,0,0,0,6.59-5.3A13.59,13.59,0,0,0,19,10,9,9,0,0,0,10,1Zm0,13.07A4.07,4.07,0,1,1,14.07,10,4.08,4.08,0,0,1,10,14.07Z"/></g></g></svg>