<svg xmlns="http://www.w3.org/2000/svg" width="70.94" height="93.59" viewBox="0 0 70.94 93.59"><defs><style>.cls-1{fill:#968584;}.cls-2{fill:#509b96;}.cls-3{fill:#edf6ef;}.cls-4{fill:#abce97;}.cls-5{fill:#cde5c0;}.cls-6{fill:#6fbab6;}.cls-7{fill:#ff97a6;}.cls-8{fill:#abc6b0;}.cls-9{fill:#e6e6e6;}.cls-10{fill:#e5b0ac;}.cls-11{fill:#c95d77;}.cls-12{fill:#d5eaf5;}</style></defs><title>illu_partner</title><g id="Layer_2" data-name="Layer 2"><g id="Layer_1-2" data-name="Layer 1"><path class="cls-1" d="M26,85.11c.06-.06-17.33-4.76-19.93-4.59S.51,82.28,0,84.13s17.64,8,20.2,6.88S26,85.11,26,85.11Z"/><path class="cls-1" d="M22,47.24c-4.22-.62-8.6,5.33-9.78,13.31s1.28,15,5.5,15.58,8.6-5.34,9.79-13.31S26.27,47.87,22,47.24ZM18.59,75.1c-3.65-.54-5.73-6.94-4.64-14.3s4.94-12.88,8.59-12.34,5.72,6.95,4.63,14.3S22.24,75.64,18.59,75.1Z"/><path class="cls-1" d="M57,49.94c1.94-3.61-30.31-4.86-30.31-4.86S10.14,54.59,15.92,57.43,34.5,61.76,42.25,60.7,55,53.55,57,49.94Z"/><path class="cls-1" d="M63.58,22.61c-.39-5.27-19-11.06-25-2.06s-7,20-7,20,16,6,19,6,5,1,8-1S64,27.87,63.58,22.61Z"/><path class="cls-2" d="M0,85.68c-.24-.68,2.27-2.8,3.22-3.2-.28.26-.69.78-.25,1a2.29,2.29,0,0,0,2.36-.84,6.21,6.21,0,0,1,.16,1.75C5.5,85,.56,87.26,0,85.68Z"/><path class="cls-3" d="M2.24,84c-.44-.2.58-1.21.86-1.46A6.36,6.36,0,0,1,4.17,82a1,1,0,0,0,.38-.57L5,81.32a1.1,1.1,0,0,0,.15.9,1.85,1.85,0,0,1,.16.4C4.92,83.3,2.89,84.34,2.24,84Z"/><path class="cls-4" d="M31.11,38.24S26.68,37.9,15.28,46C4.25,53.92,4,81.83,4,81.83l1.22.08S12.12,62.4,20.58,58.55c2.76-1.26,20.93-3.91,24.23-9.3a16.79,16.79,0,0,0,2.18-11Z"/><path class="cls-2" d="M9.67,88.12c.34-.48,1.77-.73,2.89-.86-.35.14-.72.38-.25.62a3.63,3.63,0,0,0,2.91,0,3.65,3.65,0,0,1,0,1.4C15.11,89.72,9.1,88.9,9.67,88.12Z"/><path class="cls-3" d="M12.31,87.88c-.47-.24-.1-.48.25-.62.69-.09,1.14-.15,1.27-.19a1.53,1.53,0,0,0,.63-.35h.34s.39,1,.42,1.12A3.63,3.63,0,0,1,12.31,87.88Z"/><path class="cls-5" d="M44.7,40.14c-3.65,1.2-9.15,1.59-14.76,4.34s-10.68,6.59-11.68,15-4.18,27.29-4.18,27.29l1.13.38S26.89,64,29.7,58.52c0,0,12.28-1.83,18.83-4.06,10.13-3.45,7.4-14.23,1.52-17.14A30.23,30.23,0,0,1,44.7,40.14Z"/><path class="cls-2" d="M54,17.21c2.85,4.76-3.13,19-3,20.22-3.57,1.59-19.48.51-21.3-.36,0-.07-.95-5-1.68-10.58-.76-5.8-2.1-11.07.76-12.26C42.18,8.65,52,13.86,54,17.21Z"/><path class="cls-6" d="M28.78,14.23a31.32,31.32,0,0,1,9.11-2.34,111,111,0,0,0-1.37,16.3c-.08,3.15-.22,6.53-.39,9.78a29.74,29.74,0,0,1-6.43-.9c0-.07-.95-5-1.68-10.58C27.26,20.69,25.92,15.42,28.78,14.23Z"/><path class="cls-7" d="M22.67,37.29s-2.45.21-3.18-.51C18.24,35.58,17.66,34,18,33.73s2.5.93,2.8,1.29,2.18.52,2.81,1.22C23.83,36.5,23.49,37.1,22.67,37.29Z"/><path class="cls-3" d="M50.77,40.4c-8.16,6.27-28.89-3.77-28.89-3.77a21.08,21.08,0,0,1,12.18-2.78c2.81.2,13.24,1.94,13.24,1.94S47.4,18.87,50,17.24c2-1.23,3.15-.53,4.27.61C57.56,21.19,54.79,37.32,50.77,40.4Z"/><path class="cls-8" d="M41.33,40.12c2.29.09,8.53.89,10.44-4.22,1.5-4,1.33-14.75,1.2-19.07a3.49,3.49,0,0,1,.71.47c.13.1.25.21.38.33l.23.22h0l.14.16,0,0,.09.12a.56.56,0,0,1,0,.08,1,1,0,0,1,.08.11.41.41,0,0,0,.05.09l.06.11a.47.47,0,0,1,.05.1l.06.12a.54.54,0,0,1,.05.11L55,19s0,.08,0,.12,0,.08,0,.13l0,.12,0,.11c0,.12.07.23.1.35l0,.06a1.94,1.94,0,0,1,0,.2.29.29,0,0,1,0,.09c0,.07,0,.14,0,.21v.08c0,.07,0,.15.05.22v.08c0,.08,0,.16,0,.24v.06a2.51,2.51,0,0,0,0,.27h0c.76,6-1.64,16.59-4.82,19-8.16,6.27-28.89-3.77-28.89-3.77s.31-.2.89-.5C30.92,38,40.09,40.08,41.33,40.12Z"/><path class="cls-9" d="M10.41,36.81,7.71,25.26a2.58,2.58,0,0,1,2.51-3.16H29.58A2.58,2.58,0,0,1,32,25.46L29.73,36.81Z"/><path class="cls-9" d="M10.41,36.81l.28.88a2.49,2.49,0,0,0,2.39,1.76h24a2.36,2.36,0,0,0,2.27-1.73l.3-1.12-11.29.21Z"/><path class="cls-6" d="M20.59,29.46A1.47,1.47,0,1,1,19.13,28,1.46,1.46,0,0,1,20.59,29.46Z"/><path class="cls-10" d="M38.61,7.29a2.73,2.73,0,0,1-2-.73,1.55,1.55,0,0,1,0-1.9S34.7,4.27,35.44,1.6s4.29-1.45,4.64-.25c0,0,1.69-1.35,2.57.39a2.48,2.48,0,0,1,3,1.78,2.61,2.61,0,0,1-1,3.18,1.58,1.58,0,0,1-.35,1.9C42.07,10.32,38.61,7.29,38.61,7.29Z"/><path class="cls-3" d="M42,9.59s.43,3.47.05,3.82a1.71,1.71,0,0,1-2.35-.2c-.67-.92.32-3.82.32-3.82Z"/><path class="cls-8" d="M42.25,12.11A4.19,4.19,0,0,1,39.51,12a9.64,9.64,0,0,1,.33-1.83l2.29.23C42.18,10.88,42.23,11.53,42.25,12.11Z"/><path class="cls-3" d="M38.37,6.47c.85-1.27,3.74-.9,4.24-.57s.58,1.16.6,1.75S42.85,10.8,41,11.16C37.38,11.83,38.37,6.47,38.37,6.47Z"/><path class="cls-5" d="M45.22,3.65a3.06,3.06,0,0,0-2.81-1.49s-.52-1-1.33-.75a1.75,1.75,0,0,0-1,.53A3.68,3.68,0,0,0,37.54,0a2.8,2.8,0,0,1,2.54,1.35s1.69-1.35,2.57.39a2.48,2.48,0,0,1,3,1.78,2.61,2.61,0,0,1-1,3.18A2.79,2.79,0,0,0,45.22,3.65Z"/><path class="cls-3" d="M9.47,33.46s-.57-1.33-.33-1.68.59,1.11.93,1.4,2.09,1.67,2.12,2.18-.85.12-.85.12.92.71.62.89a1.46,1.46,0,0,1-1.91-.75A3.81,3.81,0,0,1,9.47,33.46Z"/><path class="cls-6" d="M50,17.24c2-1.23,3.15-.53,4.27.61,1.45,1.48,1.71,5.49,1.2,9.75L47.8,25.68C48.18,21.73,48.85,18,50,17.24Z"/><path class="cls-11" d="M55.16,19.39h0l0-.07Z"/><path class="cls-11" d="M54.8,18.57a.56.56,0,0,0,.05.08.56.56,0,0,1-.05-.08Z"/><polygon class="cls-11" points="55.19 19.5 55.19 19.5 55.19 19.5 55.19 19.5"/><path class="cls-11" d="M55.73,23.94v0Z"/><path class="cls-11" d="M54.43,18l0,0,0,0Z"/><path class="cls-11" d="M54.56,18.18l0,.06,0-.06Z"/><polygon class="cls-11" points="54.28 17.85 54.28 17.85 54.28 17.85 54.28 17.85 54.28 17.85"/><path class="cls-11" d="M55.55,21.09c0,.05,0,.1,0,.16s0-.11,0-.16Z"/><polygon class="cls-11" points="55.59 21.37 55.59 21.37 55.59 21.37 55.59 21.37"/><path class="cls-11" d="M55.65,22v0Z"/><path class="cls-11" d="M55.54,21h0s0-.06,0-.09S55.53,21,55.54,21Z"/><path class="cls-11" d="M55.44,20.49a.29.29,0,0,1,0,.09.29.29,0,0,0,0-.09Z"/><path class="cls-11" d="M55.72,23.27v0Z"/><path class="cls-11" d="M55.31,19.91a1.94,1.94,0,0,1,0,.2h0a1.94,1.94,0,0,0,0-.2Z"/><path class="cls-11" d="M55.7,22.61a.66.66,0,0,1,0-.14A.66.66,0,0,0,55.7,22.61Z"/><path class="cls-11" d="M55.5,27.51l.06-.58Z"/><path class="cls-11" d="M55.65,26c0-.11,0-.21,0-.32C55.66,25.78,55.65,25.88,55.65,26Z"/><path class="cls-11" d="M55.58,26.74c0-.16,0-.32,0-.48C55.61,26.42,55.6,26.58,55.58,26.74Z"/><path class="cls-11" d="M55.69,25.26a2.81,2.81,0,0,0,0-.29A2.81,2.81,0,0,1,55.69,25.26Z"/><polygon class="cls-11" points="54.06 17.63 54.06 17.63 54.06 17.63 54.06 17.63"/><path class="cls-11" d="M53.35,17.05l0,0Z"/><path class="cls-11" d="M55.72,24.63v0Z"/><path class="cls-12" d="M55.72,23.09c0-.16,0-.32,0-.48C55.71,22.77,55.71,22.93,55.72,23.09Z"/><path class="cls-12" d="M55.49,27.6h0v0Z"/><path class="cls-12" d="M55.67,25.67c0-.14,0-.28,0-.41C55.68,25.39,55.68,25.53,55.67,25.67Z"/><path class="cls-12" d="M55.7,25c0-.11,0-.23,0-.34C55.71,24.74,55.71,24.86,55.7,25Z"/><path class="cls-12" d="M55.56,26.93a1.11,1.11,0,0,0,0-.19A1.11,1.11,0,0,1,55.56,26.93Z"/><path class="cls-12" d="M55.72,24.31c0-.12,0-.25,0-.37C55.73,24.06,55.73,24.19,55.72,24.31Z"/><path class="cls-12" d="M55.62,26.26l0-.27Z"/><path class="cls-12" d="M55.73,23.75c0-.16,0-.33,0-.48C55.73,23.42,55.73,23.59,55.73,23.75Z"/><path class="cls-12" d="M55.06,19.14s0-.08,0-.12L55,18.9a.54.54,0,0,0-.05-.11l-.06-.12v0c.1.21.19.43.28.67l0-.05C55.09,19.22,55.08,19.18,55.06,19.14Z"/><path class="cls-12" d="M55.19,19.5l.12.41,0-.06C55.26,19.73,55.23,19.62,55.19,19.5Z"/><path class="cls-12" d="M54.69,18.37a1,1,0,0,0-.08-.11v0c.07.11.14.22.2.33l-.06-.11A.41.41,0,0,1,54.69,18.37Z"/><path class="cls-12" d="M55.57,21.25s0,.08,0,.12h0S55.58,21.28,55.57,21.25Z"/><path class="cls-12" d="M54.45,18l.11.15-.09-.12Z"/><path class="cls-12" d="M55.38,20.2a.29.29,0,0,0,0-.09c0,.12.06.25.08.38v-.08C55.41,20.34,55.4,20.27,55.38,20.2Z"/><path class="cls-12" d="M55.49,20.71l0-.13.06.36a.77.77,0,0,0,0-.15Z"/><path class="cls-12" d="M54.43,18l-.14-.16Z"/><path class="cls-12" d="M55.55,21.09v0Z"/><path class="cls-12" d="M55.64,21.89c0-.17,0-.35,0-.52C55.61,21.54,55.63,21.72,55.64,21.89Z"/><path class="cls-12" d="M55.19,19.5l0-.11Z"/><path class="cls-12" d="M54.29,17.85l-.23-.22Z"/><path class="cls-12" d="M55.69,22.47c0-.17,0-.33,0-.5C55.67,22.14,55.68,22.3,55.69,22.47Z"/><path class="cls-12" d="M53.35,17.05a4.75,4.75,0,0,1,.71.58c-.13-.12-.25-.23-.38-.33Z"/><path class="cls-2" d="M53,16.83l.34.2,0,0,.33.25c.13.1.25.21.38.33h0l.23.22h0l.14.16,0,0,0,0,.09.12,0,.06v0a1,1,0,0,1,.08.11.41.41,0,0,0,.05.09l.06.11a.56.56,0,0,0,.05.08v0l.06.12a.54.54,0,0,1,.05.11L55,19s0,.08,0,.12,0,.08,0,.13l0,.05,0,.07,0,.11h0c0,.12.07.23.1.35l0,.06a1.94,1.94,0,0,1,0,.2.29.29,0,0,1,0,.09c0,.07,0,.14,0,.21v.08a.29.29,0,0,1,0,.09l0,.13v.08a.77.77,0,0,1,0,.15s0,.06,0,.09v.06c0,.05,0,.1,0,.16s0,.07,0,.11h0c0,.17,0,.35,0,.52V22c0,.17,0,.33,0,.5a.66.66,0,0,0,0,.14c0,.16,0,.32,0,.48v.18c0,.15,0,.32,0,.48v.19c0,.12,0,.25,0,.37v.32c0,.11,0,.23,0,.34a2.81,2.81,0,0,1,0,.29c0,.13,0,.27,0,.41s0,.21,0,.32l0,.27c0,.16,0,.32,0,.48a1.11,1.11,0,0,1,0,.19l-.06.58v.09L53,27C53.12,23.09,53,19.09,53,16.83Z"/><path class="cls-1" d="M59.4,52.23c-5,0-9,7.61-9,17s4,17,9,17,9-7.61,9-17S64.37,52.23,59.4,52.23Zm.78,32.68c-4.29,0-7.78-7-7.78-15.68s3.49-15.68,7.78-15.68S68,60.57,68,69.23,64.48,84.91,60.18,84.91Z"/><path class="cls-1" d="M37.3,81.28C35.5,81.28,34,84,34,87.43s1.46,6.16,3.26,6.16,3.26-2.76,3.26-6.16S39.1,81.28,37.3,81.28Zm.28,9.54c-.93,0-1.68-1.52-1.68-3.39s.75-3.38,1.68-3.38,1.68,1.51,1.68,3.38S38.51,90.82,37.58,90.82Z"/><path class="cls-1" d="M9.63,76.32c-1.23,0-2.22,1.88-2.22,4.19s1,4.2,2.22,4.2,2.22-1.88,2.22-4.2S10.85,76.32,9.63,76.32Zm.19,6.5c-.63,0-1.14-1-1.14-2.31s.51-2.3,1.14-2.3,1.15,1,1.15,2.3S10.45,82.82,9.82,82.82Z"/><path class="cls-1" d="M61.64,45.6S65.53,24,65.14,21.89a5.17,5.17,0,0,1,1.76-5.06c1.36-1,3.49-2.29,3.76-1.74a5.66,5.66,0,0,1,.2,2.65c-.17.08-3.22.4-3.72,1.25S63.58,45.1,63.58,45.1,62.25,46.83,61.64,45.6Z"/><path class="cls-1" d="M63.28,33.68l-15.7,9.81s-1.69,1.66-1,2.55,4,.51,4,.51,2.66-3,3.48-4.09a41.57,41.57,0,0,1,4.51-3.88l5.54-3.08S66.3,33.1,63.28,33.68Z"/></g></g></svg>