<svg xmlns="http://www.w3.org/2000/svg" width="370" height="510" viewBox="0 0 370 510"><defs><style>.cls-1,.cls-4{fill:none;}.cls-2{fill:#968584;}.cls-3{fill:#6fbab6;}.cls-4{stroke:#968584;stroke-miterlimit:10;stroke-width:7px;}.cls-5{fill:#fff;}.cls-6{fill:#abce97;}.cls-7{fill:#cde5c0;}.cls-8{fill:#edf6ef;}.cls-9{fill:#0a345e;}.cls-10{fill:#3889fa;}.cls-11{fill:#509b96;}</style></defs><title>infografic_centre_servicii_sociale_04</title><g id="Layer_2" data-name="Layer 2"><g id="Layer_1-2" data-name="Layer 1"><rect class="cls-1" width="370" height="510"/><path class="cls-2" d="M198.8,432.36v1.83H179.63v-1.43L191.43,421a16.63,16.63,0,0,0,3.13-4,7.66,7.66,0,0,0,.81-3.41,5.14,5.14,0,0,0-1.81-4.18,8,8,0,0,0-5.24-1.52,12.29,12.29,0,0,0-4.61.8,8.88,8.88,0,0,0-3.4,2.43l-1.44-1.27a10.32,10.32,0,0,1,4-2.83,14.54,14.54,0,0,1,5.56-1,10,10,0,0,1,6.53,2,6.57,6.57,0,0,1,2.44,5.38,9.19,9.19,0,0,1-1,4.11,18,18,0,0,1-3.59,4.54l-10.28,10.25Z"/><path class="cls-2" d="M209.64,406.29v27.9h-2V408.12h-6.82v-1.83Z"/><path class="cls-2" d="M277.52,420.1a7.2,7.2,0,0,1,2.75,6,8.17,8.17,0,0,1-1.1,4.24,7.44,7.44,0,0,1-3.29,2.93,12.08,12.08,0,0,1-5.38,1.08,15.29,15.29,0,0,1-5.68-1,10.4,10.4,0,0,1-4.12-2.71l1-1.55a9.59,9.59,0,0,0,3.65,2.47,13.24,13.24,0,0,0,5.08,1,8.59,8.59,0,0,0,5.76-1.72,5.69,5.69,0,0,0,2-4.58,5.52,5.52,0,0,0-2.3-4.79c-1.52-1.08-4.1-1.63-7.71-1.63h-5.66l1.48-13.51h14.78v1.83H265.76L264.68,418h4Q274.77,418,277.52,420.1Z"/><path class="cls-2" d="M299.42,420.7a7.15,7.15,0,0,1,2.41,5.64,7.8,7.8,0,0,1-1.11,4.16,7.52,7.52,0,0,1-3.33,2.85,12.31,12.31,0,0,1-5.32,1,15.84,15.84,0,0,1-5.7-1,10,10,0,0,1-4.15-2.73l1-1.55a9.84,9.84,0,0,0,3.69,2.47,13.3,13.3,0,0,0,5.12,1,8.67,8.67,0,0,0,5.7-1.66,6.12,6.12,0,0,0,0-9.07q-2-1.64-6.1-1.63h-1.75v-1.48l8.25-10.56H283.26v-1.83h17.5v1.43l-8.37,10.73C295.47,418.52,297.82,419.28,299.42,420.7Z"/><path class="cls-2" d="M325.53,422.15a6.43,6.43,0,0,1,1.58,4.39,6.8,6.8,0,0,1-2.83,5.76,12.88,12.88,0,0,1-7.78,2.09,12.69,12.69,0,0,1-7.71-2.09,6.81,6.81,0,0,1-2.81-5.76,6.5,6.5,0,0,1,1.53-4.41,8.61,8.61,0,0,1,4.41-2.53,7.68,7.68,0,0,1-3.67-2.39A6.06,6.06,0,0,1,307,413.3a6.23,6.23,0,0,1,2.59-5.28,11.3,11.3,0,0,1,6.93-1.93,11.44,11.44,0,0,1,7,2,6.23,6.23,0,0,1,2.63,5.26,6,6,0,0,1-1.3,3.89,7.63,7.63,0,0,1-3.72,2.41A8.75,8.75,0,0,1,325.53,422.15ZM322.8,431a5.49,5.49,0,0,0,0-8.89,10.6,10.6,0,0,0-6.3-1.63,10.43,10.43,0,0,0-6.23,1.63,5.18,5.18,0,0,0-2.26,4.43,5.24,5.24,0,0,0,2.24,4.46,10.39,10.39,0,0,0,6.25,1.64A10.6,10.6,0,0,0,322.8,431ZM311,417.33a9.1,9.1,0,0,0,5.52,1.47,9.32,9.32,0,0,0,5.56-1.45,4.62,4.62,0,0,0,2-4,4.73,4.73,0,0,0-2.06-4,10.9,10.9,0,0,0-11,0,5,5,0,0,0,0,8Z"/><path d="M99.15,467.47a4.3,4.3,0,0,1-1.33-3.42v-3.86a4.36,4.36,0,0,1,1.31-3.42,5.54,5.54,0,0,1,3.8-1.17,6.37,6.37,0,0,1,2.83.56,4.42,4.42,0,0,1,1.8,1.69L106,458.92a3.65,3.65,0,0,0-1.26-1.25,3.76,3.76,0,0,0-1.83-.39c-2,0-3,1-3,2.91v3.86c0,1.94,1,2.91,3,2.91a4,4,0,0,0,2-.41,3.63,3.63,0,0,0,1.28-1.3l1.51,1.12a5.43,5.43,0,0,1-1.91,1.73,6.22,6.22,0,0,1-2.81.54A5.66,5.66,0,0,1,99.15,467.47Z"/><path d="M114,466.94a3.31,3.31,0,0,0,1-.66l1.17,1.08a3.35,3.35,0,0,1-1.35.95,5.33,5.33,0,0,1-2,.33,4.36,4.36,0,0,1-2.88-.8,3.09,3.09,0,0,1-.94-2.46v-2.63a2.68,2.68,0,0,1,1-2.19,4.15,4.15,0,0,1,2.69-.8,4,4,0,0,1,2.71.86,3.09,3.09,0,0,1,1,2.45,3.54,3.54,0,0,1-.15,1.16,1,1,0,0,1-.52.6,2.51,2.51,0,0,1-1.12.19h-3.63v.36c0,1.16.63,1.74,1.91,1.74A3.41,3.41,0,0,0,114,466.94Zm-2.63-5.23a1.56,1.56,0,0,0-.46,1.18v.78h2.57a1.1,1.1,0,0,0,.7-.17.76.76,0,0,0,.2-.61,1.55,1.55,0,0,0-.46-1.21,1.85,1.85,0,0,0-1.3-.42A1.69,1.69,0,0,0,111.33,461.71Z"/><path d="M124.86,460.51a3,3,0,0,1,.73,2.15v5.76h-2v-5.56a1.68,1.68,0,0,0-.37-1.16,1.31,1.31,0,0,0-1-.43,1.74,1.74,0,0,0-1.28.5,3.16,3.16,0,0,0-.78,1.3v5.35h-2v-6.21a1.32,1.32,0,0,0-.16-.7,2.52,2.52,0,0,0-.59-.61l1.31-1.16a3.25,3.25,0,0,1,.88.66,1.87,1.87,0,0,1,.43.84,2.87,2.87,0,0,1,1.07-1.09,3.09,3.09,0,0,1,1.62-.41A2.74,2.74,0,0,1,124.86,460.51Z"/><path d="M129.79,461.49v4a1.81,1.81,0,0,0,.27,1.11,1,1,0,0,0,.88.34h1.29v1.52h-1.29a3.42,3.42,0,0,1-2.4-.68,3,3,0,0,1-.72-2.29v-7.06a1.32,1.32,0,0,0-.16-.7,2.34,2.34,0,0,0-.59-.61l1.31-1.16a2.64,2.64,0,0,1,1.1,1,3,3,0,0,1,.31,1.48V460h2.44v1.53Z"/><path d="M140.08,460.19l-.5,1.66a2.46,2.46,0,0,0-.66-.31,2.54,2.54,0,0,0-.76-.1q-1.41,0-2,2.07v4.91h-2v-6.21a1.32,1.32,0,0,0-.16-.7,2.34,2.34,0,0,0-.59-.61l1.31-1.16a3,3,0,0,1,.95.72,1.91,1.91,0,0,1,.4,1,3.16,3.16,0,0,1,1-1.23,2.5,2.5,0,0,1,1.49-.45A2.43,2.43,0,0,1,140.08,460.19Z"/><path d="M145.74,466.94a3.22,3.22,0,0,0,1-.66l1.17,1.08a3.35,3.35,0,0,1-1.35.95,5.33,5.33,0,0,1-2,.33,4.36,4.36,0,0,1-2.88-.8,3.06,3.06,0,0,1-.94-2.46v-2.63a2.7,2.7,0,0,1,1-2.19,4.17,4.17,0,0,1,2.69-.8,4,4,0,0,1,2.72.86,3.09,3.09,0,0,1,1,2.45,3.58,3.58,0,0,1-.14,1.16,1.06,1.06,0,0,1-.52.6,2.54,2.54,0,0,1-1.12.19h-3.63v.36c0,1.16.63,1.74,1.9,1.74A3.37,3.37,0,0,0,145.74,466.94Zm-2.62-5.23a1.56,1.56,0,0,0-.46,1.18v.78h2.57a1.1,1.1,0,0,0,.7-.17.8.8,0,0,0,.2-.61,1.55,1.55,0,0,0-.46-1.21,1.85,1.85,0,0,0-1.3-.42A1.69,1.69,0,0,0,143.12,461.71Z"/><path d="M155.46,468.27a4.11,4.11,0,0,1-1.32-1.18l1.22-1a3.28,3.28,0,0,0,1,.83,3.15,3.15,0,0,0,2.46,0,.82.82,0,0,0,.42-.77.78.78,0,0,0-.19-.53,1.67,1.67,0,0,0-.69-.37,9.31,9.31,0,0,0-1.43-.32c-1.68-.32-2.52-1.19-2.52-2.63a2.15,2.15,0,0,1,.89-1.82,3.94,3.94,0,0,1,2.39-.67,3.39,3.39,0,0,1,3.13,1.43l-1.2,1a3.16,3.16,0,0,0-.89-.7,2.32,2.32,0,0,0-1-.22,1.73,1.73,0,0,0-1.05.27.86.86,0,0,0-.37.74.79.79,0,0,0,.41.7,3.7,3.7,0,0,0,1.14.38,12.48,12.48,0,0,1,1.81.53,2.49,2.49,0,0,1,1.08.81,2.3,2.3,0,0,1,.4,1.42q0,2.52-3.58,2.52A4.6,4.6,0,0,1,155.46,468.27Z"/><path d="M167.67,466.94a3.18,3.18,0,0,0,1-.66l1.17,1.08a3.35,3.35,0,0,1-1.35.95,5.33,5.33,0,0,1-2,.33,4.4,4.4,0,0,1-2.88-.8,3.09,3.09,0,0,1-.93-2.46v-2.63a2.67,2.67,0,0,1,1-2.19,4.15,4.15,0,0,1,2.69-.8,4,4,0,0,1,2.72.86,3.12,3.12,0,0,1,1,2.45,3.54,3.54,0,0,1-.15,1.16,1,1,0,0,1-.52.6,2.49,2.49,0,0,1-1.11.19h-3.64v.36c0,1.16.64,1.74,1.91,1.74A3.37,3.37,0,0,0,167.67,466.94ZM165,461.71a1.56,1.56,0,0,0-.46,1.18v.78h2.57a1.15,1.15,0,0,0,.71-.17.8.8,0,0,0,.19-.61,1.55,1.55,0,0,0-.46-1.21,1.85,1.85,0,0,0-1.3-.42A1.69,1.69,0,0,0,165,461.71Z"/><path d="M177.79,460.19l-.5,1.66a2.46,2.46,0,0,0-.66-.31,2.54,2.54,0,0,0-.76-.1q-1.41,0-2,2.07v4.91h-2v-6.21a1.32,1.32,0,0,0-.16-.7,2.34,2.34,0,0,0-.59-.61l1.31-1.16a3,3,0,0,1,1,.72,1.91,1.91,0,0,1,.4,1,3.16,3.16,0,0,1,1-1.23,2.5,2.5,0,0,1,1.49-.45A2.45,2.45,0,0,1,177.79,460.19Z"/><path d="M181.43,468.2a3.08,3.08,0,0,1-.81-1.47L178.51,460h1.91l2,6.59a2.55,2.55,0,0,0,.17.45.22.22,0,0,0,.21.11.23.23,0,0,0,.2-.12,1.82,1.82,0,0,0,.18-.44l2-6.59H187l-2.07,6.77a3.26,3.26,0,0,1-.8,1.47,2,2,0,0,1-1.36.44A2,2,0,0,1,181.43,468.2Z"/><path d="M188.74,458.22a1.14,1.14,0,0,1-.35-.83,1.12,1.12,0,0,1,.35-.82,1.14,1.14,0,0,1,.84-.35,1.1,1.1,0,0,1,.82.35,1.12,1.12,0,0,1,.35.82,1.14,1.14,0,0,1-.35.83,1.1,1.1,0,0,1-.82.35A1.14,1.14,0,0,1,188.74,458.22Zm.17,9.46a2.91,2.91,0,0,1-.32-1.47V460h2v6.21a1.42,1.42,0,0,0,.16.7,2.41,2.41,0,0,0,.6.61l-1.3,1.16A2.65,2.65,0,0,1,188.91,467.68Z"/><path d="M193.92,467.79a3,3,0,0,1-1-2.43V463a3,3,0,0,1,1-2.42,4.19,4.19,0,0,1,2.82-.86,3.81,3.81,0,0,1,3.29,1.43l-1.35,1.09a3.07,3.07,0,0,0-.87-.76,2.29,2.29,0,0,0-1.07-.23,1.94,1.94,0,0,0-1.37.46,1.68,1.68,0,0,0-.49,1.29v2.34a1.71,1.71,0,0,0,.48,1.3,1.93,1.93,0,0,0,1.38.45,2.39,2.39,0,0,0,1.1-.23,2.66,2.66,0,0,0,.86-.75l1.35,1.1a3.33,3.33,0,0,1-1.32,1.06,5,5,0,0,1-2,.35A4.25,4.25,0,0,1,193.92,467.79Z"/><path d="M202.06,458.22a1.14,1.14,0,0,1-.35-.83,1.12,1.12,0,0,1,.35-.82,1.14,1.14,0,0,1,.84-.35,1.1,1.1,0,0,1,.82.35,1.12,1.12,0,0,1,.35.82,1.14,1.14,0,0,1-.35.83,1.1,1.1,0,0,1-.82.35A1.14,1.14,0,0,1,202.06,458.22Zm.17,9.46a2.91,2.91,0,0,1-.32-1.47V460h2v6.21a1.42,1.42,0,0,0,.16.7,2.41,2.41,0,0,0,.6.61l-1.3,1.16A2.65,2.65,0,0,1,202.23,467.68Z"/><path d="M206.82,458.22a1.11,1.11,0,0,1-.36-.83,1.09,1.09,0,0,1,.36-.82,1.15,1.15,0,0,1,1.65,0,1.08,1.08,0,0,1,.35.82,1.17,1.17,0,0,1-2,.83Zm.16,9.46a2.91,2.91,0,0,1-.32-1.47V460h2v6.21a1.32,1.32,0,0,0,.16.7,2.34,2.34,0,0,0,.59.61l-1.3,1.16A2.72,2.72,0,0,1,207,467.68Z"/><path d="M216.86,468.27a4,4,0,0,1-1.32-1.18l1.22-1a3.26,3.26,0,0,0,1,.83,2.48,2.48,0,0,0,1.17.24,2.56,2.56,0,0,0,1.3-.26.82.82,0,0,0,.41-.77.77.77,0,0,0-.18-.53,1.67,1.67,0,0,0-.69-.37,9.61,9.61,0,0,0-1.43-.32c-1.68-.32-2.52-1.19-2.52-2.63a2.15,2.15,0,0,1,.89-1.82,3.94,3.94,0,0,1,2.39-.67,3.39,3.39,0,0,1,3.13,1.43l-1.21,1a3.14,3.14,0,0,0-.88-.7,2.38,2.38,0,0,0-1-.22,1.79,1.79,0,0,0-1.06.27.88.88,0,0,0-.36.74.77.77,0,0,0,.41.7,3.54,3.54,0,0,0,1.13.38,12.67,12.67,0,0,1,1.82.53,2.49,2.49,0,0,1,1.08.81,2.37,2.37,0,0,1,.4,1.42q0,2.52-3.59,2.52A4.55,4.55,0,0,1,216.86,468.27Z"/><path d="M224.84,467.77a3.07,3.07,0,0,1-1-2.45v-2.26a3.07,3.07,0,0,1,1-2.45,4.94,4.94,0,0,1,5.6,0,3.07,3.07,0,0,1,1,2.45v2.26a3.07,3.07,0,0,1-1,2.45,4.94,4.94,0,0,1-5.6,0Zm4.15-1.12a1.76,1.76,0,0,0,.48-1.33v-2.26a1.76,1.76,0,0,0-.48-1.33,2.21,2.21,0,0,0-2.7,0,1.76,1.76,0,0,0-.48,1.33v2.26a1.76,1.76,0,0,0,.48,1.33,2.21,2.21,0,0,0,2.7,0Z"/><path d="M234.22,467.79a3,3,0,0,1-1-2.43V463a3,3,0,0,1,1-2.42,4.21,4.21,0,0,1,2.82-.86,3.81,3.81,0,0,1,3.29,1.43L239,462.26a3.07,3.07,0,0,0-.87-.76,2.26,2.26,0,0,0-1.07-.23,1.94,1.94,0,0,0-1.37.46,1.68,1.68,0,0,0-.49,1.29v2.34a1.71,1.71,0,0,0,.48,1.3,1.94,1.94,0,0,0,1.38.45,2.39,2.39,0,0,0,1.1-.23,2.66,2.66,0,0,0,.86-.75l1.35,1.1a3.33,3.33,0,0,1-1.32,1.06,5,5,0,0,1-2,.35A4.25,4.25,0,0,1,234.22,467.79Z"/><path d="M242.37,458.22a1.11,1.11,0,0,1-.36-.83,1.09,1.09,0,0,1,.36-.82,1.15,1.15,0,0,1,1.65,0,1.12,1.12,0,0,1,.35.82,1.14,1.14,0,0,1-.35.83,1.15,1.15,0,0,1-1.65,0Zm.16,9.46a2.91,2.91,0,0,1-.32-1.47V460h2v6.21a1.32,1.32,0,0,0,.17.7,2.18,2.18,0,0,0,.59.61l-1.3,1.16A2.72,2.72,0,0,1,242.53,467.68Z"/><path d="M254,466.87a2.41,2.41,0,0,0,.6.61l-1.32,1.16A2.34,2.34,0,0,1,252,467.3a3.06,3.06,0,0,1-1.13,1,3.66,3.66,0,0,1-1.71.38,3,3,0,0,1-2.05-.66,2.32,2.32,0,0,1-.76-1.86,2.12,2.12,0,0,1,1-2,5.81,5.81,0,0,1,2.42-.73l1.05-.11a2.08,2.08,0,0,0,.82-.21.61.61,0,0,0,.28-.46c-.07-1-.68-1.51-1.82-1.51a2.6,2.6,0,0,0-1.14.23,2.57,2.57,0,0,0-.91.74l-1.35-1a3.17,3.17,0,0,1,1.29-1,5.22,5.22,0,0,1,2.11-.37,4.36,4.36,0,0,1,2.83.79,2.78,2.78,0,0,1,1,2.27v3.37A1.32,1.32,0,0,0,254,466.87Zm-2.72-.2a1.65,1.65,0,0,0,.6-1.31v-1a5.13,5.13,0,0,1-1.19.23l-.81.09c-1.11.12-1.66.56-1.66,1.32a1.07,1.07,0,0,0,.37.87,1.65,1.65,0,0,0,1.06.3A2.37,2.37,0,0,0,251.3,466.67Z"/><path d="M256.44,467.68a2.92,2.92,0,0,1-.31-1.47v-8.68a1.37,1.37,0,0,0-.17-.72,2,2,0,0,0-.59-.59l1.31-1.16a2.64,2.64,0,0,1,1.1.95,2.91,2.91,0,0,1,.31,1.48v8.68a1.32,1.32,0,0,0,.17.7,2.59,2.59,0,0,0,.6.61l-1.31,1.16A2.69,2.69,0,0,1,256.44,467.68Z"/><path d="M265.42,466.94a3.22,3.22,0,0,0,1-.66l1.17,1.08a3.35,3.35,0,0,1-1.35.95,5.33,5.33,0,0,1-2,.33,4.36,4.36,0,0,1-2.88-.8,3.06,3.06,0,0,1-.94-2.46v-2.63a2.7,2.7,0,0,1,1-2.19,4.17,4.17,0,0,1,2.69-.8,4,4,0,0,1,2.72.86,3.09,3.09,0,0,1,1,2.45,3.58,3.58,0,0,1-.14,1.16,1.06,1.06,0,0,1-.52.6A2.54,2.54,0,0,1,266,465h-3.63v.36c0,1.16.63,1.74,1.9,1.74A3.33,3.33,0,0,0,265.42,466.94Zm-2.62-5.23a1.56,1.56,0,0,0-.46,1.18v.78h2.57a1.1,1.1,0,0,0,.7-.17.8.8,0,0,0,.2-.61,1.55,1.55,0,0,0-.46-1.21,1.85,1.85,0,0,0-1.3-.42A1.69,1.69,0,0,0,262.8,461.71Z"/><rect class="cls-3" x="272.48" y="41.92" width="43.84" height="331.33"/><rect class="cls-3" x="174.33" y="360.32" width="43.84" height="12.93"/><line class="cls-4" x1="29.89" y1="373.25" x2="340.11" y2="373.25"/><path d="M188.14,332.73a3.48,3.48,0,0,1,1.51-1.25,5.25,5.25,0,0,1,2.08-.41h.58a5.22,5.22,0,0,1,2.08.41,3.48,3.48,0,0,1,1.51,1.25,3.45,3.45,0,0,1,.57,2,3.73,3.73,0,0,1-.32,1.67,2.75,2.75,0,0,1-.89,1h4.93v2H190a1.29,1.29,0,0,0-.71.18,2.13,2.13,0,0,0-.6.58l-1.15-1.31a2.92,2.92,0,0,1,.63-.87,1.93,1.93,0,0,1,.82-.41,3.14,3.14,0,0,1-1.45-2.83A3.45,3.45,0,0,1,188.14,332.73Zm3.59.3a2.92,2.92,0,0,0-1.88.6,2,2,0,0,0-.75,1.65,2.08,2.08,0,0,0,1.64,2.16h2.56a2.08,2.08,0,0,0,1.64-2.16,2,2,0,0,0-.75-1.65,2.9,2.9,0,0,0-1.88-.6Z"/><path d="M194.77,324.33a3.06,3.06,0,0,0-.66-1l1.08-1.17a3.35,3.35,0,0,1,.95,1.35,5.28,5.28,0,0,1,.33,2,4.36,4.36,0,0,1-.8,2.88,3.06,3.06,0,0,1-2.46.94h-2.63a2.7,2.7,0,0,1-2.19-1,4.15,4.15,0,0,1-.8-2.69,4,4,0,0,1,.86-2.72,3.09,3.09,0,0,1,2.46-1,3.86,3.86,0,0,1,1.15.14,1.06,1.06,0,0,1,.6.52,2.57,2.57,0,0,1,.19,1.12v3.64h.36c1.16,0,1.75-.64,1.75-1.91A3.35,3.35,0,0,0,194.77,324.33ZM189.54,327a1.6,1.6,0,0,0,1.18.46h.78v-2.58a1.12,1.12,0,0,0-.17-.7.8.8,0,0,0-.61-.2,1.55,1.55,0,0,0-1.21.46,1.87,1.87,0,0,0-.42,1.31A1.73,1.73,0,0,0,189.54,327Z"/><path d="M188.34,313.42a3,3,0,0,1,2.15-.73h5.76v2h-5.56a1.73,1.73,0,0,0-1.16.37,1.32,1.32,0,0,0-.43,1,1.77,1.77,0,0,0,.5,1.28,3.3,3.3,0,0,0,1.31.77h5.34v2H190a1.42,1.42,0,0,0-.7.16,2.58,2.58,0,0,0-.61.6l-1.15-1.32a3.19,3.19,0,0,1,.65-.88,2.1,2.1,0,0,1,.84-.43,2.85,2.85,0,0,1-1.09-1.06,3.14,3.14,0,0,1-.4-1.62A2.77,2.77,0,0,1,188.34,313.42Z"/><path d="M189.32,308.5h4a1.79,1.79,0,0,0,1.11-.27,1,1,0,0,0,.35-.88v-1.3h1.51v1.3a3.44,3.44,0,0,1-.68,2.4,3.08,3.08,0,0,1-2.29.71h-7.06a1.32,1.32,0,0,0-.7.16,2.41,2.41,0,0,0-.61.6l-1.16-1.32a2.71,2.71,0,0,1,1-1.1,3,3,0,0,1,1.48-.3h1.57v-2.45h1.53Z"/><path d="M188,298.2l1.65.51a2.27,2.27,0,0,0-.31.65,2.61,2.61,0,0,0-.1.77q0,1.39,2.07,2h4.91v2H190a1.32,1.32,0,0,0-.7.16,2.58,2.58,0,0,0-.61.6l-1.15-1.32a2.79,2.79,0,0,1,.71-.94,2,2,0,0,1,1-.41,3.11,3.11,0,0,1-1.22-1,2.51,2.51,0,0,1-.45-1.5A2.45,2.45,0,0,1,188,298.2Z"/><path d="M194.69,289.4a2.17,2.17,0,0,0,.61-.61l1.13,1.31a2.76,2.76,0,0,1-.66.9,1.91,1.91,0,0,1-.85.43,3.17,3.17,0,0,1,1.13,1.08,3,3,0,0,1,.42,1.62,2.9,2.9,0,0,1-.77,2.15,3,3,0,0,1-2.19.75h-5.72v-2h5.56a1.6,1.6,0,0,0,1.16-.4,1.41,1.41,0,0,0,.43-1.11,1.69,1.69,0,0,0-.52-1.26,3.46,3.46,0,0,0-1.39-.78h-5.24v-2H194A1.36,1.36,0,0,0,194.69,289.4Z"/><path d="M188.14,275.25a3.53,3.53,0,0,1,1.51-1.24,5.08,5.08,0,0,1,2.08-.41h.58a5,5,0,0,1,2.08.41,3.53,3.53,0,0,1,1.51,1.24,3.48,3.48,0,0,1,.57,2,3.69,3.69,0,0,1-.32,1.66,2.78,2.78,0,0,1-.89,1h4.93v2H190a1.38,1.38,0,0,0-.71.17,2.35,2.35,0,0,0-.6.59l-1.15-1.32a2.86,2.86,0,0,1,.63-.86,1.94,1.94,0,0,1,.82-.42,3.12,3.12,0,0,1-1.45-2.82A3.48,3.48,0,0,1,188.14,275.25Zm3.59.31a3,3,0,0,0-1.88.59,2,2,0,0,0-.75,1.66,2.1,2.1,0,0,0,1.64,2.16h2.56a2.1,2.1,0,0,0,1.64-2.16,2,2,0,0,0-.75-1.66,3,3,0,0,0-1.88-.59Z"/><path d="M194.77,266.86a3.22,3.22,0,0,0-.66-1l1.08-1.17a3.35,3.35,0,0,1,.95,1.35,5.33,5.33,0,0,1,.33,2,4.36,4.36,0,0,1-.8,2.88,3.06,3.06,0,0,1-2.46.94h-2.63a2.7,2.7,0,0,1-2.19-1,4.19,4.19,0,0,1-.8-2.69,4,4,0,0,1,.86-2.72,3.1,3.1,0,0,1,2.46-1,3.52,3.52,0,0,1,1.15.15,1,1,0,0,1,.6.52,2.54,2.54,0,0,1,.19,1.12v3.63h.36c1.16,0,1.75-.63,1.75-1.91A3.29,3.29,0,0,0,194.77,266.86Zm-5.23,2.62a1.56,1.56,0,0,0,1.18.46h.78v-2.57a1.1,1.1,0,0,0-.17-.7.76.76,0,0,0-.61-.2,1.55,1.55,0,0,0-1.21.46,1.85,1.85,0,0,0-.42,1.3A1.69,1.69,0,0,0,189.54,269.48Z"/><path d="M188,256.73l1.65.5a2.46,2.46,0,0,0-.31.66,2.57,2.57,0,0,0-.1.77q0,1.39,2.07,2h4.91v2H190a1.32,1.32,0,0,0-.7.16,2.71,2.71,0,0,0-.61.59L187.58,262a2.94,2.94,0,0,1,.71-1,2,2,0,0,1,1-.4,3.13,3.13,0,0,1-1.22-1,2.5,2.5,0,0,1-.45-1.49A2.45,2.45,0,0,1,188,256.73Z"/><path d="M196.1,255.08a4,4,0,0,1-1.18,1.33l-1-1.23a3.23,3.23,0,0,0,.82-1,2.48,2.48,0,0,0,.24-1.17,2.56,2.56,0,0,0-.26-1.3.83.83,0,0,0-.77-.41.75.75,0,0,0-.53.19,1.56,1.56,0,0,0-.37.68,9.61,9.61,0,0,0-.32,1.43c-.31,1.68-1.19,2.52-2.63,2.52a2.14,2.14,0,0,1-1.82-.89,3.91,3.91,0,0,1-.66-2.38,3.4,3.4,0,0,1,1.42-3.14l1,1.21a3.14,3.14,0,0,0-.7.88,2.39,2.39,0,0,0-.22,1.05,1.77,1.77,0,0,0,.28,1,.83.83,0,0,0,.73.37.78.78,0,0,0,.7-.42,3.54,3.54,0,0,0,.38-1.13,12.67,12.67,0,0,1,.53-1.82,2.62,2.62,0,0,1,.81-1.08,2.36,2.36,0,0,1,1.42-.39q2.52,0,2.52,3.58A4.55,4.55,0,0,1,196.1,255.08Z"/><path d="M195.6,247.1a3.06,3.06,0,0,1-2.44,1h-2.27a3.07,3.07,0,0,1-2.45-1,5,5,0,0,1,0-5.6,3.07,3.07,0,0,1,2.45-1h2.27a3.06,3.06,0,0,1,2.44,1,4.94,4.94,0,0,1,0,5.6ZM194.48,243a1.75,1.75,0,0,0-1.32-.48h-2.27a1.76,1.76,0,0,0-1.33.48,1.91,1.91,0,0,0-.46,1.36,1.88,1.88,0,0,0,.46,1.34,1.76,1.76,0,0,0,1.33.48h2.27a1.75,1.75,0,0,0,1.32-.48,1.88,1.88,0,0,0,.46-1.34A1.91,1.91,0,0,0,194.48,243Z"/><path d="M194.7,231.33a2.51,2.51,0,0,0,.62-.59l1.15,1.31a2.31,2.31,0,0,1-1.34,1.28,3.18,3.18,0,0,1,1,1.14,3.59,3.59,0,0,1,.38,1.7,3,3,0,0,1-.66,2.06A2.35,2.35,0,0,1,194,239a2.08,2.08,0,0,1-2-.95,5.76,5.76,0,0,1-.74-2.43l-.11-1a2,2,0,0,0-.21-.81.56.56,0,0,0-.46-.28c-1,.07-1.51.67-1.51,1.81a2.44,2.44,0,0,0,1,2.06l-1,1.35a3.36,3.36,0,0,1-1-1.3,5.23,5.23,0,0,1-.36-2.11,4.36,4.36,0,0,1,.78-2.83,2.78,2.78,0,0,1,2.27-.94H194A1.32,1.32,0,0,0,194.7,231.33Zm-.2,2.72a1.67,1.67,0,0,0-1.31-.59h-1a4.54,4.54,0,0,1,.23,1.18l.09.82q.18,1.65,1.32,1.65a1,1,0,0,0,.87-.37,1.6,1.6,0,0,0,.3-1.05A2.39,2.39,0,0,0,194.5,234.05Z"/><path d="M188.34,222.4a3,3,0,0,1,2.15-.73h5.76v2h-5.56a1.68,1.68,0,0,0-1.16.37,1.3,1.3,0,0,0-.43,1,1.76,1.76,0,0,0,.5,1.28,3.31,3.31,0,0,0,1.31.78h5.34v2H190a1.32,1.32,0,0,0-.7.16,2.5,2.5,0,0,0-.61.59l-1.15-1.31a2.91,2.91,0,0,1,.65-.88,2.12,2.12,0,0,1,.84-.44,2.78,2.78,0,0,1-1.09-1.06,3.09,3.09,0,0,1-.4-1.62A2.74,2.74,0,0,1,188.34,222.4Z"/><path d="M194.77,214.57a3.22,3.22,0,0,0-.66-1l1.08-1.17a3.35,3.35,0,0,1,.95,1.35,5.33,5.33,0,0,1,.33,2,4.36,4.36,0,0,1-.8,2.88,3.06,3.06,0,0,1-2.46.94h-2.63a2.7,2.7,0,0,1-2.19-1,4.18,4.18,0,0,1-.8-2.7,4,4,0,0,1,.86-2.71,3.09,3.09,0,0,1,2.46-1,3.56,3.56,0,0,1,1.15.14,1.06,1.06,0,0,1,.6.52,2.54,2.54,0,0,1,.19,1.12v3.63h.36c1.16,0,1.75-.63,1.75-1.9A3.31,3.31,0,0,0,194.77,214.57Zm-5.23,2.62a1.56,1.56,0,0,0,1.18.46h.78v-2.57a1.1,1.1,0,0,0-.17-.7.8.8,0,0,0-.61-.2,1.55,1.55,0,0,0-1.21.46,1.85,1.85,0,0,0-.42,1.3A1.69,1.69,0,0,0,189.54,217.19Z"/><path d="M185.12,203a2.14,2.14,0,0,0,1.46.45h1.21V201h1.53v2.45h6.93v2h-9.67a3.46,3.46,0,0,1-2.6-.95,3.77,3.77,0,0,1-.9-2.71V201h1.52v.75A1.56,1.56,0,0,0,185.12,203Z"/><path d="M185.92,198.67a2.82,2.82,0,0,1-2.09.79v-1.41a1.72,1.72,0,0,0,1.08-.43,1.39,1.39,0,0,0,.4-1,1.43,1.43,0,0,0-.4-1.06,1.56,1.56,0,0,0-1.08-.42v-1.4a3,3,0,0,1,2.09,5Zm8.78-5.62a2.59,2.59,0,0,0,.62-.6l1.15,1.32a2.34,2.34,0,0,1-1.34,1.28,3.06,3.06,0,0,1,1,1.13,3.66,3.66,0,0,1,.38,1.71,3,3,0,0,1-.66,2.05,2.32,2.32,0,0,1-1.86.76,2.09,2.09,0,0,1-2-1,5.67,5.67,0,0,1-.74-2.43l-.11-1a2,2,0,0,0-.21-.82.61.61,0,0,0-.46-.28c-1,.07-1.51.68-1.51,1.82a2.44,2.44,0,0,0,1,2l-1,1.35a3.28,3.28,0,0,1-1-1.3,5.21,5.21,0,0,1-.36-2.1,4.39,4.39,0,0,1,.78-2.84,2.78,2.78,0,0,1,2.27-.94H194A1.32,1.32,0,0,0,194.7,193.05Zm-.2,2.71a1.67,1.67,0,0,0-1.31-.59h-1a4.64,4.64,0,0,1,.23,1.19l.09.81c.12,1.1.56,1.66,1.32,1.66a1.07,1.07,0,0,0,.87-.37,1.65,1.65,0,0,0,.3-1.06A2.41,2.41,0,0,0,194.5,195.76Z"/><path d="M188,184.89l1.65.51a2.27,2.27,0,0,0-.31.65,2.61,2.61,0,0,0-.1.77q0,1.41,2.07,2h4.91v2H190a1.42,1.42,0,0,0-.7.16,2.58,2.58,0,0,0-.61.6l-1.15-1.32a2.79,2.79,0,0,1,.71-.94,2,2,0,0,1,1-.41,3.11,3.11,0,0,1-1.22-1,2.51,2.51,0,0,1-.45-1.5A2.45,2.45,0,0,1,188,184.89Z"/><path d="M185.92,182.51a2.81,2.81,0,0,1-2.09.78v-1.4a1.72,1.72,0,0,0,1.08-.43,1.41,1.41,0,0,0,.4-1.05,1.42,1.42,0,0,0-.4-1,1.56,1.56,0,0,0-1.08-.42v-1.41a2.81,2.81,0,0,1,2.09.78,2.86,2.86,0,0,1,.77,2.1A2.83,2.83,0,0,1,185.92,182.51Zm8.78-5.63a2.34,2.34,0,0,0,.62-.59l1.15,1.31a2.31,2.31,0,0,1-1.34,1.28,3.18,3.18,0,0,1,1,1.14,3.66,3.66,0,0,1,.38,1.71,3,3,0,0,1-.66,2.05,2.35,2.35,0,0,1-1.86.75,2.08,2.08,0,0,1-2-.95,5.76,5.76,0,0,1-.74-2.43l-.11-1a2,2,0,0,0-.21-.82.58.58,0,0,0-.46-.28c-1,.07-1.51.68-1.51,1.82a2.44,2.44,0,0,0,1,2l-1,1.35a3.36,3.36,0,0,1-1-1.3,5.21,5.21,0,0,1-.36-2.1,4.39,4.39,0,0,1,.78-2.84,2.78,2.78,0,0,1,2.27-.94H194A1.32,1.32,0,0,0,194.7,176.88Zm-.2,2.72a1.67,1.67,0,0,0-1.31-.59h-1a4.55,4.55,0,0,1,.23,1.19l.09.81q.18,1.65,1.32,1.65a1,1,0,0,0,.87-.37,1.6,1.6,0,0,0,.3-1A2.39,2.39,0,0,0,194.5,179.6Z"/><path d="M194.7,162.5a2.51,2.51,0,0,0,.62-.59l1.15,1.31a2.34,2.34,0,0,1-1.34,1.28,3.14,3.14,0,0,1,1,1.13,3.66,3.66,0,0,1,.38,1.71,3,3,0,0,1-.66,2.06,2.35,2.35,0,0,1-1.86.75,2.1,2.1,0,0,1-2-1,5.76,5.76,0,0,1-.74-2.43l-.11-1.05a2,2,0,0,0-.21-.81.56.56,0,0,0-.46-.28c-1,.07-1.51.67-1.51,1.81a2.44,2.44,0,0,0,1,2.06l-1,1.35a3.36,3.36,0,0,1-1-1.3,5.23,5.23,0,0,1-.36-2.11,4.36,4.36,0,0,1,.78-2.83,2.78,2.78,0,0,1,2.27-1H194A1.32,1.32,0,0,0,194.7,162.5Zm-.2,2.72a1.64,1.64,0,0,0-1.31-.59h-1a4.45,4.45,0,0,1,.23,1.18l.09.81c.12,1.11.56,1.66,1.32,1.66a1,1,0,0,0,.87-.37,1.62,1.62,0,0,0,.3-1A2.39,2.39,0,0,0,194.5,165.22Z"/><path d="M194.7,152.21a2.59,2.59,0,0,0,.62-.6l1.15,1.3a2.4,2.4,0,0,1-1.44,1.26,3.06,3.06,0,0,1,1.08,1.16,3.6,3.6,0,0,1,.36,1.68,3.41,3.41,0,0,1-1.13,2.69,4.38,4.38,0,0,1-3,1h-.58a5,5,0,0,1-2.11-.43,3.36,3.36,0,0,1-2-3.26,3.14,3.14,0,0,1,1.17-2.68h-3.39a1.32,1.32,0,0,0-.7.16,2.58,2.58,0,0,0-.61.6l-1.14-1.32a2.64,2.64,0,0,1,1-1.1,3,3,0,0,1,1.47-.3H194A1.42,1.42,0,0,0,194.7,152.21Zm-4,2.12a2.07,2.07,0,0,0-1.64,2.16,2,2,0,0,0,.75,1.66,3,3,0,0,0,1.88.59h.58a3,3,0,0,0,1.88-.59,2,2,0,0,0,.75-1.66,2.07,2.07,0,0,0-1.64-2.16Z"/><path d="M185.92,148.33a2.81,2.81,0,0,1-2.09.78v-1.4a1.67,1.67,0,0,0,1.08-.44,1.39,1.39,0,0,0,.4-1,1.41,1.41,0,0,0-.4-1,1.61,1.61,0,0,0-1.08-.43v-1.4a2.67,2.67,0,0,1,2.86,2.88A2.85,2.85,0,0,1,185.92,148.33Zm8.78-5.63a2.51,2.51,0,0,0,.62-.59l1.15,1.31a2.34,2.34,0,0,1-1.34,1.28,3.14,3.14,0,0,1,1,1.13,3.66,3.66,0,0,1,.38,1.71,3,3,0,0,1-.66,2.05,2.32,2.32,0,0,1-1.86.76,2.1,2.1,0,0,1-2-.95,5.76,5.76,0,0,1-.74-2.43l-.11-1.05a2.13,2.13,0,0,0-.21-.82.57.57,0,0,0-.46-.27c-1,.07-1.51.67-1.51,1.81a2.68,2.68,0,0,0,.23,1.15,2.75,2.75,0,0,0,.74.91l-1,1.35a3.36,3.36,0,0,1-1-1.3,5.23,5.23,0,0,1-.36-2.11,4.36,4.36,0,0,1,.78-2.83,2.78,2.78,0,0,1,2.27-.95H194A1.32,1.32,0,0,0,194.7,142.7Zm-.2,2.72a1.64,1.64,0,0,0-1.31-.59h-1a4.45,4.45,0,0,1,.23,1.18l.09.81c.12,1.11.56,1.66,1.32,1.66a1,1,0,0,0,.87-.37,1.64,1.64,0,0,0,.3-1.05A2.39,2.39,0,0,0,194.5,145.42Z"/><path d="M188.14,133.74a3.46,3.46,0,0,1,1.51-1.24,5.09,5.09,0,0,1,2.08-.42h.58a5.05,5.05,0,0,1,2.08.42,3.38,3.38,0,0,1,2.08,3.25,3.7,3.7,0,0,1-.32,1.67,2.75,2.75,0,0,1-.89,1h4.93v2H190a1.29,1.29,0,0,0-.71.17,2.29,2.29,0,0,0-.6.58l-1.15-1.31a3.05,3.05,0,0,1,.63-.87,1.93,1.93,0,0,1,.82-.41,3.13,3.13,0,0,1-1.45-2.83A3.45,3.45,0,0,1,188.14,133.74Zm3.59.3a2.92,2.92,0,0,0-1.88.6,2,2,0,0,0-.75,1.65,2.08,2.08,0,0,0,1.64,2.16h2.56a2.08,2.08,0,0,0,1.64-2.16,2,2,0,0,0-.75-1.65,2.9,2.9,0,0,0-1.88-.6Z"/><path d="M195.6,129.38a3.06,3.06,0,0,1-2.44,1h-2.27a3.07,3.07,0,0,1-2.45-1,5,5,0,0,1,0-5.6,3.07,3.07,0,0,1,2.45-1h2.27a3.06,3.06,0,0,1,2.44,1,4.94,4.94,0,0,1,0,5.6Zm-1.12-4.15a1.79,1.79,0,0,0-1.32-.47h-2.27a1.8,1.8,0,0,0-1.33.47,1.91,1.91,0,0,0-.46,1.36,1.88,1.88,0,0,0,.46,1.34,1.76,1.76,0,0,0,1.33.48h2.27a1.75,1.75,0,0,0,1.32-.48,1.88,1.88,0,0,0,.46-1.34A1.91,1.91,0,0,0,194.48,125.23Z"/><path d="M196.1,120.16a4.11,4.11,0,0,1-1.18,1.32l-1-1.22a3.38,3.38,0,0,0,.82-1,3.15,3.15,0,0,0,0-2.46.82.82,0,0,0-.77-.42.75.75,0,0,0-.53.19,1.62,1.62,0,0,0-.37.68,9.49,9.49,0,0,0-.32,1.44c-.31,1.68-1.19,2.52-2.63,2.52a2.15,2.15,0,0,1-1.82-.9,3.89,3.89,0,0,1-.66-2.38,3.38,3.38,0,0,1,1.42-3.13l1,1.2a3.28,3.28,0,0,0-.7.88,2.39,2.39,0,0,0-.22,1,1.73,1.73,0,0,0,.28,1,.83.83,0,0,0,.73.37.79.79,0,0,0,.7-.41,3.7,3.7,0,0,0,.38-1.14,12.48,12.48,0,0,1,.53-1.81,2.49,2.49,0,0,1,.81-1.08,2.3,2.3,0,0,1,1.42-.4q2.52,0,2.52,3.58A4.6,4.6,0,0,1,196.1,120.16Z"/><path d="M189.32,110.81h4a1.79,1.79,0,0,0,1.11-.27,1.07,1.07,0,0,0,.35-.89v-1.29h1.51v1.29a3.47,3.47,0,0,1-.68,2.41,3.08,3.08,0,0,1-2.29.71h-7.06a1.32,1.32,0,0,0-.7.16,2.52,2.52,0,0,0-.61.59l-1.16-1.31a2.71,2.71,0,0,1,1-1.1,3,3,0,0,1,1.48-.3h1.57v-2.45h1.53Z"/><path d="M290.49,332.73a3.48,3.48,0,0,1,1.51-1.25,5.25,5.25,0,0,1,2.08-.41h.58a5.25,5.25,0,0,1,2.08.41,3.48,3.48,0,0,1,1.51,1.25,3.45,3.45,0,0,1,.57,2,3.73,3.73,0,0,1-.32,1.67,2.85,2.85,0,0,1-.89,1h4.93v2H292.39a1.29,1.29,0,0,0-.71.18,2.13,2.13,0,0,0-.6.58l-1.16-1.31a3.12,3.12,0,0,1,.64-.87,1.93,1.93,0,0,1,.82-.41,3.15,3.15,0,0,1-1.46-2.83A3.45,3.45,0,0,1,290.49,332.73Zm3.59.3a2.92,2.92,0,0,0-1.88.6,2,2,0,0,0-.75,1.65,2.08,2.08,0,0,0,1.64,2.16h2.56a2.08,2.08,0,0,0,1.64-2.16,2,2,0,0,0-.75-1.65,2.92,2.92,0,0,0-1.88-.6Z"/><path d="M297.11,324.33a2.86,2.86,0,0,0-.65-1l1.08-1.17a3.35,3.35,0,0,1,.95,1.35,5.28,5.28,0,0,1,.33,2,4.31,4.31,0,0,1-.81,2.88,3,3,0,0,1-2.45.94h-2.63a2.7,2.7,0,0,1-2.19-1,4.15,4.15,0,0,1-.8-2.69,4,4,0,0,1,.86-2.72,3.09,3.09,0,0,1,2.45-1,3.89,3.89,0,0,1,1.16.14,1.06,1.06,0,0,1,.6.52,2.72,2.72,0,0,1,.19,1.12v3.64h.36c1.16,0,1.74-.64,1.74-1.91A3.14,3.14,0,0,0,297.11,324.33ZM291.89,327a1.6,1.6,0,0,0,1.18.46h.78v-2.58a1.12,1.12,0,0,0-.17-.7.8.8,0,0,0-.61-.2,1.55,1.55,0,0,0-1.21.46,1.87,1.87,0,0,0-.42,1.31A1.73,1.73,0,0,0,291.89,327Z"/><path d="M290.69,313.42a3,3,0,0,1,2.15-.73h5.76v2H293a1.73,1.73,0,0,0-1.16.37,1.29,1.29,0,0,0-.43,1,1.77,1.77,0,0,0,.5,1.28,3.26,3.26,0,0,0,1.3.77h5.35v2h-6.21a1.42,1.42,0,0,0-.7.16,2.41,2.41,0,0,0-.61.6l-1.16-1.32a3.42,3.42,0,0,1,.66-.88,2,2,0,0,1,.84-.43,2.85,2.85,0,0,1-1.09-1.06,3.14,3.14,0,0,1-.41-1.62A2.78,2.78,0,0,1,290.69,313.42Z"/><path d="M291.67,308.5h4a1.81,1.81,0,0,0,1.11-.27,1,1,0,0,0,.34-.88v-1.3h1.52v1.3a3.44,3.44,0,0,1-.68,2.4,3.08,3.08,0,0,1-2.29.71h-7.06a1.32,1.32,0,0,0-.7.16,2.41,2.41,0,0,0-.61.6l-1.16-1.32a2.64,2.64,0,0,1,.95-1.1,3,3,0,0,1,1.48-.3h1.57v-2.45h1.53Z"/><path d="M290.37,298.2l1.66.51a2.61,2.61,0,0,0-.32.65,3,3,0,0,0-.09.77q0,1.39,2.07,2h4.91v2h-6.21a1.32,1.32,0,0,0-.7.16,2.41,2.41,0,0,0-.61.6l-1.16-1.32a3.07,3.07,0,0,1,.71-.94,2,2,0,0,1,1-.41,3.14,3.14,0,0,1-1.23-1,2.51,2.51,0,0,1-.45-1.5A2.45,2.45,0,0,1,290.37,298.2Z"/><path d="M297,289.4a2.17,2.17,0,0,0,.61-.61l1.13,1.31a2.76,2.76,0,0,1-.66.9,1.91,1.91,0,0,1-.85.43,3.17,3.17,0,0,1,1.13,1.08,3,3,0,0,1,.42,1.62,2.9,2.9,0,0,1-.77,2.15,3,3,0,0,1-2.19.75h-5.72v-2h5.56a1.6,1.6,0,0,0,1.16-.4,1.45,1.45,0,0,0,.43-1.11,1.66,1.66,0,0,0-.53-1.26,3.35,3.35,0,0,0-1.38-.78h-5.24v-2h6.19A1.36,1.36,0,0,0,297,289.4Z"/><path d="M298,281.43a3,3,0,0,1-2.43,1H293.2a3,3,0,0,1-2.42-1,4.22,4.22,0,0,1-.86-2.82,3.8,3.8,0,0,1,1.43-3.29l1.09,1.35a3.07,3.07,0,0,0-.76.87,2.26,2.26,0,0,0-.23,1.07,2,2,0,0,0,.46,1.37,1.71,1.71,0,0,0,1.29.48h2.34a1.7,1.7,0,0,0,1.3-.47,1.94,1.94,0,0,0,.45-1.38,2.46,2.46,0,0,0-.23-1.11,2.75,2.75,0,0,0-.75-.85l1.1-1.35a3.26,3.26,0,0,1,1,1.31,4.87,4.87,0,0,1,.36,2A4.27,4.27,0,0,1,298,281.43Z"/><path d="M298,273a3.07,3.07,0,0,1-2.45,1h-2.26a3.07,3.07,0,0,1-2.45-1,4.94,4.94,0,0,1,0-5.6,3.07,3.07,0,0,1,2.45-1h2.26a3.07,3.07,0,0,1,2.45,1,4.94,4.94,0,0,1,0,5.6Zm-1.12-4.15a1.76,1.76,0,0,0-1.33-.48h-2.26a1.76,1.76,0,0,0-1.33.48,2.21,2.21,0,0,0,0,2.7,1.76,1.76,0,0,0,1.33.48h2.26a1.76,1.76,0,0,0,1.33-.48,2.21,2.21,0,0,0,0-2.7Z"/><path d="M290.49,257.49a3.48,3.48,0,0,1,1.51-1.25,5.25,5.25,0,0,1,2.08-.41h.58a5.25,5.25,0,0,1,2.08.41,3.48,3.48,0,0,1,1.51,1.25,3.45,3.45,0,0,1,.57,2,3.73,3.73,0,0,1-.32,1.67,2.85,2.85,0,0,1-.89,1h4.93v2H292.39a1.29,1.29,0,0,0-.71.18,2.13,2.13,0,0,0-.6.58l-1.16-1.31a3.12,3.12,0,0,1,.64-.87,1.93,1.93,0,0,1,.82-.41,3.15,3.15,0,0,1-1.46-2.83A3.45,3.45,0,0,1,290.49,257.49Zm3.59.3a2.92,2.92,0,0,0-1.88.6,2,2,0,0,0-.75,1.65,2.08,2.08,0,0,0,1.64,2.16h2.56a2.08,2.08,0,0,0,1.64-2.16,2,2,0,0,0-.75-1.65,2.92,2.92,0,0,0-1.88-.6Z"/><path d="M288.4,253.55a1.1,1.1,0,0,1-.83.35,1.08,1.08,0,0,1-.82-.35,1.1,1.1,0,0,1-.35-.83,1.2,1.2,0,0,1,1.17-1.17,1.1,1.1,0,0,1,.83.35,1.08,1.08,0,0,1,.35.82A1.1,1.1,0,0,1,288.4,253.55Zm9.46-.16a2.91,2.91,0,0,1-1.47.32h-6.25v-2h6.21a1.32,1.32,0,0,0,.7-.16,2.34,2.34,0,0,0,.61-.59l1.16,1.29A2.69,2.69,0,0,1,297.86,253.39Z"/><path d="M288.4,248.8a1.1,1.1,0,0,1-.83.35,1.08,1.08,0,0,1-.82-.35,1.11,1.11,0,0,1-.35-.84,1.08,1.08,0,0,1,.35-.81,1.09,1.09,0,0,1,.82-.36,1.11,1.11,0,0,1,.83.36,1.08,1.08,0,0,1,.35.81A1.11,1.11,0,0,1,288.4,248.8Zm9.46-.16a2.92,2.92,0,0,1-1.47.31h-6.25v-2h6.21a1.32,1.32,0,0,0,.7-.16,2.52,2.52,0,0,0,.61-.59l1.16,1.29A2.69,2.69,0,0,1,297.86,248.64Z"/><path class="cls-2" d="M63.35,367.52c.77-1.57,4.83-3,8.05-4-1,.61-1.91,1.47-.4,1.91,2.22.63,7.08-.08,8.52-1.68a10.11,10.11,0,0,1,.66,4C80.17,369.2,62.09,370.06,63.35,367.52Z"/><path class="cls-5" d="M71,365.42c-1.51-.44-.56-1.3.4-1.91,2-.61,3.68-1.05,4-1.21A2.35,2.35,0,0,0,76.7,361l1-.21s-.65,1.4,1.23,2.09c.32.11.42.55.58.9C78.08,365.34,73.22,366.05,71,365.42Z"/><path class="cls-2" d="M128.89,371.36c.56-1.63-5.49-6.77-7.79-7.72.69.61,1.69,1.88.62,2.37-1.56.72-4.66-.4-5.71-2.05a15.8,15.8,0,0,0-.4,4.22C115.65,369.72,127.56,375.18,128.89,371.36Z"/><path class="cls-5" d="M123.52,367.41c1.06-.49-1.39-2.92-2.08-3.54a16.14,16.14,0,0,0-2.57-1.53A2.39,2.39,0,0,1,118,361l-1.18-.16a2.79,2.79,0,0,1-.37,2.19,4.26,4.26,0,0,0-.4,1C117.06,365.61,122,368.13,123.52,367.41Z"/><path class="cls-5" d="M94.24,177.27c-3.41.93,20.83-.2,27.52,81.76,1.87,22.9-.62,80.56-3.34,100.92-.37,2.82-1,4.31-1.64.86C115,351.22,99.48,290.09,96.29,274q-.8-4-1.83-8L80.93,214l4,62.69-7.2,85.07s-.76,2.21-1.52-1.3c-5.25-24.21-25.64-116.86-26.73-138.15-1.72-33.7,6.25-34.14,9.08-40.43C63,183.31,86.6,182.05,94.24,177.27Z"/><path class="cls-3" d="M59.49,181.39s20.92,2,37.93-1.23c0,0,18,5.53,24.51,80.76,0,0-21.22,24.56-61.36,26.08C60.57,287,32.71,196.78,59.49,181.39Z"/><path class="cls-6" d="M94,134.72s6,.8,14,13.42a53.57,53.57,0,0,1,8.32,30.06l-10.7-2.93s-4.62-24.36-13.21-32C88.05,139.37,94,134.72,94,134.72Z"/><path class="cls-2" d="M57.43,122.56c.43,3.51,3.43,15.53,24.75,14.92,0,0,16.74-1.8,20.32-11.25a1,1,0,0,0-.89-1.3c-2.3,0-7.11-1-10.33-8.18-4.36-9.75-7.47-18.89-16.45-9.56,0,0-5.91-3.28-8.86,5.29-2.76,8-3.53,9.91-7.73,9.29A.72.72,0,0,0,57.43,122.56Z"/><path class="cls-7" d="M57.66,163.14c.76,6.31,1.14,16.39,1.49,18.48,4.28.83,32.17,1.85,39.7-2.06,1.07-7.13,2.24-28.08-.62-35.45-2.16-5.59-1.36-7.63-3.86-9.32-2.73-1.85-4.75-1.71-12.34-1.93-25.32-.74-28.36,8.38-28.36,8.38S56.52,153.69,57.66,163.14Z"/><path class="cls-7" d="M59.49,144.33l-8.69,25s-9.65,15.58-13.11,6.16,8.24-31.62,20.5-38.62Z"/><path class="cls-7" d="M45.19,165.08,67.1,152.46a2.88,2.88,0,0,1,3.17.17c2.23,1.66,6,4.87,5.72,7.36-1.15,10-23.48,21.89-33.19,19.38C32.93,176.82,45.19,165.08,45.19,165.08Z"/><path class="cls-5" d="M77.75,124.31s1.33,9.22.88,10.27-2.17,2.48-3.28.2-.36-10.4-.36-10.4Z"/><path class="cls-8" d="M78.72,116.54s0,12.31-.21,14c-.16,1.5-2.14,2.68-3.18-.41s.37-13.72.37-13.72Z"/><path class="cls-5" d="M71,122.44c-.48-1.5.91-7.12.91-7.12,1-3.35,6.41-2.15,7.7-1.77a9.12,9.12,0,0,1,3.91,2.11c1.33,1.22,1,3.36.83,5s-1.1,4.39-2.27,5.57a7.39,7.39,0,0,1-5.24,1.52C72.49,127,71.43,125.64,71,122.44Z"/><path class="cls-7" d="M83.69,104a4.42,4.42,0,0,0-2.43-.51,5.87,5.87,0,0,0-2.32.79,16.3,16.3,0,0,0-3.8,3.24l-.21.22-.31-.14a5.64,5.64,0,0,0-3-.47A4.91,4.91,0,0,0,69,108.4,9.79,9.79,0,0,0,67.16,111c-.46,1-.81,2-1.2,3.05a30,30,0,0,1-2.78,6.15A5.28,5.28,0,0,1,62,121.44a3.64,3.64,0,0,1-1.67.58,6.86,6.86,0,0,1-1.7-.1c-.29,0-.54-.14-.78,0a.7.7,0,0,0-.38.65.75.75,0,0,1,.33-.75,1.27,1.27,0,0,1,.85-.1,6.81,6.81,0,0,0,1.63-.07,3.64,3.64,0,0,0,1.4-.63,4.84,4.84,0,0,0,1-1.2,17.74,17.74,0,0,0,1.32-3c.37-1,.73-2.09,1.08-3.14.67-2.08,1.47-4.39,3.23-6a5.74,5.74,0,0,1,3.26-1.51,6.3,6.3,0,0,1,3.51.68l-.52.08a16.42,16.42,0,0,1,4.17-3.12,5.88,5.88,0,0,1,2.56-.61A4.13,4.13,0,0,1,83.69,104Z"/><path class="cls-5" d="M73.35,153.16s2.24-2.33,3.18-2.5,1.52,1.77,1.52,1.77Z"/><path class="cls-9" d="M79.8,151.32l-1.65,1.18L71.33,143a1,1,0,0,1,.23-1.42h0a1,1,0,0,1,1.42.23Z"/><path class="cls-10" d="M71.93,141.34l-.83.59s-1.28-1.15-1.19-1.66a1,1,0,0,1,.83-.6C71.24,139.76,71.93,141.34,71.93,141.34Z"/><path class="cls-10" d="M74.33,147.2l-.51.37s-3.15-3.3-3.34-4.64c0-.16.51-.37.51-.37Z"/><path class="cls-5" d="M73.35,153.16a25.59,25.59,0,0,1,7.16-1.91c3.06-.14,3.32,1.41,2.49,2.46a4.51,4.51,0,0,1-1.06,3.8c-1.39,1.39-6.55.27-7.77-.18-.76-.28-2.33-1.36-2.32-2.5C71.85,154.17,73.35,153.16,73.35,153.16Z"/><path class="cls-6" d="M76,160a11,11,0,0,1-1.72,4.85,24.51,24.51,0,0,1-3.31,4A40,40,0,0,1,62.6,175,43.17,43.17,0,0,1,53,178.9c-3.31.87-6.89,1.45-10.23.47a15.4,15.4,0,0,0,5.07-.05,28.57,28.57,0,0,0,4.93-1.19A52.32,52.32,0,0,0,62.09,174a47.38,47.38,0,0,0,8.32-5.78,23.2,23.2,0,0,0,3.43-3.71A11.56,11.56,0,0,0,76,160Z"/><path class="cls-6" d="M45.19,165.08c2-1.38,4-2.66,6-3.92s4.08-2.48,6.14-3.69,4.15-2.36,6.27-3.47l3.18-1.66a3,3,0,0,1,3.49.29,2.86,2.86,0,0,0-3.24.16l-3,1.91c-2,1.28-4.08,2.48-6.14,3.68s-4.15,2.36-6.27,3.47S47.37,164.07,45.19,165.08Z"/><path class="cls-11" d="M79.93,182.32s11.59-1,17.49-2.16c0,0,18,5.53,24.51,80.76a75.92,75.92,0,0,1-13.08,10.84,132.55,132.55,0,0,1-15.34,8.14s7.52-32.51,3.9-59.44C94.36,197.77,79.93,182.32,79.93,182.32Z"/><path class="cls-6" d="M79.93,182.32s15.58,0,18.92-2.76c1.07-7.13,2.24-28.08-.62-35.45-2.16-5.59-1.36-7.63-3.86-9.32C91.64,132.94,82,132.86,82,132.86s7.15,8.77,6.82,17.79C88.3,165.29,79.93,182.32,79.93,182.32Z"/><polygon class="cls-8" points="85.94 141.15 79.93 172.87 99.72 174 106.44 142.83 85.94 141.15"/><path class="cls-6" d="M88.68,175.67c1.67,7.56,16.22,9.33,19.7,9.69,6.65.7,8.6-4.81,8.64-8.92,0-1.25-1.32-9.22-2.08-9.91-2.47-2.27-6.25,3-9.48,1.85C95.42,164.74,85.61,161.73,88.68,175.67Z"/><path class="cls-5" d="M92.07,169.33a1,1,0,0,0,.14-.84,23,23,0,0,0-1.54-4.23c-.72-1.15-4-3.43-4.75-3.23s.6,1.6.6,1.6-1.37-1.59-2.17-1.09A1.17,1.17,0,0,0,84,163a17.18,17.18,0,0,0,.73,2.49A13.09,13.09,0,0,0,86.3,168,10.41,10.41,0,0,0,88,169.07a17.88,17.88,0,0,0,3.13,1.55A6.85,6.85,0,0,0,92.07,169.33Z"/></g></g></svg>