<svg xmlns="http://www.w3.org/2000/svg" xmlns:xlink="http://www.w3.org/1999/xlink" width="370" height="510" viewBox="0 0 370 510"><defs><style>.cls-1,.cls-11{fill:none;}.cls-2{fill:#cde5c0;}.cls-3{fill:#c5e3e2;}.cls-4{fill:#e2f1f0;}.cls-5{fill:#8cc8c5;}.cls-6{fill:#a9d6d3;}.cls-7{fill:#fff;}.cls-8{fill:#6fbab6;}.cls-9{fill:#968584;}.cls-10{fill:url(#linear-gradient);}.cls-11{stroke:#968584;stroke-miterlimit:10;stroke-width:3px;}</style><linearGradient id="linear-gradient" x1="53.59" y1="359.08" x2="315.68" y2="359.08" gradientUnits="userSpaceOnUse"><stop offset="0" stop-color="#fff"/><stop offset="1" stop-color="#6fbab6"/></linearGradient></defs><title>infografic_centre_servicii_sociale_03</title><g id="Layer_2" data-name="Layer 2"><g id="Layer_1-2" data-name="Layer 1"><rect class="cls-1" width="370" height="510"/><path class="cls-2" d="M364.88,217.32l-.24-.39a13.31,13.31,0,0,0-6.86-5.89,13.54,13.54,0,0,0-4.35-.7,18.24,18.24,0,0,0-4.14.5c-6.16,1.42-12.22,5.61-15.44,8.12a6.56,6.56,0,0,1-1.18-.49l-.69-.33a3.29,3.29,0,0,0-1.26-.25,5.89,5.89,0,0,0-.67.05l-1.24.14,0,1.25a4.63,4.63,0,0,1-.7,2.67,3.23,3.23,0,0,1-2.69,1.19l-.42,0c-1.11-.44-2.25-.84-3.38-1.24a43.86,43.86,0,0,1-6.2-2.52,12.17,12.17,0,0,1-5.88-6.31l-.26-.62.14-.15-.38-.45-.24-.59-.15.13-.07-.07c-.65-.77-1.27-1.56-1.88-2.34a31.86,31.86,0,0,0-4.51-5,10.27,10.27,0,0,1,1.17-.77c.26-.15.51-.3.73-.45a3.67,3.67,0,0,0,1.76-2.19h1.26l-1.45-2.21c-2.38-3.63-2.68-7.6-2.77-11.05,0-.61,0-1.23,0-1.84a35.59,35.59,0,0,0-1.14-9.89l.19-.31a5.17,5.17,0,0,0,.75-2.35,3.16,3.16,0,0,0-1-2.48,34.45,34.45,0,0,0,4.42-8.57c1.21-3.87,1-7.2-.73-10.2,1.77-5.66-1-12.38-4.63-16.65l0,0v0a9.2,9.2,0,0,0,.19-4.86,5.61,5.61,0,0,0-2.29-3,19.15,19.15,0,0,0-2.17-1.3,16.39,16.39,0,0,1-4.52-3.27c-2.36-2.6-3.69-5.42-5.09-9.13l-.2-.53-.51-.25a9,9,0,0,1-4.14-4.17,29.69,29.69,0,0,1-1.72-4.67l-.56-1.78-.66-.24c-1.56-.57-2.57-1.91-3.61-3.43-1.16-1.69-2.26-3.26-3.78-4.06l-.38-.91c-.82-2-1.61-4-2.4-6.06-4.09-10.57-8.31-21.5-18.06-27.51l-.53-.32-.59.16a28.49,28.49,0,0,1-3.77.62c-.58.07-1.16.14-1.72.23a10.77,10.77,0,0,0-5.63,2.25,7.06,7.06,0,0,0-1.75-.24,4.82,4.82,0,0,0-2.92,1,11.4,11.4,0,0,0-2.93,3.85c-.25.47-.49.95-.74,1.45-1.18,2.36-2.41,4.81-4.6,6l-.3.16h-.14c-.43,0-.86-.06-1.3-.06h-.21a34.81,34.81,0,0,0-9.37,2c-.94.3-1.9.6-2.88.88a10.71,10.71,0,0,0-4-.73,20.81,20.81,0,0,0-4.21.51l-1.63.36a29.27,29.27,0,0,1-6,.94H195l-.39.31a22.4,22.4,0,0,0-4,4.68c-.28.42-.57.83-.87,1.25a10.48,10.48,0,0,1-5,4.22l-.7.24h-.72l-.84,0a4.23,4.23,0,0,1-1-.13c-1.93-3-4.6-5.27-7.43-7.67a63.66,63.66,0,0,1-5.39-5l-.3-.32-.43-.1a6.93,6.93,0,0,0-1.54-.16,20.25,20.25,0,0,0-6.19,1.42l-1.62.53a12,12,0,0,1-3.47.7,5.62,5.62,0,0,1-.7,0,4.6,4.6,0,0,1-3.11-2.12l-.1-.15-.15-.12a4,4,0,0,0-2.73-1,10.37,10.37,0,0,0-2.5.41l-.23.06a11.92,11.92,0,0,1-2.12.44l-.38,0a3,3,0,0,1-1.54-.39,5.77,5.77,0,0,0-4.19-1.8l-1.32-.1c-.48,0-1-.06-1.47-.11l-1.06-.11,0,0-.57-.15-.19-.1h-.29c-3.69-.18-7.07-1.92-10-5.18l-.4-.44-.6,0a3.07,3.07,0,0,1-1.43-.37l-.78-.47-.76.52c-1.29.89-2.67,1.73-4,2.55-4.57,2.8-9.29,5.69-11.46,10.75-2.4.24-4,1.72-5.75,3.27l-.46.42a1.88,1.88,0,0,1-.53.07,3.65,3.65,0,0,1-1.55-.43L94,83.8c-.45-.23-.86-.43-1.25-.6l-1-.4-.68.8a6.15,6.15,0,0,1-2.24,1.61c-.73.33-1.51.61-2.27.88-.56.2-1.11.39-1.64.6a9.27,9.27,0,0,0-3.56,2.21,5.24,5.24,0,0,0-1.29,3.84A7.92,7.92,0,0,0,74.8,97.5a18.62,18.62,0,0,0-1.47,7.15A15.87,15.87,0,0,0,68,109.51a32.74,32.74,0,0,1-2.28,2.63l-.51.52.12.72A8.64,8.64,0,0,1,64,118.74a15.15,15.15,0,0,1-4,4.56l-.52.4,0,.66c-.17,3-1.87,5.29-3.51,7.54l-.66.91c-1.94,2.74-3.59,5.54-2.67,9.59A9.11,9.11,0,0,0,46,146.89a10.63,10.63,0,0,0-1.47,8.47,2.16,2.16,0,0,1-.46,1.27,3.17,3.17,0,0,1-1.21.86,12.69,12.69,0,0,1-2.17.69l-.75.19-1,.28,0,1.06a5.48,5.48,0,0,1-.66,2.47A20.2,20.2,0,0,1,37.05,164l-.58.88-.43.16c-.49.19-1.1.43-1.92.67a18.29,18.29,0,0,0-4.94-2,8.71,8.71,0,0,0-1.83-.21,5.48,5.48,0,0,0-3.41,1.09l-.37.29-.14.46a8.77,8.77,0,0,0-.41,2.54l0,.33a19.13,19.13,0,0,0-3.28,1.59,12.67,12.67,0,0,0-6.67-1.54c-1.36,0-2.75.11-4.06.24l-.56.05L8.1,169c-.34.38-.72.79-1.25,1.35l-.33.36,0,.49a9,9,0,0,0,3,8c.91.91,2,1.81,3.21,2.77a59,59,0,0,1,4.67,4.07,8.85,8.85,0,0,1,1.45,2.37l.22.43c.22.46.42.87.59,1.19a6.19,6.19,0,0,0,.33.54l.2.28.27.16c3,1.86,4.38,4.62,4.11,8.42a37.19,37.19,0,0,1-.65,4.43,22.56,22.56,0,0,0-.54,4.54l0,.49.31.37a40.84,40.84,0,0,0,9.75,8.66l.32.2.37,0c2.71.11,4.79,1.49,6.7,2.9l.42.32c2,1.48,4.06,3,6.76,3.6a9.29,9.29,0,0,0,1.5,3.08,5,5,0,0,1,.11,1.29v.08a9.45,9.45,0,0,1-2,1.89l-.38.3a7.7,7.7,0,0,0-2.07,2.32l-.46.81.57.75a13,13,0,0,0,2.3,2.09,3.8,3.8,0,0,1,1.73,2.57,6.57,6.57,0,0,1-.41.86,2.45,2.45,0,0,1-1.22.26c-.29,0-.56,0-.82,0l-.44,0-.54,0a4,4,0,0,0-1,.11,2.48,2.48,0,0,0-1.24.75l-.26.28-.1.36c0,.19-.1.42-.13.67l-.06.45.22.4a12.35,12.35,0,0,0,2.12,2.44l.47.44.64-.05c.31,0,.62-.05.93-.05A6.17,6.17,0,0,1,51.07,248a5,5,0,0,1,1.82,4.08v1l.93.33a25.66,25.66,0,0,0,6,1.07c.73.07,1.47.15,2.22.25,2.48.31,5.25.95,6.93,3.18l0,.13-.19.51v.21a4.3,4.3,0,0,0,1.09,2.8A7.93,7.93,0,0,1,71,263.52l.16.45.4.26a2.92,2.92,0,0,0,1.64.43,3.77,3.77,0,0,0,.47,0l.95-.09.28-.91c1.43-4.63,5.37-7.52,9.19-10.31.63-.46,1.26-.92,1.86-1.38a1.52,1.52,0,0,1,.59-.12,2.26,2.26,0,0,1,.39.52l0,.05c.85,2.09,3,3.45,5,4.77l.63.41a9.71,9.71,0,0,1,2.57,2.12,3.47,3.47,0,0,1,.67,2.6,1.9,1.9,0,0,1-1.11.48l-.5,0c-.32,0-.63,0-1-.06A10.12,10.12,0,0,0,91,261.34a3.1,3.1,0,0,0-1.12-.24l-.26,0-.13,0a2.12,2.12,0,0,0-1.12.66l-.45.44v.62c0,.55-.09.71-.1.72a2,2,0,0,1-.82.56l-.46.18a8.24,8.24,0,0,0-.87.4,2,2,0,0,0-.66.61l-.65.75.47.87c4.83,9,11.61,16,19.61,20.2l.38.2a2.12,2.12,0,0,1-.34,2.13,12.71,12.71,0,0,1-2.15,2l-.49.4a12.25,12.25,0,0,0-2.87,3,5.3,5.3,0,0,0-.47,4.45l0,.11.05.1a6.79,6.79,0,0,0,2.17,2.36h0l.49.54.3.13a3.55,3.55,0,0,0,1.36.27,4.81,4.81,0,0,0,1.14-.16c.31-.08.64-.19,1-.31s.63-.21,1-.29a6.72,6.72,0,0,0,4.07,1.47,9.28,9.28,0,0,0,3.55-.88l.81-.35a11.6,11.6,0,0,1,4.7-1.31,7,7,0,0,1,1.63.2,1,1,0,0,1,.26.09l.32.12c.34.13.78.26,1.27.4a10.74,10.74,0,0,0,2.84.42l.6,0c3.44,2.31,7.44,3.25,11.24,4l1.4.28a41,41,0,0,1,9.34,2.63l.34.15.33.32a10.64,10.64,0,0,0,.91.8l.47.4.37.07a10.14,10.14,0,0,0,1.74.15,16.12,16.12,0,0,0,6.48-1.73l.78-.35a17.53,17.53,0,0,1,6.94-2,9.44,9.44,0,0,1,1.19.79c.21.16.42.31.62.44a4.66,4.66,0,0,0,1.74.77l.94.18.15.07a9,9,0,0,0,3.93.81,26.7,26.7,0,0,0,4.26-.47l.27,0a19.84,19.84,0,0,1,3.14-.34,7.69,7.69,0,0,1,.83,0,5.25,5.25,0,0,1,2.92,1.32l.54.47.7-.16a8.26,8.26,0,0,1,1.77-.19,10.18,10.18,0,0,1,4.89,1.4l1.41.78a20.25,20.25,0,0,0,5.3,2.31l.51.11.46-.24a25.34,25.34,0,0,1,3.55-1.43l1.24-.44a10.53,10.53,0,0,0,4.54-2.9l0,0,.07,0a5.57,5.57,0,0,0,1.54.24h0a4.18,4.18,0,0,0,1.28-.2,5.89,5.89,0,0,0,2.45-1.77,27.1,27.1,0,0,0,2.07-2.76c.69-1,1.48-2.16,2.4-3.28l1.06-1.29c2.55-3.15,4-4.89,8.36-6.72a10.87,10.87,0,0,0,1.41-.79c.58-.35,1.27-.77,2-1.19a11.81,11.81,0,0,1,3.62-1.44h.07l0,.07h.94a20.94,20.94,0,0,0,3.17.23,33.92,33.92,0,0,0,12.13-2.7l3-1.17a50.77,50.77,0,0,1,11.61-3.6c.73.32,1.41.67,2.09,1l1.48.74.12.05.87,1.17a13.81,13.81,0,0,0,10.74,5.26,11.1,11.1,0,0,0,4-.73,5.79,5.79,0,0,0,5.4,3.32h.22a8.65,8.65,0,0,0,5.72-2.24,14.75,14.75,0,0,1,1.13,2.72c.23.67.46,1.36.74,2,.84,2,2.16,4.43,5,5.5l.2.08h.61a6.72,6.72,0,0,0,.85,0l.22,0a3.9,3.9,0,0,1,.5,0,.86.86,0,0,1,.41.08c3.3,1.47,8.24,3.23,13,3.23a14.62,14.62,0,0,0,4.88-.76l.64-.22.23-.62a59,59,0,0,0,2.5-9.8,43,43,0,0,0,.65-5.71,12.22,12.22,0,0,0-.53-4.37,8.07,8.07,0,0,0-3.31-4.27,18.38,18.38,0,0,1-.2-4c0-.73,0-1.45,0-2.13,3-2.3,4-5.48,4.84-8l.13-.4c.8-2.49,1.63-5.06,3.62-7.1h0l.2.19.95-1.2a11.63,11.63,0,0,0,1.78-4.12,7.19,7.19,0,0,1,2-3.85,41.37,41.37,0,0,1,9.23-2.91c1-.22,1.94-.45,2.89-.69,3.95-1,8-2.38,11.14-5.63l.41-.43v-.59c-.15-6.55.79-10.66,1.25-17.39Z"/><path class="cls-3" d="M147.07,117.61c.82,2.34,3.19,4.57,6.32,6l.31.13.06.31c.16.92.46,1.54.57,2.3v0a5,5,0,0,1-1.2,3.21,5.59,5.59,0,0,0-.62,1.17,1.53,1.53,0,0,0,0,1c.78,1.12,2,2.26,2.85,3.57a4.79,4.79,0,0,1,.62,4.49,11.94,11.94,0,0,0,8.32,2.35c1.48-2,2.33-5,3.67-7.64a9.64,9.64,0,0,1,2.78-3.44,7.18,7.18,0,0,1,4.35-1.3c1.71-4.47,5.67-6.93,9.43-9.09a.76.76,0,0,1,.13-.29c.31-4.17.37-8.18-1.69-11.81l-.15-.23.05-.26a5.54,5.54,0,0,1,.7-1.71l.18-.31.36-.06a1.68,1.68,0,0,0,1.43-1.16,9.49,9.49,0,0,0,.62-3c.1-1.17.12-2.44.18-3.6,0-.25,0-.47,0-.7a6.54,6.54,0,0,1-2.23,1.24,13.77,13.77,0,0,1-4.79.52c-3.32-.09-6.77-.63-9,.13l-.37.13-.28-.23a7.92,7.92,0,0,0-5-2.1h0c-.22,0-.45,0-.67,0a10.58,10.58,0,0,0-5.21,2.18c-3.29,2.35-6.4,6.08-9.48,8.42a7.67,7.67,0,0,1,.75,1.81l.08.39-.31.23C146.82,112.8,146.25,115.28,147.07,117.61Z"/><path class="cls-4" d="M215.05,110.85c0,4.3-2.52,7.83-4.87,10.94,2.95,3,4.21,7.51,6.14,10.2l.57.8-.94.26a8.34,8.34,0,0,0-2.3.7c2,5.3,2.83,11,5.21,16.3a3.25,3.25,0,0,0,1.78,0c.62-.15,1.28-.41,2-.6,0,0,0-.05,0-.07l.06-.16.13-.13c2.78-2.56,6.06-3.32,9.32-3.76s6.54-.57,9.61-1.73a3.83,3.83,0,0,0,1.58-1.4,5.13,5.13,0,0,1,2.15-1.84c3-1.12,7.06-.8,10.13-1.92l.36-.13.32.24a8.62,8.62,0,0,0,4.32,1.45c1.32.17,2.72.26,4.12.57a23.21,23.21,0,0,1,1-6.06c-.63-.61-1.55-1.2-2.41-1.92a4.43,4.43,0,0,1-1.94-3.52l0-.37.32-.2a11.7,11.7,0,0,0,2.12-1.56,2.2,2.2,0,0,0,.6-.85c0-.1,0,0-.13-.13a2.53,2.53,0,0,0-1-.29,10.86,10.86,0,0,0-7.23,2.26l-.21.18h-.26a3,3,0,0,1-2.51-1.5c-.42-.68-.7-1.35-1-1.84a8.28,8.28,0,0,1-6.74-4.15,56.43,56.43,0,0,1-3.52-7.41c-4.29-1.82-6.88-2.65-11.19-2.48a15.29,15.29,0,0,0-2.93.8,3.76,3.76,0,0,1-3.16-.55,26.62,26.62,0,0,1-4,1.33,4.15,4.15,0,0,1-2.28-.19,3.85,3.85,0,0,1-1.66-1.5,3.05,3.05,0,0,0-.52,0h0A3,3,0,0,0,215.05,110.85Z"/><path class="cls-5" d="M117.15,109.4l-.13.08a6.11,6.11,0,0,1-5.78-.36,26.25,26.25,0,0,1-4.11-2.88,6.92,6.92,0,0,0-1.95.39,7.29,7.29,0,0,1-2.28.41,19.26,19.26,0,0,1-6,9.12c-.17.83-.38,1.44-.46,1.87a16.72,16.72,0,0,0,4.32,4.48,20,20,0,0,1,4.48,4.33,4.22,4.22,0,0,1,3.22,1.11,7.15,7.15,0,0,1,1.68,2.69,7.17,7.17,0,0,0,2.36.6,9.46,9.46,0,0,1,2.74.7,4.53,4.53,0,0,0,2.91-1.06,9.89,9.89,0,0,1,3.21-1.84l.36-.11.29.26a4.54,4.54,0,0,0,4.94.55c.89-1.67,2.76-2.55,4-3.47a3.27,3.27,0,0,0,1.24-1.48,2.45,2.45,0,0,0-.52-2.1l-.18-.31.13-.34a9.49,9.49,0,0,1,4.46-4.76c1.73-1,3.6-1.66,5.28-2.49a7.93,7.93,0,0,0-.13-3.55l-.36-.18-.1,0v0a3.29,3.29,0,0,1-1.66-1.71c-.31-.58-.52-.89-1-1a22.24,22.24,0,0,1-7.64-.42c-2.52-.41-4.85-.67-7.23.29l-.42.15-.33-.28a13.75,13.75,0,0,0-2.59-2,2.21,2.21,0,0,0-.86-.26h0a2.3,2.3,0,0,0-.26,0,1.91,1.91,0,0,0-1.06.59l-.08.24a3.16,3.16,0,0,1-.38,2.74Z"/><path class="cls-3" d="M273.52,220.07a6.67,6.67,0,0,0,.62-2.18,2.51,2.51,0,0,0-.68-1.81c-5-.72-8.44-3.39-13.52-4.14l-.49-.08-.1-.49a2.71,2.71,0,0,0-1.84-2.18,4,4,0,0,0-3,.31l-.65.34-.34-.68a4.72,4.72,0,0,0-3.16-2.59,17.6,17.6,0,0,0-4.64-.44l-.26,0-.2-.16c-2.25-1.8-3.2-4.37-4.17-6.71-.87-2.09-1.73-4-3.34-5.23h0a15.16,15.16,0,0,0-3,8.34v.54l-.52.19a12.85,12.85,0,0,0-3.14,2.17,5.64,5.64,0,0,1-3.49,1.35c0,.57-.06,1.19-.13,1.84a5.35,5.35,0,0,1-.78,2.38c3.19,4.61,4.58,9.82,6.24,15.29,2.29,1.42,3.8,3.15,6.14,3.62l.73.16-.18.72a2.6,2.6,0,0,0,.54,2.49,11.75,11.75,0,0,0,2.31,2,7.86,7.86,0,0,1,2.4,2.3,3.8,3.8,0,0,1,0,3.37c.4,1.46,1.24,2.85,1.84,4.51a.12.12,0,0,1,.05.05v0l.05,0v0l0,.05,0,.07a3.82,3.82,0,0,0,2.41,2.1,9.22,9.22,0,0,0,3.47.08c2.46-.29,5.38-.83,7.88.8a5.88,5.88,0,0,1,4.89.08,8.79,8.79,0,0,0,3.4.93,44.73,44.73,0,0,1-.24-8.62c0-3-.19-5.8-1.76-8.47a3,3,0,0,0-2-.37,5.36,5.36,0,0,1-1.51-.13,2.57,2.57,0,0,1-1.47-1l-.05-.07,0-.11a5.75,5.75,0,0,1-.26-1.34l0-.16.07-.18a5.56,5.56,0,0,1,5.47-3.89,55.34,55.34,0,0,1,5.72.57l.19-.31a4.64,4.64,0,0,1-.47-2.69A11.64,11.64,0,0,1,273.52,220.07Z"/><path class="cls-6" d="M278,176a9.31,9.31,0,0,0-.08-2.25,11.86,11.86,0,0,0-1.24-.34,2.8,2.8,0,0,0-.36-.05h0a1,1,0,0,0-.86.49l-.23.34-.41-.13c-2.87-.81-5.66.26-8.32,1.71s-5.07,3.29-7.33,3.76c-2.06.42-4.43-.15-6.68-.24s-4.3.22-5.94,2.18l-.13.15-.18,0a8.18,8.18,0,0,1-4.51-.47,4.78,4.78,0,0,0-3.31-.07v0c-1.71,3.5-.46,7.41-.16,11.53,2.2,1.52,3.25,3.86,4.17,6.09s1.84,4.48,3.6,6a17.44,17.44,0,0,1,4.75.52A6.46,6.46,0,0,1,254.4,208a5.19,5.19,0,0,1,3.57-.2,4.23,4.23,0,0,1,2.54,2.77c5.22.87,8.66,3.4,13.08,4.07a8.68,8.68,0,0,1,3.63-2.83,12.89,12.89,0,0,0,3.65-2.33s0-.09,0-.13l0-.05v0c-.16-1.58-.7-3.19-1-4.94-3.87-2.19-5.87-5.81-7.35-9.62s-2.59-8-4.67-11.19l-.2-.31.18-.33A14.49,14.49,0,0,1,278,176Z"/><path class="cls-4" d="M301.23,258.93a2.78,2.78,0,0,0,.21-1.22,3,3,0,0,0-1.29-1.19c-.67-.37-1.49-.68-2.28-1.06a5,5,0,0,1-2.08-1.61,3.38,3.38,0,0,1-.25-3l.07-.22c-1.52-.59-4-1.76-4.48-1.65a2.34,2.34,0,0,0-1.58,1.06l-.26.39-.44-.15A39.67,39.67,0,0,0,279.4,248c-3.21-.23-6.23.35-8.76,2.74l-.28.26-.34-.13,0,0c-1.95.48-3.57-.33-5-.88s-2.52-.9-4,0l-.44.26-.39-.34c-2-1.55-4.52-1-7.23-.72a10.27,10.27,0,0,1-4.06-.11,5.31,5.31,0,0,1-3-2.25c-2.36,1.44-4.78,3-8,2.82a4.75,4.75,0,0,1-1.48,2,14.7,14.7,0,0,0-1.45,1.14,3.28,3.28,0,0,1,.72,2.69,26.53,26.53,0,0,1-.8,2.72,7.84,7.84,0,0,0,3.24,4,10.89,10.89,0,0,1,6.09-.7l.2.05.16.16a10.91,10.91,0,0,1,1.76,3.86,5.56,5.56,0,0,0,5.13-.8c1.7-1,3.32-2.55,5.23-3.32l.57-.23.29.54c.31.62.56.82.8.91a1.56,1.56,0,0,0,1-.05,16,16,0,0,1,3.34-1.25l.33,0,.24.23a11,11,0,0,0,12.9,2.41l.34-.16.31.19a6.35,6.35,0,0,1,1.55,1.26,12.72,12.72,0,0,1,3.52-.23,14,14,0,0,0,3.58-.15l.15,0,.16.05a6.68,6.68,0,0,1,1.11.42l.18.1.08.16c3,5,8.15,6.48,13.84,7.3a12.86,12.86,0,0,0,2.48-6,6.33,6.33,0,0,0-2.54-5.65l-.31-.23.08-.39A10.5,10.5,0,0,1,301.23,258.93Z"/><path class="cls-7" d="M222.53,271.26a3.4,3.4,0,0,0,.78,2.33c3.36,1.41,5.71,1.37,9.56,1a28.34,28.34,0,0,1,1.89-4.15,6.28,6.28,0,0,1,4.38-2.87,3.42,3.42,0,0,0,.78-1.45,2.93,2.93,0,0,0-.81-1.3,7.59,7.59,0,0,1-1.14-1.4l-.07,0h-.16l-.15-.08a9,9,0,0,1-4-4.9l-.06-.18.06-.16c.26-1.12.72-2.07.85-2.84a1.77,1.77,0,0,0-.52-1.82h-.08l0,0h0l0,0-.08,0a16.3,16.3,0,0,0-5.59-.75h0c-1.85,0-3.78.21-5.78.29a31.21,31.21,0,0,0-1.61,9.3,4.17,4.17,0,0,1,2.28,2.61,7.44,7.44,0,0,1-.05,3.32A20.47,20.47,0,0,0,222.53,271.26Z"/><path class="cls-4" d="M299.06,217.19a14.18,14.18,0,0,1-9.35-1.29,44.61,44.61,0,0,1-8.14-5.44h0a14.19,14.19,0,0,1-3.83,2.41,7.68,7.68,0,0,0-3.14,2.38v0a4,4,0,0,1,1,2.67,7.54,7.54,0,0,1-.72,2.66A11.46,11.46,0,0,0,274,223a3.07,3.07,0,0,0,.44,2.2l.21.39-.21.36c-.17.3-.35.58-.54.93l-.23.39h-.42c-2-.06-4.25-.67-6.08-.62a4.46,4.46,0,0,0-2.39.62,4.67,4.67,0,0,0-1.71,2.23,5.24,5.24,0,0,0,.13.72,1,1,0,0,0,.6.39,4.05,4.05,0,0,0,1.11.08,4,4,0,0,1,3.06.78l.08.07.05.08c1.83,3.05,2.05,6.24,2,9.35a43.89,43.89,0,0,0,.26,8.53,12.4,12.4,0,0,1,9.09-2.67,39.29,39.29,0,0,1,9.4,2.25,3.79,3.79,0,0,1,2-1.22c.88-.19,5.05,1.92,5.87,2h0l.05,0,.16,0c2-.46,4-1.3,6.14-1.77-.06-2.65,1.16-4.86,1.58-7-1.19-2.59-.36-5.33.1-7.7a9,9,0,0,0,.18-3.34,4.16,4.16,0,0,0-1.81-2.74l-.24-.16-.05-.26a14.17,14.17,0,0,1-.1-2.59,2.25,2.25,0,0,0-1.79-.44,6.16,6.16,0,0,1-3.06-.23l-.28-.13-.08-.29a4.94,4.94,0,0,1,.73-3.65A5.56,5.56,0,0,0,299.06,217.19Z"/><path class="cls-4" d="M99.79,213.67l-.18.13c-.8.58-1.64.91-2.17,1.27.12,1.14.59,2.39.75,3.81,3.57-.37,6.67.92,9.56,2.49,4.48-2.28,9.32-2.29,13.86-2.52s8.7-.71,12.17-3.75a5.08,5.08,0,0,0-.39-1.3,4.1,4.1,0,0,1-.31-1.79.91.91,0,0,1,0-1,14.56,14.56,0,0,0-3.31-4.69,20,20,0,0,1-4.15-5.25c-2.24-4.93-1.77-11.32-3.44-16.09a9.22,9.22,0,0,0-1.37-2.07,4.67,4.67,0,0,1-.86-2.47c-1.68-.22-3.55.25-5.67-.51l-.16-.06-.1-.12c-.48-.56-1.72-1.15-2.31-2.49l-.13-.26.16-.29a3.69,3.69,0,0,0,.34-2.61,10,10,0,0,0-1.17-2.72c-1-1.83-2.45-3.81-2.56-6.17a5,5,0,0,1-.45-.7,3.12,3.12,0,0,0-.64-.28,5.52,5.52,0,0,1-4.46-.18h0a4.46,4.46,0,0,1-1.79,1.81,26,26,0,0,0-2.44,1.32c-7.37,5.49-8.94,10-11.45,17.54A12.2,12.2,0,0,0,92,189.14l.13.05.08.1a4.07,4.07,0,0,1,1,3.22A7.92,7.92,0,0,1,92,195.38c-1,1.69-2.08,3.24-2,4.79A19.82,19.82,0,0,1,97.28,205c2.13,2.32,3.48,5.28,2.57,8.45Z"/><path class="cls-4" d="M170.34,250.2a6.64,6.64,0,0,0,1.45.36,4,4,0,0,1,2.35,1l.21.18,0,.29c.59,5.64.12,12.27,2,16.94a8.69,8.69,0,0,1,4.92.62c4.91-1.34,10.27-2.43,14.87-4.26a1.13,1.13,0,0,1,0-.26c0-6.42-4.35-15.19-4.25-22.53-2.2-1.19-3-3.23-3.39-5.2s-.7-4.13-1.92-5.6l-.21-.23.05-.31c.11-.56.28-1.15.44-1.84L187,229l.26-.13a3.42,3.42,0,0,1,2.33-.62h.05l0,0A13.37,13.37,0,0,1,191,229a2,2,0,0,0,.8.21c3.08-3.28,3.26-8.47,3.71-13.16a.69.69,0,0,1-.05-.13,5.5,5.5,0,0,0-2.44-2l-.36-.18,0-.44c-.23-4.67-2.85-7.2-6.5-8.58a21.2,21.2,0,0,0-7.59-1.16h0a29.89,29.89,0,0,0-4.07.36,4,4,0,0,1-2.92,2.38,19.62,19.62,0,0,1-3.16.29c-1.71,5.71-1.38,11.84-1.25,18s.06,12.63-2.79,18.55a.43.43,0,0,0,0,.11c.17.47.22.44.47.46a4.67,4.67,0,0,0,1.34-.31,7.3,7.3,0,0,1,2-.44,2.61,2.61,0,0,1,2.15.93,3.29,3.29,0,0,1,.78,2,5.55,5.55,0,0,1-.31,1.82A5.77,5.77,0,0,0,170.34,250.2Z"/><path class="cls-5" d="M99.07,228.33c3.37,2.48,5,6,5.88,9.61s1.22,7.31,2,10.6A31.09,31.09,0,0,1,111,252a6,6,0,0,0,4.74,1.68l.46,0,.21.44a3.74,3.74,0,0,0,.47.73c3.62.73,6.08,3.45,8.86,5h.08a8.82,8.82,0,0,0,7.15-2.7,64,64,0,0,0,5.1-6,.76.76,0,0,1,.13-.23l.08-.13a17,17,0,0,0,1.21-2.12c-2.51-5.11-1.55-9.73.06-14.07s3.76-8.59,3.75-13.18c-.49-.52-.89-1.09-1.27-1.46a32,32,0,0,1-7.35-3.62h-.06c-3.83,3.3-8.41,3.81-13,4-4.72.24-9.43.24-13.61,2.49l-.36.18-.33-.18c-3-1.67-6-2.92-9.49-2.41a10.64,10.64,0,0,1-2.28,2.43,4,4,0,0,0-1.55,2.62,2.72,2.72,0,0,0,1.61,1.81c.75.38,1.69.65,2.56,1l.16,0,.07,0,.31-.1Z"/><path class="cls-5" d="M100.81,160.51a3.9,3.9,0,0,0,.72.47,5.45,5.45,0,0,1,1,.7,2.56,2.56,0,0,1,.73,1.14A4,4,0,0,0,107,163l.18-.1.24,0a4.45,4.45,0,0,1,1.24.49l.18.11.08.21a3.3,3.3,0,0,0,.57.82l.15.19V165c0,1.94,1.29,3.78,2.41,5.75a10.86,10.86,0,0,1,1.3,3.11,5.21,5.21,0,0,1-.31,3.06,12.84,12.84,0,0,0,1.81,1.83c1.78.6,3.66,0,5.83.47l.57.13-.08.6a2.85,2.85,0,0,0,.7,2.22,9.46,9.46,0,0,1,1.56,2.41c1.8,5.16,1.36,11.52,3.39,16a19.05,19.05,0,0,0,3.89,4.89,15.62,15.62,0,0,1,3.62,5.16,1.13,1.13,0,0,0,.39-.21l-.05-.08,0-.1c-.39-2.25.36-4.32.83-6.24-1.75-6.41.77-11.86,4.69-16.45s9.2-8.42,13.21-11.87c.24-2.77,1.78-4.87,2.67-7.12v0c-1.52-1.49-3.31-2.81-4.74-4.45a8.31,8.31,0,0,1-2.18-6.19c-.32-.12-.65-.23-1-.32a7,7,0,0,1-.8-.23c-4.25.57-8.17,2.5-12.54,3.34l-.29.05-.23-.15c-.3-.18-.6-.35-1-.54l-.23-.13-.08-.24a4.42,4.42,0,0,1-.23-2,4.56,4.56,0,0,1,.21-.93,33,33,0,0,0-5.57-2.65c-2.92-.8-6.54-.17-9.8-.15a9.72,9.72,0,0,1-4.53-.81,5.88,5.88,0,0,1-2.77-3.49c-2.25-1.44-5.16-1.63-7.93-2.85h0a4.63,4.63,0,0,0-1.58,2.64,10.31,10.31,0,0,0,0,3.55,33,33,0,0,1,.44,3.86,6.22,6.22,0,0,1-.7,3.29A.7.7,0,0,0,100.81,160.51Z"/><path class="cls-4" d="M157.54,245.25a6.51,6.51,0,0,1,4.22-2.88,5.82,5.82,0,0,1,1.32,0c2.61-5.52,2.72-11.55,2.59-17.74-.13-6-.47-12.2,1.22-18.13a57,57,0,0,1-9.4-1,27.87,27.87,0,0,0-4.64-.34h0a16.94,16.94,0,0,0-4.92.86c-1.26.42-2.09,1.51-3.29,2.49a5.29,5.29,0,0,1-5.13.85,17.74,17.74,0,0,1-3,1.71.91.91,0,0,1-.15.23,3.21,3.21,0,0,1-1.71,1,3,3,0,0,0,.23.88,5.07,5.07,0,0,1,.47,1.87c2.47,1.44,4.68,2.91,7.33,3.62l.15.05.13.11c.67.62,1.07,1.33,1.56,1.76l.2.18v.31c.09,5.12-2.25,9.57-3.86,13.91s-2.53,8.49,0,13.34l.13.26-.08.29a11.17,11.17,0,0,1-1.34,2.36c1.29,3.21,2.14,6.5,3.88,9.3.48-.06,1-.06,1.45-.08l.31,0,.21.29a4,4,0,0,0,2.33,1.66,5.08,5.08,0,0,0,2.54-.26c1.7-.54,3.56-1.62,5.57-1.89a4.14,4.14,0,0,0,.73-3.92c-.38-1.43-1.2-3-1.77-4.5l-.07-.19,0-.2A20.49,20.49,0,0,1,157.54,245.25Z"/><path class="cls-4" d="M71.61,257.35a60.73,60.73,0,0,0,2.07-6.53,11.57,11.57,0,0,1,1.63-3.39,5.08,5.08,0,0,1,3-2l.41-.08.26.31a12,12,0,0,0,3.29,2.85,2.57,2.57,0,0,0,1.6.28,2.54,2.54,0,0,0,1.46-1c.36-4.18,2.39-7.54,4.84-10.51s5.05-5.38,7.12-8.06a22,22,0,0,1-2.17-.88,4,4,0,0,1-2.28-2.7l0-.07,0-.08a5.24,5.24,0,0,1,2-3.5,11,11,0,0,0,2-2.1.73.73,0,0,1,.08-.52c-.12-1.4-.79-2.87-.86-4.55v-.32l.24-.18a16.28,16.28,0,0,1,2.35-1.4c.65-2.56-.43-5-2.33-7a18.86,18.86,0,0,0-6.81-4.56h-.05c-1.68-.16-3.77.29-5.67.19a5,5,0,0,1-2.7-.86,4.33,4.33,0,0,1-1.4-2.12h0a2.13,2.13,0,0,0-1.22.51c-1,1.5-2.33,2.78-3.23,4.07a4.9,4.9,0,0,0-1,4.2l.1.49-.44.26a3.65,3.65,0,0,1-1.24.49l-.18,0-.18-.08c-3.58-1.38-6.34-3.09-8.63-4.09s-4-1.32-5.91-.11c-1.15.73-2.61,2.9-3.78,5.06-1.08,2-1.87,3.73-2.46,4.74a7.78,7.78,0,0,1,1.17,7.74l0,.11-.08.1a30.29,30.29,0,0,1-3.21,2.82,7.47,7.47,0,0,0,1.32,2.7l.1.13.05.15a6.82,6.82,0,0,1,.21,2.07v.26l-.16.24a11.82,11.82,0,0,1-2.77,2.64,6.39,6.39,0,0,0-1.71,1.89,12.07,12.07,0,0,0,2,1.84,5.15,5.15,0,0,1,2.28,3.65l0,.18-.05.16a7.17,7.17,0,0,1-.65,1.4l-.12.2-.21.13a5.32,5.32,0,0,1-3.4.44,4.5,4.5,0,0,0-1.16.06,1.06,1.06,0,0,0-.55.36,4.19,4.19,0,0,0-.1.49,11.51,11.51,0,0,0,1.84,2.07,8.11,8.11,0,0,1,5.65,1.3,6.42,6.42,0,0,1,2.38,5.21c2.19.78,5,.87,7.9,1.24s6,1.16,7.93,3.78l.1.1A10.73,10.73,0,0,0,71.61,257.35Z"/><path class="cls-7" d="M241.73,282.32a3.64,3.64,0,0,0-1.35-1.92,10.68,10.68,0,0,0-2.51-1.24c-1.73-.66-3.73-1.3-4.9-3-4,.34-6.76.37-10.49-1.24l-.15-.05-.11-.13a5.15,5.15,0,0,1-1.27-3.5,20.64,20.64,0,0,1,.44-3.37,6.47,6.47,0,0,0,.08-2.64,2.44,2.44,0,0,0-1.66-1.68,7.24,7.24,0,0,1-4.17.15,5.64,5.64,0,0,1-3.39-2.67,4.07,4.07,0,0,0-.7-.1,3.45,3.45,0,0,0-2,.49,6.88,6.88,0,0,1-4.2,3.39l-.13.06h-.15a8.21,8.21,0,0,1-1.66-.5,2.46,2.46,0,0,0-.8-.13,11,11,0,0,0,.41,2.67,5.17,5.17,0,0,1-.28,3.37c.08.4.21.88.33,1.4,2.31,1.75,4.32,3.1,7.15,2.72l.75-.1v.77a13.14,13.14,0,0,0,2,6.45l.24.44-.37.34a31.7,31.7,0,0,0-5,6.35c.94,6.81,4.08,13.18,4,20.54a3.18,3.18,0,0,0,2,.05,4.66,4.66,0,0,0,1.84-1.37c1.25-1.39,2.53-3.69,4.43-6,3.25-4,4.63-6.21,10-8.42.12-.05.62-.35,1.22-.7s1.3-.79,2.1-1.22a12.74,12.74,0,0,1,4.09-1.61,3.5,3.5,0,0,1,.13-1.89,6.21,6.21,0,0,1,1.55-2.17C240.29,284.66,241.52,283.62,241.73,282.32Z"/><path class="cls-6" d="M206.34,288.41l.11-.21a31.38,31.38,0,0,1,5.13-6.45,14.52,14.52,0,0,1-1.84-6c-3.07.17-5.42-1.36-7.67-3.08l-.18-.16-.08-.23c-.16-.7-.3-1.28-.41-1.84l-.06-.26.13-.21a3.41,3.41,0,0,0,.24-2.74,10.6,10.6,0,0,1-.44-3h0c-5.65,3.51-13.14,4.85-19.67,6.63,0,0,0,0,0,.05-4.12,5.2-3.38,11.81-2.85,17.77l.05.62-.62.13a40.85,40.85,0,0,0-4.59,1.06,6.19,6.19,0,0,0-3.23,2.57,7.18,7.18,0,0,0,0,2l.33.59a6.72,6.72,0,0,1,3.78,4,26.55,26.55,0,0,1,1.53,5.34l.11.54-.5.26c-1,.51-2,.81-2.79,1.25a2.22,2.22,0,0,0-1.2,1.32c2.34,1.1,4.91.62,7.62.18a16.34,16.34,0,0,1,4.35-.31,6.7,6.7,0,0,1,3.71,1.66,10.81,10.81,0,0,1,7.64,1.34c2.18,1.16,4.13,2.46,6.35,3a39.89,39.89,0,0,1,4.94-1.95,9,9,0,0,0,4-2.51.78.78,0,0,1,.26-.41c.05-7.07-3.13-13.42-4.07-20.62Z"/><path class="cls-7" d="M174.43,304.65a22.57,22.57,0,0,0-1.3-4.48c-.74-1.7-1.76-3-3.13-3.32l-.31-.07-.16-.32c-.19-.35-.37-.63-.54-.93l-.08-.13v-.15a7.75,7.75,0,0,1,0-2.72l0-.11.08-.1a7.78,7.78,0,0,1,4-3.21,28.45,28.45,0,0,1,4.15-1c-.51-5.59-1.11-12.12,2.74-17.54a12.87,12.87,0,0,0-4.12-.15h-.49l-.21-.44c-2.32-5.15-1.73-12-2.25-17.49a3,3,0,0,0-1.35-.49,6,6,0,0,1-2.28-.6l-.26-.15-.07-.26a5.62,5.62,0,0,1,.36-3.73,4.47,4.47,0,0,0,.26-1.35,1.59,1.59,0,0,0-.42-1.09,1,1,0,0,0-1-.39,7.19,7.19,0,0,0-1.58.39,4.77,4.77,0,0,1-1.91.34,2.11,2.11,0,0,1-1.74-1.43l0-.07,0-.06v0l-.26,0h0c-1.77-.05-3,.94-4.07,2.41a19.36,19.36,0,0,0-2.43,5.6,39,39,0,0,1,1.73,4.43,5.6,5.6,0,0,1-1,5.2l-.18.21-.29,0c-1.69.11-3.63,1.29-5.67,1.94a6.16,6.16,0,0,1-3.19.26,5.3,5.3,0,0,1-2.8-1.84c-.44,0-.89,0-1.21.08a9.44,9.44,0,0,1-1.4,1.91,3.21,3.21,0,0,0-.83,1.61c2.6,1.28,3.82,3.68,5.08,5.73A10.25,10.25,0,0,0,148.6,274a6.15,6.15,0,0,0,3.7,1.32l.39,0,.16.39c1.2,3,1.91,6.7,3.29,9a3.82,3.82,0,0,1,.49,1.24l0,.16,0,.15a6.71,6.71,0,0,1-.44,1.12l-.08.15-.18.11a9.66,9.66,0,0,1-2.82,1.21,7.19,7.19,0,0,0-.49.7,1.06,1.06,0,0,0-.16.73c1.65,2.73,3,5.8,2.51,9.14v.05l0,.06a5.73,5.73,0,0,1-.44,1.11l-.13.21-.24.07c-1.61.55-2.31,1.81-2.9,3.45a39.93,39.93,0,0,1-1.58,4.61c.35.34.69.61,1,.88,2.6.47,4.9-.38,7.39-1.47s5.24-2.49,8.42-2.47h.18l.18.08a14.7,14.7,0,0,1,2.12,1.4,3.16,3.16,0,0,0,1.22.54,4,4,0,0,1,1.89-2.2A19.87,19.87,0,0,1,174.43,304.65Z"/><path class="cls-4" d="M153.44,299.86a3.81,3.81,0,0,0,.29-.62v-.05c.4-3-.79-5.83-2.41-8.48l-.08-.1,0-.13a2.39,2.39,0,0,1,.28-1.55,10.32,10.32,0,0,1,.68-1l.15-.23.29,0a6.92,6.92,0,0,0,2.51-1.07,5.66,5.66,0,0,0,.21-.56,2.82,2.82,0,0,0-.29-.7l0,0c-1.52-2.53-2.18-6.05-3.24-8.86a7.53,7.53,0,0,1-4-1.5,11.65,11.65,0,0,1-2.56-3.11c-1.38-2.26-2.44-4.5-4.92-5.49l-.39-.16v-.44a4.16,4.16,0,0,1,1.19-2.72,8.89,8.89,0,0,0,1.24-1.68c-1.76-2.81-2.64-5.92-3.75-8.84h0a47.87,47.87,0,0,1-4.72,5.57,10.37,10.37,0,0,1-7.77,3,11.56,11.56,0,0,1-.62,1.38l-.13.23-.26.08c-4.27,1.39-8.36,2-11.68,5.2a5.25,5.25,0,0,0-.44,1.09,5.92,5.92,0,0,1,.23,3.63,19.41,19.41,0,0,1-1.4,3.55,14.1,14.1,0,0,0-1.22,3.31,4.65,4.65,0,0,0,.55,3.24l.13.24-.08.23a5.52,5.52,0,0,1-.7,1.58l-.16.26-.31.05a8.1,8.1,0,0,0-2.59.57,2.91,2.91,0,0,0-1.37,1.3l0,.07a3.54,3.54,0,0,1-.52,3.55,16.59,16.59,0,0,1-2.88,2.64,11.05,11.05,0,0,0-2.54,2.65,3.85,3.85,0,0,0-.33,3.31,5.19,5.19,0,0,0,1.63,1.76l.08,0,0,.05a5.16,5.16,0,0,1,.46.49,2.44,2.44,0,0,0,1.61.06c.65-.17,1.4-.5,2.23-.68l.39-.08.31.24a5.46,5.46,0,0,0,3.37,1.34,7.63,7.63,0,0,0,3-.77c2.16-.91,4.7-2.33,8-1.53a5,5,0,0,1,.73.26c.31.11.71.24,1.16.36a8.73,8.73,0,0,0,3.11.34l.31-.05.26.18c3.19,2.2,7,3.14,10.91,3.94,3.72.75,7.58,1.38,11.06,3,.57-1.25.92-2.79,1.45-4.27A6.32,6.32,0,0,1,153.44,299.86Z"/><path class="cls-7" d="M106.92,284.6a8.22,8.22,0,0,1,2.59-.6,4.1,4.1,0,0,0,.44-.9,6,6,0,0,1-.6-3.73,15,15,0,0,1,1.33-3.66,19.31,19.31,0,0,0,1.32-3.29,4.45,4.45,0,0,0-.24-3.1l-.07-.19,0-.2a5.84,5.84,0,0,1,.67-1.66l.06-.08.07-.05c3.58-3.48,7.88-4.19,12-5.49.18-.36.3-.67.42-1-2.8-1.63-5.09-3.95-8-4.64v.13h0a.41.41,0,0,1-.42.41.41.41,0,0,1-.41-.42v-.28a.8.8,0,0,1-.13-.13h-.29a.43.43,0,0,1-.47-.22.42.42,0,0,1,.19-.56,7.64,7.64,0,0,1-5.16-2,27.11,27.11,0,0,0-4.19-3.5l-.26-.13,0-.29c-.82-3.48-1.13-7.3-2-10.8a15.1,15.1,0,0,0-5-8.55c-2.2,2.93-5,5.56-7.36,8.4s-4.33,6.08-4.58,10l0,.21-.13.15a3.92,3.92,0,0,1-2.36,1.61,4,4,0,0,1-2.46-.41,11.77,11.77,0,0,1-3.39-2.83,3.68,3.68,0,0,0-1.92,1.38,10.39,10.39,0,0,0-1.42,3c-.76,2.33-1.19,5.09-2.28,7.1l-.13.26-.31.08a9.53,9.53,0,0,1-2,.26l-.1.28a2.91,2.91,0,0,0,.8,1.84,9.38,9.38,0,0,1,1.35,2.31,2,2,0,0,0,1.19.18c1.83-5.92,7.35-9.21,11.55-12.41l.06,0,0,0a3.18,3.18,0,0,1,1.53-.33H87l.26.2a3.77,3.77,0,0,1,.86,1l0,.08,0,.05c.71,1.91,2.94,3.19,5.12,4.61a11.09,11.09,0,0,1,2.93,2.46,4.91,4.91,0,0,1,.91,3.89l-.05.23-.16.18a3.21,3.21,0,0,1-2.1,1.06,8.4,8.4,0,0,1-2,0l-.23,0-.21-.16a9.25,9.25,0,0,0-2-1.29,1.24,1.24,0,0,0-.72-.13.92.92,0,0,0-.39.28,2.61,2.61,0,0,1-.39,1.61,3.35,3.35,0,0,1-1.4,1c-.46.2-.9.35-1.19.52s-.2.21-.28.31c4.41,8.28,10.76,15.31,19,19.61A4.41,4.41,0,0,1,106.92,284.6Z"/><path class="cls-6" d="M357.32,212.71a11.91,11.91,0,0,0-3.73-.62,17.11,17.11,0,0,0-4,.47c-5.4,1.24-11.05,4.83-15.08,8l-.29.24-.38-.06a10.35,10.35,0,0,1-2.44-1,2.05,2.05,0,0,0-1.22-.11,6,6,0,0,1-1,3.5,4.76,4.76,0,0,1-4.38,1.73l-.13,0-.13,0c-3.31-1.32-6.81-2.24-9.87-3.88a13.72,13.72,0,0,1-6.53-7,7.87,7.87,0,0,1-3.75,1.52,9.81,9.81,0,0,0-4,1.27,6,6,0,0,1-.88,3.22,4.34,4.34,0,0,0-.63,2.28,7.77,7.77,0,0,0,2.05.07,3.5,3.5,0,0,1,3,1l.16.16v.21c.08.91,0,1.78.1,2.59a5.75,5.75,0,0,1,2.1,3.31,10.24,10.24,0,0,1-.18,3.86c-.5,2.56-1.22,5-.13,7.1l.1.18,0,.24c-.45,2.65-1.74,4.81-1.64,7.15,1.6,1.26,3.79,1.64,5.86,2.3a7.84,7.84,0,0,1,3,1.56,5.61,5.61,0,0,1,1.61,3,5.67,5.67,0,0,0,.57.23c.23-.33.5-.8.91-1.4a2.64,2.64,0,0,1,1-1,2.22,2.22,0,0,1,1.69-.06l.23.08.13.21c.48.73.87,1.46,1.24,2.15a30.77,30.77,0,0,1,7.54-.86,11.12,11.12,0,0,1,7.1,2.57,10.38,10.38,0,0,0,1.53-3.63,8.43,8.43,0,0,1,2.61-4.63l.08-.06.08,0c3.86-1.93,8.28-2.65,12.41-3.7s7.72-2.37,10.46-5.24c-.16-7,1.93-14.43.88-21.65A11.72,11.72,0,0,0,357.32,212.71Z"/><path class="cls-6" d="M280.46,284a6.41,6.41,0,0,0,1.37-1.24,5.21,5.21,0,0,1,2-1.35c3.28-1.29,6.92-1.73,10-2.67,2.81-.86,5.08-2.09,6.47-4.69-5.52-.85-10.89-2.49-14.06-7.59a5.54,5.54,0,0,0-.76-.31,15.54,15.54,0,0,1-3.67.16,10.32,10.32,0,0,0-3.48.28l-.51.16-.26-.47a3.64,3.64,0,0,0-1.25-1,12.26,12.26,0,0,1-13.65-2.51c-.9.19-1.87.75-2.93,1.09a2.73,2.73,0,0,1-1.81,0,2.63,2.63,0,0,1-1.14-1c-1.45.7-2.95,1.93-4.64,2.95a7,7,0,0,1-6.58.83l-.25-.1-.11-.24a19,19,0,0,0-1.5-3.57,9.39,9.39,0,0,0-1.3-.13h0a9.55,9.55,0,0,0-3.18.52,9,9,0,0,0,.75.85,4.06,4.06,0,0,1,1.19,2l.05.13-.05.16a4.32,4.32,0,0,1-1.32,2.25l-.13.1-.16,0a4.85,4.85,0,0,0-3.78,2.38,31.31,31.31,0,0,0-1.81,4,.87.87,0,0,1,0,.36c.89,1.24,2.54,1.81,4.3,2.49a11.66,11.66,0,0,1,2.82,1.42,5,5,0,0,1,1.9,2.75l0,.13v.1c-.24,2-1.94,3.26-3.11,4.43a5.19,5.19,0,0,0-1.24,1.71,2.09,2.09,0,0,0,0,1.5h0c5.23.8,9.94-.57,14.68-2.38s9.68-4.15,15-4.87l.21,0,.21.07c1.35.58,2.56,1.27,3.78,1.84a.86.86,0,0,1,.65.29c1.37,0,2.45.24,3.42.26A6.24,6.24,0,0,0,280.46,284Z"/><path class="cls-7" d="M237,180.38c-.49-2.21-1.47-4.43-1.5-7a7.88,7.88,0,0,1-.62-.55,6.47,6.47,0,0,0-1.53-.25,8.58,8.58,0,0,1-1.22-.19,8.25,8.25,0,0,1-5,5.78,15.38,15.38,0,0,1-5.76,1,13.21,13.21,0,0,1-6-.94c-2.53-1.33-3.56-3.5-4.4-5.33s-1.45-3.11-3-3.79a8.8,8.8,0,0,0-2.46,1.84,16.72,16.72,0,0,1-1.17,4,6.54,6.54,0,0,1-2.49,2.8c1.84,1.78,4.46,3.27,6.61,4.92l.26.21v.34c-.07,4.11-1.23,7.94-1.45,11.5a27.19,27.19,0,0,1,4.3,3.78,7.16,7.16,0,0,1,4.3-1.53,8.33,8.33,0,0,1,4.32,1.61c2.5,1.7,4.68,4.36,6.69,6.37a.84.84,0,0,1,.31.08,3.52,3.52,0,0,0,2.87-1,17,17,0,0,1,3.11-2.15,17.27,17.27,0,0,1,3.45-9.11c-.29-3.87-1.73-8.19.31-12.36Z"/><path class="cls-7" d="M320.53,256.75l-.51.11-.26-.47c-.39-.72-.84-1.5-1.3-2.23-.14,0-.3-.07-.39,0a1.59,1.59,0,0,0-.49.51,7.32,7.32,0,0,1-1.35,2l-.25.21-.32-.05a5.24,5.24,0,0,1-1.63-.67l-.31-.16-.05-.34a4.15,4.15,0,0,0-1.3-2.61,6.67,6.67,0,0,0-2.48-1.27c-1.91-.61-4.31-1-6.27-2.51-2,.41-4.06,1.22-6.22,1.73a4.76,4.76,0,0,1-.59.44,1.93,1.93,0,0,0,.12,1.66,3.85,3.85,0,0,0,1.53,1.11c.72.35,1.58.68,2.36,1.12a4.22,4.22,0,0,1,1.94,1.91l0,.08,0,.11a4.07,4.07,0,0,1-.32,2c-.15.45-.28.81-.38,1.17a7.79,7.79,0,0,1,2.69,6.45,14,14,0,0,1-2.8,6.74.64.64,0,0,1-.18.28v0c-1.54,3.42-4.44,5-7.62,6s-6.82,1.44-9.89,2.64a3.62,3.62,0,0,0-1.53,1,7.42,7.42,0,0,1-1.63,1.45,7.71,7.71,0,0,1-4.43,1.38c-.86,0-1.66-.14-2.54-.21,3,4,9.08,5.92,13.57,3.86l.86-.39.31.88a4.39,4.39,0,0,0,4.33,2.93,7.07,7.07,0,0,0,5.31-2.25l.64-.76.65.76c1.23,1.41,1.63,3.59,2.49,5.64s2,3.88,4.2,4.72a6.51,6.51,0,0,0,1,0,3.38,3.38,0,0,1,1.86.13c5.46,2.44,12.05,4.11,16.87,2.44a58.82,58.82,0,0,0,2.43-9.54,41.84,41.84,0,0,0,.62-5.51,10.61,10.61,0,0,0-.41-3.79,6.71,6.71,0,0,0-3-3.73l-.31-.18-.07-.36c-.55-2.43-.17-4.82-.29-6.94l0-.47.38-.28c2.67-1.95,3.62-4.6,4.56-7.52.88-2.71,1.75-5.66,4.1-8.05a9.71,9.71,0,0,0-6.09-2.05A31.18,31.18,0,0,0,320.53,256.75Z"/><path class="cls-7" d="M299.65,136.34c-1.86.29-3.82.78-5.69,1l-.44.05-.26-.36a9.29,9.29,0,0,0-3.84-3.06,13.16,13.16,0,0,1-4.17-3,1.73,1.73,0,0,0-.39,0,1.63,1.63,0,0,0-.33.05,5.57,5.57,0,0,1-3,3,13.23,13.23,0,0,1-4.95.75c-3.33,0-6.91-.37-9.28.21-.47,2.12-1.08,4-.9,6,.34,0,.72.06,1.14.1a3.54,3.54,0,0,1,2.1.8l.1.08.05.13c.17.36.35.66.52,1l.1.18,0,.23c-.55,5.31,2.2,9.74,4.92,14.38,2.63,4.49,5.19,9.22,4.17,15a1.8,1.8,0,0,1,.08.21,8.94,8.94,0,0,1,.08,3.6,26.53,26.53,0,0,1,2.17,3.45,1,1,0,0,0,.78,0,6.08,6.08,0,0,0,1.06-.49c.83-1.25,1.36-2.72,2.23-4.14l.15-.26.32,0c2.45-.24,5-.78,7.48-1a15.75,15.75,0,0,1,6.79.7,3.9,3.9,0,0,0,.57-1.69,1.78,1.78,0,0,0-.86-1.65l-.64-.5.46-.64a33.71,33.71,0,0,0,4.54-8.63c1-3.13,1.07-6.3-.73-9.28l-.21-.31.13-.38c1.74-5.12-.85-11.51-4.22-15.47Z"/><path class="cls-7" d="M231.24,81.37c2.47,1.58,5.25,3,6.94,5.11a35.87,35.87,0,0,1,4,7.15,28.52,28.52,0,0,1,2.54,8.7,2.07,2.07,0,0,0,1.32.29,13.72,13.72,0,0,0,1.51-.29.79.79,0,0,1,.31-.23,8.85,8.85,0,0,1,5.93-2.46,21.91,21.91,0,0,1,6.32.72c1.53-1.17,2.88-2.65,4.48-3.88a10,10,0,0,1,5.37-2.18c-5-12.08-8.71-26-19.9-32.9a52.22,52.22,0,0,1-5.65.88,9.13,9.13,0,0,0-5.13,2.12l-.33.32-.44-.13a3.9,3.9,0,0,0-3.76.41,10,10,0,0,0-2.51,3.37c-1.48,2.76-2.83,6.36-5.94,8C227.07,78.42,229,80,231.24,81.37Z"/><path class="cls-6" d="M31.28,172.56a17,17,0,0,0,2.84,3,4.93,4.93,0,0,0,3.68,1l.31,0,.21.23c1.9,2,3.6,3.88,6.06,4.67,3.17-.61,6.09-1.45,8.58-3.42l.23-.18.29,0a4.57,4.57,0,0,1,2.77,1.79,19.53,19.53,0,0,1,1.5,2.25c.56.1,1.38,0,2.25.08a2.45,2.45,0,0,1,1.43.49,2.29,2.29,0,0,1,.57,1.19,4,4,0,0,0,.85.36,14.66,14.66,0,0,1,3.55-2.56,3.79,3.79,0,0,1,2.36-.36,3.57,3.57,0,0,1,1.92,1.32,6.66,6.66,0,0,1,3.93,0,28.8,28.8,0,0,1,3.94,1.68,11,11,0,0,0,3.71,1.19,5.43,5.43,0,0,0,3.68-1.06c2.51-7.6,4.34-12.52,11.91-18.16a22.5,22.5,0,0,1,2.54-1.4,3,3,0,0,0,1.35-1.29.69.69,0,0,1,0-.13.72.72,0,0,0-.24-.47,4.49,4.49,0,0,0-.72-.47,4.79,4.79,0,0,1-1-.69,2.69,2.69,0,0,1-.57-.86c-5.65.12-10.22-2.7-14.43-5.91-4.37-3.32-8.4-7.06-12.92-8.67-3.24-1.16-6.85-.87-10.19-.7-3.1.15-6,.2-8.13-1.48h0A7.57,7.57,0,0,0,47.23,148a9.29,9.29,0,0,0-1.29,7.33l.05.1v.13a3.7,3.7,0,0,1-.78,2.31,4.52,4.52,0,0,1-1.73,1.26,19.25,19.25,0,0,1-3.14,1,6.77,6.77,0,0,1-.83,3.11c-.59,1.09-1.32,2-1.94,3l-.16.23-.28.1a29.21,29.21,0,0,1-2.82,1l-.37.1-.31-.18a17.1,17.1,0,0,0-4.74-2,4.72,4.72,0,0,0-4.07.62,7.3,7.3,0,0,0-.36,2.17,6.14,6.14,0,0,1,3.71,1.12A15.78,15.78,0,0,1,31.28,172.56Z"/><path class="cls-6" d="M187.28,94.09a6.79,6.79,0,0,1,.44.65l.1,0a.73.73,0,0,1,.39,1,10.13,10.13,0,0,0-.36,2.62c-.06,1.12-.07,2.4-.18,3.65a10.5,10.5,0,0,1-.78,3.47,3.42,3.42,0,0,1-2.07,1.79,4.14,4.14,0,0,0-.39.93c2.06,3.9,2,8.1,1.76,12.15,2.48,1.07,5.44.56,8.52.67a6.15,6.15,0,0,1,1.4-1.47,8.17,8.17,0,0,0,1.66-1.58l.13-.21.23,0a8.22,8.22,0,0,1,2.15-.29l.21,0,.18.13a20.75,20.75,0,0,0,2.46,1.06l.31.16.05.33a2.88,2.88,0,0,0,1.92,2.65,4.77,4.77,0,0,0,3.32-.34.66.66,0,0,1,.23-.21c2.49-3.3,5.1-6.81,4.82-10.88l0-.36.31-.21a3.28,3.28,0,0,1,1.4-.52,6.12,6.12,0,0,1,1.69.08l.31.05.15.26a2.41,2.41,0,0,0,2.85,1.4,38.82,38.82,0,0,0,4-1.37l.36-.11.26.24a2.18,2.18,0,0,0,2.39.46,13.11,13.11,0,0,1,3.21-.83,23.28,23.28,0,0,1,10.78,2.21c-.08-.2-.13-.4-.21-.63a3.08,3.08,0,0,1,0-2.53l.26-.55.6.18a4.27,4.27,0,0,0,5.41-4.56,10.5,10.5,0,0,1-1.35.24,3.2,3.2,0,0,1-2.33-.55l-.23-.18,0-.28c-.07-2.28-1.17-5.64-2.51-8.68a37.56,37.56,0,0,0-3.78-6.89c-1.45-1.8-4.13-3.23-6.66-4.85-2.32-1.48-4.54-3.17-5.47-5.67l-.07,0c-.46,0-.92-.06-1.38-.05h0c-4,.08-7.94,1.73-12.12,2.9l-.26.08-.28-.13c-2.41-1-4.88-.76-7.54-.21a41.52,41.52,0,0,1-7.9,1.33c-1.81,1.46-3.08,3.58-4.56,5.64A11.86,11.86,0,0,1,185.28,91a9.11,9.11,0,0,0,1,1.79C186.63,93.24,187,93.68,187.28,94.09Z"/><path class="cls-8" d="M84.54,95.31A11.25,11.25,0,0,1,88.24,98a2.09,2.09,0,0,1,.34,1.51,4.17,4.17,0,0,0,0,.44c4.51,3.77,6.38,4.78,13.58,5.57a.72.72,0,0,1,.41,0,5.14,5.14,0,0,0,2.13-.34,7,7,0,0,1,2.67-.49l.23,0,.18.13a29.28,29.28,0,0,0,4.14,2.93,4.59,4.59,0,0,0,4.18.39,1.25,1.25,0,0,0,.15-.67,5.4,5.4,0,0,1-2.12.1,4,4,0,0,1-2.67-1.58l-.11-.16,0-.15a5.4,5.4,0,0,1,0-1.61l.05-.28.23-.16c1.24-.83,1.68-2.6,2.28-4.45a8.41,8.41,0,0,1,1.27-2.67A4.48,4.48,0,0,1,118,94.92l0,0a3.71,3.71,0,0,1,2.51.8,2.26,2.26,0,0,0,1.14.36A14.38,14.38,0,0,1,122.82,93a4.09,4.09,0,0,0,.47-2.72,11.23,11.23,0,0,1-1.55-.29,3.15,3.15,0,0,1-2-1.42l-.08-.13,0-.16a4.43,4.43,0,0,1,.08-1.55l0-.18.11-.11a5.48,5.48,0,0,1,4.58-1.76,39.44,39.44,0,0,1,4.43.65,4.81,4.81,0,0,0,.67-.26c1.8-1.68,3.43-3.2,4.1-4.74s.57-2.92-1-5a.61.61,0,0,0-.13,0l-.13,0c-4.49-.22-8.12-2.44-11-5.65a4.34,4.34,0,0,1-2.09-.57c-5.74,3.94-12.57,6.71-15.08,13l-.21.52-.54,0c-2.32.11-3.83,1.68-5.78,3.42l-.13.13-.15.06a4.29,4.29,0,0,1-3.29-.39c-.74-.36-1.34-.69-1.92-.94a7.51,7.51,0,0,1-2.75,2c-1.29.58-2.7,1-4,1.5a8,8,0,0,0-3,1.84,3.9,3.9,0,0,0-.93,3.16A13.81,13.81,0,0,0,84.54,95.31Z"/><path class="cls-4" d="M134.87,80.83c-.86,2-2.68,3.58-4.51,5.28l-.05.08-.1,0a7.29,7.29,0,0,1-1.09.44l-.16,0-.15,0c-1.45-.19-3-.62-4.43-.67A4,4,0,0,0,121,87.23a3.22,3.22,0,0,0,0,.7,1.78,1.78,0,0,0,1.11.75c.56.15,1.24.2,1.92.33l.36.08.13.34a5.09,5.09,0,0,1-.47,4.09,9.88,9.88,0,0,0-1.16,3.34v.55l-.52.1a3.29,3.29,0,0,1-2.51-.67,2.5,2.5,0,0,0-1.58-.6h0a3.06,3.06,0,0,0-2,1.14,7.46,7.46,0,0,0-1.06,2.23c-.53,1.64-1,3.62-2.48,4.87a3.53,3.53,0,0,0,0,.86,2.6,2.6,0,0,0,1.65.9,4,4,0,0,0,1.84-.18.69.69,0,0,1,.16-.18l.08-.29,0-.13.1-.1a3.41,3.41,0,0,1,2-1.11,3.48,3.48,0,0,1,2,.39,10.85,10.85,0,0,1,2.56,2,15,15,0,0,1,7.62-.23c2.55.42,5,.9,7.4.39l.19,0,.18,0a3.22,3.22,0,0,1,1.86,1.79c.33.61.52.94.91,1.06l0,0,.05,0c.07,0,.12.08.18.11a9.55,9.55,0,0,1,6.9-2.9c2.89-2.17,6.09-6,9.66-8.55a11.83,11.83,0,0,1,5.9-2.44,9.09,9.09,0,0,1,6.27,2.18c2.74-.8,6.11-.22,9.17-.13a12.85,12.85,0,0,0,4.3-.47,4.85,4.85,0,0,0,2.7-2.12,3.19,3.19,0,0,0-.29-.49c-.27-.38-.63-.83-1-1.33a8.17,8.17,0,0,1-1.32-2.28c-.47,0-1,0-1.38,0A5,5,0,0,1,180.9,91l-.28-.1-.18-.26c-3-4.81-8.32-7.84-12.77-12.59-2.42-.55-5.5.77-8.6,1.76a11.27,11.27,0,0,1-4.8.7,6,6,0,0,1-4.09-2.72,2.47,2.47,0,0,0-1.73-.65,8.8,8.8,0,0,0-2.21.36,15.17,15.17,0,0,1-2.59.55,4.58,4.58,0,0,1-2.87-.62l-.13-.08-.11-.13c-.69-.91-1.79-1.21-3.26-1.35-.87-.08-1.83-.11-2.8-.21h0A5.7,5.7,0,0,1,134.87,80.83Z"/><path class="cls-8" d="M105.47,134.14a7.22,7.22,0,0,1-2,3.16,4.86,4.86,0,0,1-3.24,1.19,3.42,3.42,0,0,0-.88,1.4,19.07,19.07,0,0,1,2.49,2.15,4.81,4.81,0,0,1,1.32,3.4c2.48,1,5.49,1.26,8.13,3l.24.13.08.29a4.28,4.28,0,0,0,2.22,2.92,8.59,8.59,0,0,0,3.86.68c3,0,6.8-.76,10.18.18,2.37.65,4.31,2.06,6.3,3l.62.29-.26.65a4.91,4.91,0,0,0-.23,1.16,3.64,3.64,0,0,0,.1,1.14c.15.09.31.15.44.23,3.84-.78,7.56-2.48,11.76-3.16a13.61,13.61,0,0,0-.67-3.16l0-.2.08-.21a7.27,7.27,0,0,1,5-4.28,2.65,2.65,0,0,0,.21-.41,4.24,4.24,0,0,1-1.19-2.46,3.59,3.59,0,0,1,.88-2.44,24.62,24.62,0,0,1,4-3.26,3.29,3.29,0,0,0-.44-3.52c-.77-1.17-2-2.32-2.93-3.66l0,0,0-.08a2.89,2.89,0,0,1,0-1.86,5.68,5.68,0,0,1,.75-1.45,4.25,4.25,0,0,0,1-2.41v0c-.06-.4-.31-1.08-.49-1.91-3.21-1.52-5.76-3.82-6.71-6.53s-.12-5.71,3-8.32a7.7,7.7,0,0,0-.52-1.29h0a7.91,7.91,0,0,0-5.78,2.46,9.49,9.49,0,0,1,.13,4.45l-.05.37-.33.15c-1.89,1-3.88,1.68-5.57,2.65a8,8,0,0,0-3.73,3.88,3.92,3.92,0,0,1,.49,2.85,4.49,4.49,0,0,1-1.74,2.15c-1.48,1.14-3.21,2.05-3.7,3.24l-.11.23-.23.13a6.07,6.07,0,0,1-6.24-.46,10.89,10.89,0,0,0-2.54,1.5,5.89,5.89,0,0,1-3.78,1.32l-.16,0-.13-.05a7.58,7.58,0,0,0-2.56-.62,8.14,8.14,0,0,1-3-.8l-.24-.13-.07-.26a6.21,6.21,0,0,0-1.48-2.46,2.66,2.66,0,0,0-2.13-.78,7.36,7.36,0,0,1-1.39,1.53,1.2,1.2,0,0,0,0,.7,3.59,3.59,0,0,0,.44.88,4.69,4.69,0,0,1,1.11,2.59V134Z"/><path class="cls-5" d="M172.49,192.71a9.11,9.11,0,0,1,3-1.34,7.88,7.88,0,0,0,2.15-1,1.45,1.45,0,0,0-.07-.26A7.49,7.49,0,0,0,175,189l-.28,0-.16-.24a4.75,4.75,0,0,1-.64-1.63l-.06-.28.21-.21a110.8,110.8,0,0,0,7.77-9.64c-2.55-1.59-6-1.21-8.8,0l-.21.11-.24-.08a6.16,6.16,0,0,1-1.11-.42l-.21-.12-.1-.24c-.67-1.7-.22-3.42.13-5a7.54,7.54,0,0,0,.13-3.78h0c-4.63.74-9.37,1.13-14.22,1.5-1,2.57-2.53,4.58-2.65,7.07l0,.26-.21.19c-4.1,3.53-9.41,7.38-13.24,11.86s-6.11,9.47-4.37,15.52l0,.15,0,.16c-.49,2-1.12,3.86-.86,5.67l.16.05a15.6,15.6,0,0,0,3-1.71l.26-.2.34.13c2.19.73,3.14.22,4.17-.6s2-2.15,3.7-2.72a18.26,18.26,0,0,1,5.29-.91,29,29,0,0,1,4.87.34,53.57,53.57,0,0,0,9.53,1,.9.9,0,0,1,.54-.18c1.22-.16,2.48-.09,3.42-.31a2,2,0,0,0,1.82-1.63.69.69,0,0,1,.05-.13c-.94-3-.76-6.71-.8-9.71v-.31Z"/><path class="cls-8" d="M300.28,176.13a13,13,0,0,0-4.49-.75h0c-2.88,0-5.88.68-9,1-.74,1.27-1.25,2.71-2.18,4.07l-.1.16-.13,0a8.76,8.76,0,0,1-1.4.67,2.32,2.32,0,0,1-1.89-.18l-.18-.1-.08-.16a22.79,22.79,0,0,0-2.23-3.57,1,1,0,0,1-.36-.19,13.49,13.49,0,0,0-9.15,6.14c2.07,3.34,3.14,7.35,4.56,11,1.48,3.81,3.34,7.18,7.05,9.15l.28.15.05.32c.21,1.64.78,3.32,1,5.15h0a1.42,1.42,0,0,0,.05.16,44.28,44.28,0,0,0,8.13,5.51,12.65,12.65,0,0,0,8.89,1.12l0,0c1.54-1.32,3.43-1.51,5-1.81a5.68,5.68,0,0,0,3.29-1.43c-2.27-2.67-4.13-5.58-6.66-7.48l-.78-.57.65-.73a10.71,10.71,0,0,1,2.59-1.86,2.2,2.2,0,0,0,1.25-1.82,4,4,0,0,0-.11-.62h0c-2.49-3.79-2.9-7.83-3-11.79S301.47,179.86,300.28,176.13Z"/><path class="cls-8" d="M213,259.94l.13.26a4.39,4.39,0,0,0,2.85,2.33,6,6,0,0,0,3.39-.13l.08-.1a32.12,32.12,0,0,1,1.69-9.85.38.38,0,0,1,0-.1c-2.36-1.78-3.58-4.35-4.74-6.79s-2.41-5-4.72-6.29l-.31-.16v-.34c-.12-2.59-1.58-4.8-2.85-7.17s-2.16-4.76-1.32-7.72a12.59,12.59,0,0,1-4.79-11,3.48,3.48,0,0,0-2.67.91c-.9.67-1.78,1.62-2.85,2.35a.76.76,0,0,1-.08.11c-.43,4.69-.48,10.38-4.22,14.11l-.15.19-.24,0a3.18,3.18,0,0,1-1.78-.41c-.44-.22-.79-.44-1.09-.57a3,3,0,0,0-1.19.39c-.11.46-.21.88-.29,1.24,1.3,1.79,1.58,3.94,2,5.8s1,3.57,3,4.51l.39.18v.44c-.25,6.91,4.13,15.58,4.24,22.61a24.67,24.67,0,0,0,3.53-1.88.61.61,0,0,1,.59-.08,1,1,0,0,1,.24.1l.23.18,0,0a3.22,3.22,0,0,1,1.65.1,12.49,12.49,0,0,0,1.3.39c1.59-.61,2.84-1.3,3.47-2.87l.08-.19.15-.1a4.59,4.59,0,0,1,1.95-.7,5.18,5.18,0,0,1,2,.13Z"/><path class="cls-8" d="M265.41,97.62c-1.54,1.18-2.93,2.77-4.72,4.09l-.28.18-.31-.08a21.76,21.76,0,0,0-6.27-.75,7.42,7.42,0,0,0-5,2,5.7,5.7,0,0,1-6.3,6.63,2,2,0,0,0,.08.88,6.51,6.51,0,0,1,.55,2,.59.59,0,0,1,.07.26,55.53,55.53,0,0,0,3.37,7.12c1.41,2.17,3.11,3.62,6,3.57H253l.2.29a24.22,24.22,0,0,1,1.2,2.15,1.42,1.42,0,0,0,1.19.8,11.47,11.47,0,0,1,8-2.38,3.44,3.44,0,0,1,1.58.52,1.55,1.55,0,0,1,.7,1.45,2.81,2.81,0,0,1-1,1.63,13.33,13.33,0,0,1-2,1.48,3.22,3.22,0,0,0,1.37,2.15c.78.65,1.77,1.25,2.57,2l.07,0c2.86-.75,6.51-.21,9.72-.23a12.22,12.22,0,0,0,4.4-.65,3.93,3.93,0,0,0,2.44-2.62l.13-.39.39-.07a3.69,3.69,0,0,1,1.73-.06l.26.06.16.2a11.05,11.05,0,0,0,4,2.85,11.69,11.69,0,0,1,4,3.16c1.64-.25,3.4-.65,5.18-.93a7.76,7.76,0,0,0,.21-4.09,4.17,4.17,0,0,0-1.76-2.23c-1.74-1.26-4.62-2.22-6.92-4.77a28.06,28.06,0,0,1-5.36-9.58,10.39,10.39,0,0,1-4.79-4.82,39,39,0,0,1-2.15-6,9.26,9.26,0,0,1-4.25-3.89c-1.14-1.66-2.16-3.18-3.6-3.86l-.16-.1c-.12,0-.25,0-.36,0h0A8.34,8.34,0,0,0,265.41,97.62Z"/><path class="cls-8" d="M185.18,121.73h0c-3.85,2.22-7.65,4.58-9.09,8.84L176,131l-.47,0a6,6,0,0,0-4,1.09,8.4,8.4,0,0,0-2.38,3c-1.3,2.5-2.13,5.71-3.94,8.06l-.13.2-.26,0a12.59,12.59,0,0,1-9.53-2.59,22.45,22.45,0,0,0-3.42,2.82,2.22,2.22,0,0,0-.62,1.53,3.27,3.27,0,0,0,1.11,2l.29.28-.13.36a6.32,6.32,0,0,1-.47,1.12l-.16.23-.25.08a6.27,6.27,0,0,0-4.43,3.47,15.59,15.59,0,0,1,.7,3.39l.62.19a12.13,12.13,0,0,1,1.55.51l.44.18-.05.5a6.67,6.67,0,0,0,1.87,5.72c1.31,1.51,3.11,2.84,4.74,4.46,5.09-.39,10-.79,14.79-1.58l.52-.11.2.47c.79,1.71.41,3.48.05,5.08a8.11,8.11,0,0,0-.2,4l.41.18c3.13-1.3,7.08-1.68,10.08.44a16,16,0,0,0,4.74-.62,4,4,0,0,0,2.67-2.41c-3.94-.66-7.09-2.47-8.45-4.92a7.25,7.25,0,0,1-.88-5,10.27,10.27,0,0,1,2.2-4.3c2.1-2.61,5.17-4.95,7.54-7.28a11.05,11.05,0,0,1,2.26-5.26c1.07-1.46,2.23-2.77,3.11-4.17a8.79,8.79,0,0,1-1.82-4.89,19.55,19.55,0,0,1,.7-5.18c.75-3.21,1.54-6.22-.21-9.38C191.8,122.6,188.37,123.3,185.18,121.73Z"/><path class="cls-8" d="M54.31,143.11c1.63,1.26,4.15,1.29,7.2,1.14,3.29-.17,7.1-.51,10.7.77,4.89,1.75,9,5.59,13.29,8.86s8.45,5.77,13.7,5.62a1.07,1.07,0,0,1,.21-.13,5,5,0,0,0,.54-2.53,36.06,36.06,0,0,0-.44-3.71,11.66,11.66,0,0,1,0-4,6.23,6.23,0,0,1,2.12-3.45,1.09,1.09,0,0,1,.08-.15,3.08,3.08,0,0,0-1-2.51A25.33,25.33,0,0,0,98,140.62l-.23-.21v-.31a4.12,4.12,0,0,1,1.53-2.75l.23-.2.31,0a3.31,3.31,0,0,0,2.64-.9,5.89,5.89,0,0,0,1.56-2.44,4.22,4.22,0,0,0-.86-1.76,5,5,0,0,1-.62-1.27,2.67,2.67,0,0,1,.11-1.66l.07-.23.24-.13a6.17,6.17,0,0,0,1.16-1.32,19.73,19.73,0,0,0-4.19-4,17.21,17.21,0,0,1-4.74-5l-.11-.18,0-.18c.1-.78.41-1.41.57-2.33l0-.21.15-.15a18.34,18.34,0,0,0,5.76-8.5c-7.06-.81-9.53-2-14-5.83a1.46,1.46,0,0,1-.47-.85,3.64,3.64,0,0,1-.05-.7c0-.41-.07-.68,0-.63a10.24,10.24,0,0,0-3.24-2.3,14.78,14.78,0,0,1-3.36-2.15,6.5,6.5,0,0,0-4.38,4,17.28,17.28,0,0,0-1.35,7v.52l-.49.2c-3.28,1.42-4.82,4.64-7.51,7.36a9.88,9.88,0,0,1-1.48,6.29,16.61,16.61,0,0,1-4.33,5c-.22,3.82-2.55,6.57-4.43,9.2s-3.34,5.1-2.38,8.76A.85.85,0,0,1,54.31,143.11Z"/><path class="cls-4" d="M228.81,262.17s-1.38.62-1.6.7a1.55,1.55,0,0,0-.65,1.55c.06,1-.29,1,.52,1.9a9.39,9.39,0,0,0,2.76,1.62s1.12-.38,1.39-.81,1.19-1,1.3-1.9-1.11-3.06-1.11-3.06Z"/><path class="cls-3" d="M51.43,221.21a6.41,6.41,0,0,0-1.19-6.61l-.36-.38.28-.45c.4-.62,1.41-2.86,2.62-5.07s2.58-4.48,4.25-5.52c2.34-1.47,4.7-1.07,7.14,0s5,2.68,8.35,4a3.12,3.12,0,0,0,.41-.16,6.64,6.64,0,0,1,1.22-4.66c1-1.46,2.34-2.73,3.26-4.09v0l0,0a3.51,3.51,0,0,1,2.61-1.2l.55,0,.13.54a3.21,3.21,0,0,0,1.14,2.05,3.62,3.62,0,0,0,2,.57c1.42.08,3.23-.28,5-.23,0-1.94,1.27-3.62,2.17-5.13a7,7,0,0,0,1-2.44,2.75,2.75,0,0,0-.73-2.28s0,0,0,0a13.4,13.4,0,0,1-5-4.46,6.72,6.72,0,0,1-4.2,1.06A12.28,12.28,0,0,1,78,185.36a26.9,26.9,0,0,0-3.73-1.64,5.22,5.22,0,0,0-3.57.06l-.47.18-.28-.42a2.33,2.33,0,0,0-1.43-1.08,2.58,2.58,0,0,0-1.58.25,16.42,16.42,0,0,0-3.52,2.62l-.26.23-.31-.07a5.89,5.89,0,0,1-1.58-.68l-.29-.18,0-.31a1.1,1.1,0,0,0-.34-.78,1.21,1.21,0,0,0-.7-.2,10.61,10.61,0,0,1-2.69-.11l-.24-.08-.13-.2a23.88,23.88,0,0,0-1.58-2.41,3.29,3.29,0,0,0-1.81-1.24,21,21,0,0,1-9,3.49l-.16.05-.13-.05c-2.86-.87-4.73-2.95-6.58-4.92a6.37,6.37,0,0,1-4.19-1.24,18.05,18.05,0,0,1-3.09-3.27,14.86,14.86,0,0,0-2.84-3,4.67,4.67,0,0,0-3.14-.93h0l0,0a.58.58,0,0,1-.23.18l-.15.08a17.32,17.32,0,0,0-3.63,1.76l-.47.29-.46-.29c-2.84-1.82-6.47-1.62-10.13-1.27l-1.27,1.38a7.62,7.62,0,0,0,2.54,6.89c1.91,1.91,4.81,3.81,7.87,6.84a10.74,10.74,0,0,1,1.84,3c.26.51.49,1,.68,1.34a2.67,2.67,0,0,0,.23.39.17.17,0,0,0,.05.05c4.16,2.55,5,6.3,4.79,9.74s-1.27,6.62-1.19,8.81a39.92,39.92,0,0,0,9.4,8.37c3.09.13,5.39,1.63,7.49,3.19s4.08,3.12,6.66,3.67h.13A35.27,35.27,0,0,0,51.43,221.21Z"/><path class="cls-8" d="M209.58,231c1.19,2.22,2.69,4.55,2.93,7.41,2.49,1.57,3.78,4.12,5,6.61s2.3,4.83,4.38,6.4c2.07-.07,4.15-.29,6.22-.32a17.72,17.72,0,0,1,5.75.76,12.37,12.37,0,0,1,1.68-1.38,2.64,2.64,0,0,0,1.19-1.71l.16-.64.67.07c3,.37,5.2-1.14,7.78-2.72a33.16,33.16,0,0,1-1.84-4.48l-.08-.26.13-.23a2.2,2.2,0,0,0,.1-2.38,7.14,7.14,0,0,0-2-1.89A12.37,12.37,0,0,1,239,234a4.28,4.28,0,0,1-.78-3c-2.63-.74-4.25-2.61-6.27-3.81l-.23-.13-.08-.28c-1.73-5.67-3.13-10.83-6.29-15.29l-.13-.1a5.55,5.55,0,0,1-3.58-2.18h0a1.53,1.53,0,0,0-.51.11c-.69,1.07-1.15,2.33-2,3.55l-.11.13-.13.07a5.63,5.63,0,0,1-1.65.68l-.24,0-.2-.1a11.08,11.08,0,0,0-6.69-1.06,39,39,0,0,1-6.55.39,11.41,11.41,0,0,0,4.58,10.23l.37.26-.16.41C207.46,226.59,208.35,228.7,209.58,231Z"/><path class="cls-8" d="M195.52,137.22a7.34,7.34,0,0,0,1.78,4.59l.29.34-.24.39a53,53,0,0,1-3.36,4.55,9.36,9.36,0,0,0-2.1,4.9v.23l-.18.19c-2.48,2.45-5.56,4.78-7.54,7.25a9,9,0,0,0-2,3.76,5.81,5.81,0,0,0,.75,4.11c1.11,2,4.07,3.81,7.9,4.38l.13,0a5.74,5.74,0,0,1,1.92-.21,4.5,4.5,0,0,1,1.58.42,7.9,7.9,0,0,1,2.33,1.89c1.3,1.42,2.28,2.75,4.09,2.85H201a5.18,5.18,0,0,0,2.26-2.44,16.72,16.72,0,0,0,1.11-3.88l0-.18.13-.13a9.89,9.89,0,0,1,3.27-2.39l.23-.1.23.08c2.25.81,3.11,2.76,3.94,4.58s1.68,3.6,3.84,4.74a12.93,12.93,0,0,0,5.36.81,15.52,15.52,0,0,0,5.23-.88c2.76-1.32,3.73-2.51,4.43-5.44a4,4,0,0,1,.49-1.87,2,2,0,0,0,.16-.75,5.88,5.88,0,0,1-4.92-2.33c-1.24-1.48-2.2-3.16-3.94-4.17l-.23-.16-.06-.26a2.8,2.8,0,0,1,.94-2.67c.54-.52,1.11-.88,1.53-1.24-.77-2.33-1.41-4.82-2.21-7.23-.56.16-1.15.36-1.81.52a4.54,4.54,0,0,1-2.88-.1l-.25-.11-.11-.23c-2.69-5.83-3.47-11.94-5.54-17.28l-.16-.39.29-.31a3.64,3.64,0,0,1,2.38-1.11c-1.87-3-3.2-6.86-5.59-9.22A5.84,5.84,0,0,1,205,123a4.23,4.23,0,0,1-2.65-3.26,12.27,12.27,0,0,1-2.17-1,7,7,0,0,0-1.63.21,11.65,11.65,0,0,1-1.61,1.61,6.34,6.34,0,0,0-1,1,.78.78,0,0,1,0,.6c1.91,3.55,1,7,.29,10.18A18.3,18.3,0,0,0,195.52,137.22Z"/><path class="cls-8" d="M180.18,202.09a21,21,0,0,1,6.45,1.25,10.76,10.76,0,0,1,7.38,9.45,7.1,7.1,0,0,1,2.33,1.81c.75-.58,1.54-1.36,2.47-2a5.09,5.09,0,0,1,4.48-1,.94.94,0,0,1,.28.1,38,38,0,0,0,6.48-.38,12.69,12.69,0,0,1,7.07,1.11,4.81,4.81,0,0,0,1-.44c.69-1.07,1.16-2.34,2-3.58l.08-.1.13-.08a3.14,3.14,0,0,1,1.45-.36h.34l.2.23a4.82,4.82,0,0,0,2.88,2,3.51,3.51,0,0,0,.62-1.78c.08-.73.07-1.55.18-2.41-2.09-2.09-4.23-4.7-6.5-6.25a6.93,6.93,0,0,0-3.63-1.34,5.89,5.89,0,0,0-4,1.53l-.46.36-.42-.44a25.77,25.77,0,0,0-4.74-4.17l-.31-.21,0-.36c.17-3.79,1.33-7.6,1.45-11.48-2.13-1.59-4.81-3.13-6.76-5.18-2.44-.19-3.82-2-5-3.32a6.72,6.72,0,0,0-1.84-1.55,2.82,2.82,0,0,0-1.06-.28,4,4,0,0,0-1,.1,5.56,5.56,0,0,1-3.62,3.55,16.57,16.57,0,0,1-5.06.7,109,109,0,0,1-7.79,9.63,5,5,0,0,0,.33.78,10.06,10.06,0,0,1,2.72,1.22l.16.08.08.15a6,6,0,0,1,.44,1.12l.1.38-.31.26a8.05,8.05,0,0,1-2.95,1.43,9.06,9.06,0,0,0-2.36,1c0,2.95-.05,6.26.73,8.86A30.15,30.15,0,0,1,180.18,202.09Z"/><path class="cls-8" d="M268.65,142.92a2.18,2.18,0,0,0-1.22-.44c-.38,0-.81,0-1.27-.1l-.08.05a.82.82,0,0,1-1.11-.34,36.45,36.45,0,0,0-4.51-.67,10.44,10.44,0,0,1-4.64-1.55h0c-3.42,1.14-7.44.93-9.84,1.84a3.83,3.83,0,0,0-1.53,1.4,5,5,0,0,1-2.18,1.83c-3.34,1.27-6.75,1.39-9.92,1.82s-6,1.12-8.44,3.31c0,0,0,0,0,0v.13c.9,2.7,1.6,5.44,2.43,7.9l.13.39-.28.28c-.57.58-1.31,1-1.82,1.51a1.38,1.38,0,0,0-.59,1.32,18,18,0,0,1,4,4.17,4.31,4.31,0,0,0,4.53,1.89l.55-.08.15.49a2.94,2.94,0,0,1-.25,2.13,4.94,4.94,0,0,0-.37,1,9.39,9.39,0,0,0,1.12.16,6,6,0,0,1,1.94.36l.1,0,.08.1a10.92,10.92,0,0,0,.86.73l.23.18,0,.31c-.05,2.27.92,4.41,1.48,6.81a6.13,6.13,0,0,1,3.89.1,7.52,7.52,0,0,0,3.78.47,8.08,8.08,0,0,1,6.71-2.41c2.4.09,4.72.57,6.37.23s4.24-2.12,7-3.62,5.73-2.62,8.94-1.84a2.49,2.49,0,0,1,2-.65,8.74,8.74,0,0,1,1.32.34c.9-5.21-1.43-9.49-4-13.94s-5.58-9.22-5.1-14.95C268.89,143.41,268.77,143.18,268.65,142.92Z"/><path d="M55.14,467.47a4.3,4.3,0,0,1-1.33-3.42v-3.86a4.36,4.36,0,0,1,1.31-3.42,5.54,5.54,0,0,1,3.8-1.17,6.37,6.37,0,0,1,2.83.56,4.42,4.42,0,0,1,1.8,1.69L62,458.92a3.65,3.65,0,0,0-1.26-1.25,3.76,3.76,0,0,0-1.83-.39c-2,0-3,1-3,2.91v3.86c0,1.94,1,2.91,3,2.91a4,4,0,0,0,2-.41,3.63,3.63,0,0,0,1.28-1.3l1.51,1.12a5.43,5.43,0,0,1-1.91,1.73,6.22,6.22,0,0,1-2.81.54A5.66,5.66,0,0,1,55.14,467.47Z"/><path d="M72.65,466.87a2.41,2.41,0,0,0,.6.61l-1.32,1.16a2.33,2.33,0,0,1-1.27-1.34,3.18,3.18,0,0,1-1.14,1,3.66,3.66,0,0,1-1.71.38,3,3,0,0,1-2-.66,2.35,2.35,0,0,1-.76-1.86,2.12,2.12,0,0,1,1-2,5.81,5.81,0,0,1,2.43-.73l1-.11a2,2,0,0,0,.82-.21.58.58,0,0,0,.28-.46c-.07-1-.68-1.51-1.82-1.51a2.37,2.37,0,0,0-2,1l-1.35-1a3.2,3.2,0,0,1,1.3-1,5.2,5.2,0,0,1,2.1-.37,4.39,4.39,0,0,1,2.84.79,2.78,2.78,0,0,1,.94,2.27v3.37A1.42,1.42,0,0,0,72.65,466.87Zm-2.71-.2a1.67,1.67,0,0,0,.59-1.31v-1a5,5,0,0,1-1.19.23l-.81.09q-1.65.18-1.65,1.32a1,1,0,0,0,.37.87,1.6,1.6,0,0,0,1,.3A2.41,2.41,0,0,0,69.94,466.67Z"/><path d="M81.62,460.31a3.53,3.53,0,0,1,1.24,1.51,5.08,5.08,0,0,1,.41,2.08v.58a5.08,5.08,0,0,1-.41,2.08,3.53,3.53,0,0,1-1.24,1.51,3.48,3.48,0,0,1-2,.57,3.69,3.69,0,0,1-1.66-.32,2.88,2.88,0,0,1-1-.89v4.93h-2V462.21a1.36,1.36,0,0,0-.17-.71,2.19,2.19,0,0,0-.59-.6l1.32-1.16a3.05,3.05,0,0,1,.86.64,1.94,1.94,0,0,1,.42.82,3.12,3.12,0,0,1,2.82-1.46A3.48,3.48,0,0,1,81.62,460.31Zm-.31,3.59a3,3,0,0,0-.59-1.88,2,2,0,0,0-1.66-.75,2.1,2.1,0,0,0-2.16,1.64v2.56a2.1,2.1,0,0,0,2.16,1.64,2,2,0,0,0,1.66-.75,3,3,0,0,0,.59-1.88Z"/><path d="M92.27,466.87a2.41,2.41,0,0,0,.6.61l-1.32,1.16a2.33,2.33,0,0,1-1.27-1.34,3.18,3.18,0,0,1-1.14,1,3.66,3.66,0,0,1-1.71.38,3,3,0,0,1-2.05-.66,2.35,2.35,0,0,1-.76-1.86,2.12,2.12,0,0,1,1-2,5.81,5.81,0,0,1,2.43-.73l1-.11a2,2,0,0,0,.82-.21.58.58,0,0,0,.28-.46c-.07-1-.68-1.51-1.82-1.51a2.37,2.37,0,0,0-2,1l-1.35-1a3.2,3.2,0,0,1,1.3-1,5.2,5.2,0,0,1,2.1-.37,4.39,4.39,0,0,1,2.84.79,2.78,2.78,0,0,1,.94,2.27v3.37A1.42,1.42,0,0,0,92.27,466.87Zm-2.71-.2a1.67,1.67,0,0,0,.59-1.31v-1a5,5,0,0,1-1.19.23l-.81.09q-1.65.18-1.65,1.32a1,1,0,0,0,.37.87,1.6,1.6,0,0,0,1,.3A2.41,2.41,0,0,0,89.56,466.67Z"/><path d="M95.19,467.79a3,3,0,0,1-1-2.43V463a3,3,0,0,1,1-2.42,4.21,4.21,0,0,1,2.82-.86,3.81,3.81,0,0,1,3.29,1.43L100,462.26a3.07,3.07,0,0,0-.87-.76,2.26,2.26,0,0,0-1.07-.23,1.94,1.94,0,0,0-1.37.46,1.68,1.68,0,0,0-.49,1.29v2.34a1.71,1.71,0,0,0,.48,1.3,1.94,1.94,0,0,0,1.38.45,2.39,2.39,0,0,0,1.1-.23,2.66,2.66,0,0,0,.86-.75l1.35,1.1a3.33,3.33,0,0,1-1.32,1.06,5,5,0,0,1-2,.35A4.25,4.25,0,0,1,95.19,467.79Z"/><path d="M103.33,458.22a1.14,1.14,0,0,1-.35-.83,1.12,1.12,0,0,1,.35-.82,1.14,1.14,0,0,1,.84-.35,1.1,1.1,0,0,1,.82.35,1.12,1.12,0,0,1,.35.82,1.14,1.14,0,0,1-.35.83,1.1,1.1,0,0,1-.82.35A1.14,1.14,0,0,1,103.33,458.22Zm.17,9.46a2.91,2.91,0,0,1-.32-1.47V460h2v6.21a1.32,1.32,0,0,0,.17.7,2.18,2.18,0,0,0,.59.61l-1.3,1.16A2.72,2.72,0,0,1,103.5,467.68Z"/><path d="M109.7,461.49v4a1.81,1.81,0,0,0,.27,1.11,1,1,0,0,0,.88.34h1.3v1.52h-1.3a3.42,3.42,0,0,1-2.4-.68,3,3,0,0,1-.71-2.29v-7.06a1.32,1.32,0,0,0-.17-.7,2.18,2.18,0,0,0-.59-.61l1.31-1.16a2.58,2.58,0,0,1,1.1,1,2.91,2.91,0,0,1,.31,1.48V460h2.45v1.53Z"/><path d="M121.2,466.87a2.52,2.52,0,0,0,.59.61l-1.31,1.16a2.34,2.34,0,0,1-1.28-1.34,3.06,3.06,0,0,1-1.13,1,3.66,3.66,0,0,1-1.71.38,3,3,0,0,1-2-.66,2.32,2.32,0,0,1-.76-1.86,2.13,2.13,0,0,1,1-2,5.9,5.9,0,0,1,2.43-.73l1-.11a2.13,2.13,0,0,0,.82-.21.61.61,0,0,0,.28-.46c-.08-1-.68-1.51-1.82-1.51a2.76,2.76,0,0,0-1.14.22,2.72,2.72,0,0,0-.91.75l-1.35-1a3.17,3.17,0,0,1,1.29-1,5.22,5.22,0,0,1,2.11-.37,4.36,4.36,0,0,1,2.83.79,2.78,2.78,0,0,1,1,2.27v3.37A1.32,1.32,0,0,0,121.2,466.87Zm-2.72-.2a1.65,1.65,0,0,0,.6-1.31v-1a5.13,5.13,0,0,1-1.19.23l-.81.09c-1.11.12-1.66.56-1.66,1.32a1,1,0,0,0,.37.87,1.64,1.64,0,0,0,1,.3A2.38,2.38,0,0,0,118.48,466.67Z"/><path d="M125.27,461.49v4a1.81,1.81,0,0,0,.27,1.11,1,1,0,0,0,.88.34h1.3v1.52h-1.3a3.42,3.42,0,0,1-2.4-.68,3,3,0,0,1-.71-2.29v-7.06a1.32,1.32,0,0,0-.17-.7,2.18,2.18,0,0,0-.59-.61l1.31-1.16a2.58,2.58,0,0,1,1.1,1,2.91,2.91,0,0,1,.31,1.48V460h2.45v1.53Z"/><path d="M134.15,466.93a2.86,2.86,0,0,0,1-.65l1.17,1.08a3.35,3.35,0,0,1-1.35.95,5.28,5.28,0,0,1-2,.33,4.36,4.36,0,0,1-2.88-.8,3.06,3.06,0,0,1-.94-2.46v-2.63a2.7,2.7,0,0,1,1-2.19,4.15,4.15,0,0,1,2.69-.8,4,4,0,0,1,2.72.86,3.09,3.09,0,0,1,1,2.45,3.89,3.89,0,0,1-.14,1.16,1.06,1.06,0,0,1-.52.6,2.57,2.57,0,0,1-1.12.19h-3.64v.36c0,1.16.64,1.74,1.91,1.74A3.14,3.14,0,0,0,134.15,466.93Zm-2.63-5.22a1.6,1.6,0,0,0-.46,1.18v.78h2.58a1.12,1.12,0,0,0,.7-.17.8.8,0,0,0,.2-.61,1.59,1.59,0,0,0-.46-1.21,1.87,1.87,0,0,0-1.31-.42A1.73,1.73,0,0,0,131.52,461.71Z"/><path d="M143.87,468.27a4.11,4.11,0,0,1-1.32-1.18l1.22-1a3.28,3.28,0,0,0,1,.83,2.48,2.48,0,0,0,1.17.24,2.52,2.52,0,0,0,1.29-.26.82.82,0,0,0,.42-.77.78.78,0,0,0-.19-.53,1.67,1.67,0,0,0-.69-.37,9.31,9.31,0,0,0-1.43-.32c-1.68-.32-2.52-1.19-2.52-2.63a2.15,2.15,0,0,1,.89-1.82,3.94,3.94,0,0,1,2.39-.67,3.39,3.39,0,0,1,3.13,1.43l-1.21,1a3.14,3.14,0,0,0-.88-.7,2.35,2.35,0,0,0-1-.22,1.79,1.79,0,0,0-1.06.27.88.88,0,0,0-.36.74.75.75,0,0,0,.41.69,3.37,3.37,0,0,0,1.13.39,12.29,12.29,0,0,1,1.82.53,2.49,2.49,0,0,1,1.08.81,2.3,2.3,0,0,1,.4,1.42c0,1.68-1.2,2.52-3.58,2.52A4.57,4.57,0,0,1,143.87,468.27Z"/><path d="M156.08,466.93a3.07,3.07,0,0,0,1-.65l1.17,1.08a3.35,3.35,0,0,1-1.35.95,5.33,5.33,0,0,1-2,.33,4.36,4.36,0,0,1-2.88-.8,3.09,3.09,0,0,1-.94-2.46v-2.63a2.7,2.7,0,0,1,1-2.19,4.2,4.2,0,0,1,2.7-.8,4,4,0,0,1,2.71.86,3.09,3.09,0,0,1,1,2.45,3.54,3.54,0,0,1-.15,1.16,1,1,0,0,1-.52.6,2.51,2.51,0,0,1-1.12.19H153v.36c0,1.16.63,1.74,1.91,1.74A3.17,3.17,0,0,0,156.08,466.93Zm-2.63-5.22a1.56,1.56,0,0,0-.46,1.18v.78h2.57a1.1,1.1,0,0,0,.7-.17.76.76,0,0,0,.2-.61,1.55,1.55,0,0,0-.46-1.21,1.85,1.85,0,0,0-1.3-.42A1.69,1.69,0,0,0,153.45,461.71Z"/><path d="M166.2,460.19l-.5,1.66a2.46,2.46,0,0,0-.66-.31,2.57,2.57,0,0,0-.77-.1q-1.4,0-2,2.07v4.91h-2v-6.21a1.32,1.32,0,0,0-.16-.7,2.52,2.52,0,0,0-.59-.61l1.31-1.16a2.94,2.94,0,0,1,.94.72,1.91,1.91,0,0,1,.41,1,3.16,3.16,0,0,1,1-1.23,2.5,2.5,0,0,1,1.49-.45A2.45,2.45,0,0,1,166.2,460.19Z"/><path d="M169.84,468.19a3,3,0,0,1-.81-1.46L166.92,460h1.91l2,6.59a2.55,2.55,0,0,0,.17.45.22.22,0,0,0,.21.11.23.23,0,0,0,.2-.12,1.53,1.53,0,0,0,.17-.44l2-6.59h1.89l-2.07,6.77a3.17,3.17,0,0,1-.81,1.46,2.25,2.25,0,0,1-2.7,0Z"/><path d="M177.15,458.22a1.14,1.14,0,0,1-.35-.83,1.12,1.12,0,0,1,.35-.82,1.14,1.14,0,0,1,.84-.35,1.2,1.2,0,0,1,1.17,1.17,1.14,1.14,0,0,1-.35.83,1.11,1.11,0,0,1-.82.35A1.14,1.14,0,0,1,177.15,458.22Zm.16,9.46a2.92,2.92,0,0,1-.31-1.47V460h2v6.21a1.32,1.32,0,0,0,.16.7,2.41,2.41,0,0,0,.6.61l-1.3,1.16A2.69,2.69,0,0,1,177.31,467.68Z"/><path d="M182.33,467.79a3,3,0,0,1-1-2.43V463a3,3,0,0,1,1-2.42,4.18,4.18,0,0,1,2.81-.86,3.83,3.83,0,0,1,3.3,1.43l-1.35,1.09a3,3,0,0,0-.88-.76,2.26,2.26,0,0,0-1.07-.23,1.93,1.93,0,0,0-1.36.46,1.68,1.68,0,0,0-.49,1.29v2.34a1.71,1.71,0,0,0,.48,1.3,1.9,1.9,0,0,0,1.37.45,2.41,2.41,0,0,0,1.11-.23,2.77,2.77,0,0,0,.86-.75l1.34,1.1a3.23,3.23,0,0,1-1.31,1.06,5,5,0,0,1-2,.35A4.24,4.24,0,0,1,182.33,467.79Z"/><path d="M190.47,458.22a1.14,1.14,0,0,1-.35-.83,1.18,1.18,0,0,1,2.36,0,1.14,1.14,0,0,1-.35.83,1.11,1.11,0,0,1-.82.35A1.13,1.13,0,0,1,190.47,458.22Zm.16,9.46a2.92,2.92,0,0,1-.31-1.47V460h2v6.21a1.32,1.32,0,0,0,.16.7,2.41,2.41,0,0,0,.6.61l-1.3,1.16A2.69,2.69,0,0,1,190.63,467.68Z"/><path d="M195.22,458.22a1.14,1.14,0,0,1-.35-.83,1.12,1.12,0,0,1,.35-.82,1.14,1.14,0,0,1,.84-.35,1.1,1.1,0,0,1,.82.35,1.12,1.12,0,0,1,.35.82,1.14,1.14,0,0,1-.35.83,1.1,1.1,0,0,1-.82.35A1.14,1.14,0,0,1,195.22,458.22Zm.17,9.46a2.91,2.91,0,0,1-.32-1.47V460h2v6.21a1.32,1.32,0,0,0,.17.7,2.18,2.18,0,0,0,.59.61l-1.3,1.16A2.65,2.65,0,0,1,195.39,467.68Z"/><path d="M205.27,468.27a3.92,3.92,0,0,1-1.32-1.18l1.22-1a3.14,3.14,0,0,0,1,.83,2.48,2.48,0,0,0,1.17.24,2.56,2.56,0,0,0,1.3-.26.83.83,0,0,0,.41-.77.73.73,0,0,0-.19-.53,1.56,1.56,0,0,0-.68-.37,9.61,9.61,0,0,0-1.43-.32c-1.68-.32-2.52-1.19-2.52-2.63a2.15,2.15,0,0,1,.89-1.82,3.92,3.92,0,0,1,2.39-.67,3.39,3.39,0,0,1,3.13,1.43l-1.21,1a3.14,3.14,0,0,0-.88-.7,2.38,2.38,0,0,0-1-.22,1.79,1.79,0,0,0-1.06.27.89.89,0,0,0-.37.74.76.76,0,0,0,.42.69,3.29,3.29,0,0,0,1.13.39,12.67,12.67,0,0,1,1.82.53,2.62,2.62,0,0,1,1.08.81,2.37,2.37,0,0,1,.4,1.42q0,2.52-3.59,2.52A4.55,4.55,0,0,1,205.27,468.27Z"/><path d="M213.25,467.77a3.07,3.07,0,0,1-1-2.45v-2.26a3.07,3.07,0,0,1,1-2.45,4.94,4.94,0,0,1,5.6,0,3.07,3.07,0,0,1,1,2.45v2.26a3.07,3.07,0,0,1-1,2.45,4.94,4.94,0,0,1-5.6,0Zm4.15-1.12a1.76,1.76,0,0,0,.48-1.33v-2.26a1.76,1.76,0,0,0-.48-1.33,1.91,1.91,0,0,0-1.36-.46,1.88,1.88,0,0,0-1.34.46,1.76,1.76,0,0,0-.48,1.33v2.26a1.76,1.76,0,0,0,.48,1.33,1.88,1.88,0,0,0,1.34.46A1.91,1.91,0,0,0,217.4,466.65Z"/><path d="M222.63,467.79a3,3,0,0,1-1-2.43V463a3,3,0,0,1,1-2.42,4.19,4.19,0,0,1,2.82-.86,3.81,3.81,0,0,1,3.29,1.43l-1.35,1.09a3.07,3.07,0,0,0-.87-.76,2.29,2.29,0,0,0-1.07-.23,1.94,1.94,0,0,0-1.37.46,1.68,1.68,0,0,0-.49,1.29v2.34a1.71,1.71,0,0,0,.48,1.3,1.93,1.93,0,0,0,1.38.45,2.39,2.39,0,0,0,1.1-.23,2.66,2.66,0,0,0,.86-.75l1.35,1.1a3.33,3.33,0,0,1-1.32,1.06,5,5,0,0,1-2,.35A4.25,4.25,0,0,1,222.63,467.79Z"/><path d="M230.77,458.22a1.14,1.14,0,0,1-.35-.83,1.12,1.12,0,0,1,.35-.82,1.14,1.14,0,0,1,.84-.35,1.1,1.1,0,0,1,.82.35,1.12,1.12,0,0,1,.35.82,1.14,1.14,0,0,1-.35.83,1.1,1.1,0,0,1-.82.35A1.14,1.14,0,0,1,230.77,458.22Zm.17,9.46a2.91,2.91,0,0,1-.32-1.47V460h2v6.21a1.42,1.42,0,0,0,.16.7,2.41,2.41,0,0,0,.6.61l-1.3,1.16A2.65,2.65,0,0,1,230.94,467.68Z"/><path d="M242.43,466.87a2.52,2.52,0,0,0,.59.61l-1.31,1.16a2.34,2.34,0,0,1-1.28-1.34,3.06,3.06,0,0,1-1.13,1,3.66,3.66,0,0,1-1.71.38,3,3,0,0,1-2.05-.66,2.32,2.32,0,0,1-.76-1.86,2.13,2.13,0,0,1,.95-2,5.9,5.9,0,0,1,2.43-.73l1.05-.11a2.13,2.13,0,0,0,.82-.21.57.57,0,0,0,.27-.46c-.07-1-.67-1.51-1.81-1.51a2.84,2.84,0,0,0-1.15.22,2.93,2.93,0,0,0-.91.75l-1.35-1a3.27,3.27,0,0,1,1.3-1,5.22,5.22,0,0,1,2.11-.37,4.36,4.36,0,0,1,2.83.79,2.78,2.78,0,0,1,1,2.27v3.37A1.32,1.32,0,0,0,242.43,466.87Zm-2.72-.2a1.64,1.64,0,0,0,.59-1.31v-1a4.9,4.9,0,0,1-1.18.23l-.81.09c-1.11.12-1.66.56-1.66,1.32a1,1,0,0,0,.37.87,1.64,1.64,0,0,0,1,.3A2.38,2.38,0,0,0,239.71,466.67Z"/><path d="M244.85,467.68a2.92,2.92,0,0,1-.31-1.47v-8.68a1.37,1.37,0,0,0-.17-.72,2,2,0,0,0-.59-.59l1.31-1.16a2.64,2.64,0,0,1,1.1.95,2.91,2.91,0,0,1,.31,1.48v8.68a1.23,1.23,0,0,0,.17.7,2.41,2.41,0,0,0,.6.61L246,468.64A2.69,2.69,0,0,1,244.85,467.68Z"/><path d="M253.83,466.93a2.86,2.86,0,0,0,1-.65l1.17,1.08a3.35,3.35,0,0,1-1.35.95,5.28,5.28,0,0,1-2,.33,4.36,4.36,0,0,1-2.88-.8,3.06,3.06,0,0,1-.94-2.46v-2.63a2.7,2.7,0,0,1,1-2.19,4.17,4.17,0,0,1,2.69-.8,4,4,0,0,1,2.72.86,3.09,3.09,0,0,1,1,2.45,3.89,3.89,0,0,1-.14,1.16,1.06,1.06,0,0,1-.52.6,2.54,2.54,0,0,1-1.12.19h-3.63v.36c0,1.16.63,1.74,1.9,1.74A3.14,3.14,0,0,0,253.83,466.93Zm-2.63-5.22a1.59,1.59,0,0,0-.45,1.18v.78h2.57a1.12,1.12,0,0,0,.7-.17.8.8,0,0,0,.2-.61,1.55,1.55,0,0,0-.46-1.21,1.86,1.86,0,0,0-1.3-.42A1.74,1.74,0,0,0,251.2,461.71Z"/><path d="M263.47,466.93a14.8,14.8,0,0,1,0-9.12,16.66,16.66,0,0,1,2-3.84l1.19.72a14.52,14.52,0,0,0,0,15.37l-1.19.72A16.52,16.52,0,0,1,263.47,466.93Z"/><path d="M268.81,467.68a2.91,2.91,0,0,1-.32-1.47v-8.68a1.37,1.37,0,0,0-.16-.72,2.33,2.33,0,0,0-.59-.59l1.31-1.16a2.71,2.71,0,0,1,1.1.95,3,3,0,0,1,.3,1.48v8.68a1.23,1.23,0,0,0,.18.7,2.41,2.41,0,0,0,.6.61l-1.32,1.16A2.72,2.72,0,0,1,268.81,467.68Z"/><path d="M273.75,467.77a3.07,3.07,0,0,1-1-2.45v-2.26a3.07,3.07,0,0,1,1-2.45,4.94,4.94,0,0,1,5.6,0,3.07,3.07,0,0,1,1,2.45v2.26a3.07,3.07,0,0,1-1,2.45,4.94,4.94,0,0,1-5.6,0Zm4.15-1.12a1.8,1.8,0,0,0,.47-1.33v-2.26a1.8,1.8,0,0,0-.47-1.33,1.91,1.91,0,0,0-1.36-.46,1.86,1.86,0,0,0-1.34.46,1.76,1.76,0,0,0-.48,1.33v2.26a1.76,1.76,0,0,0,.48,1.33,1.86,1.86,0,0,0,1.34.46A1.91,1.91,0,0,0,277.9,466.65Z"/><path d="M283.13,467.79a3,3,0,0,1-1-2.43V463a3,3,0,0,1,1-2.42,4.22,4.22,0,0,1,2.82-.86,3.83,3.83,0,0,1,3.3,1.43l-1.35,1.09a3.09,3.09,0,0,0-.88-.76,2.26,2.26,0,0,0-1.07-.23,2,2,0,0,0-1.37.46,1.71,1.71,0,0,0-.48,1.29v2.34a1.71,1.71,0,0,0,.48,1.3,1.9,1.9,0,0,0,1.37.45,2.43,2.43,0,0,0,1.11-.23,2.64,2.64,0,0,0,.85-.75l1.35,1.1a3.23,3.23,0,0,1-1.31,1.06,5,5,0,0,1-2,.35A4.24,4.24,0,0,1,283.13,467.79Z"/><path d="M298.52,466.86a2,2,0,0,0,.61.61l-1.32,1.13a3,3,0,0,1-.9-.66,2.14,2.14,0,0,1-.43-.85,3,3,0,0,1-1.08,1.13,3,3,0,0,1-1.62.42,2.87,2.87,0,0,1-2.14-.77,3,3,0,0,1-.76-2.19V460h2v5.56a1.64,1.64,0,0,0,.39,1.16,1.45,1.45,0,0,0,1.12.43,1.69,1.69,0,0,0,1.26-.53,3.46,3.46,0,0,0,.77-1.38V460h2v6.19A1.36,1.36,0,0,0,298.52,466.86Z"/><path d="M306.83,460.19l-.5,1.66a2.46,2.46,0,0,0-.66-.31,2.54,2.54,0,0,0-.76-.1q-1.41,0-2,2.07v4.91h-2v-6.21a1.32,1.32,0,0,0-.16-.7,2.34,2.34,0,0,0-.59-.61l1.31-1.16a3,3,0,0,1,1,.72,1.91,1.91,0,0,1,.4,1,3.16,3.16,0,0,1,1-1.23,2.5,2.5,0,0,1,1.49-.45A2.43,2.43,0,0,1,306.83,460.19Z"/><path d="M308.48,458.22a1.14,1.14,0,0,1-.35-.83,1.2,1.2,0,0,1,1.19-1.17,1.08,1.08,0,0,1,.81.35,1.09,1.09,0,0,1,.36.82,1.11,1.11,0,0,1-.36.83,1.08,1.08,0,0,1-.81.35A1.11,1.11,0,0,1,308.48,458.22Zm.16,9.46a2.92,2.92,0,0,1-.31-1.47V460h2v6.21a1.32,1.32,0,0,0,.16.7,2.52,2.52,0,0,0,.59.61l-1.29,1.16A2.69,2.69,0,0,1,308.64,467.68Z"/><path d="M312.16,470.06a14.52,14.52,0,0,0,0-15.37l1.19-.72a16.66,16.66,0,0,1,2,3.84,14.8,14.8,0,0,1,0,9.12,16.52,16.52,0,0,1-2,3.85Z"/><path class="cls-9" d="M61.53,432.66a11.29,11.29,0,0,1-3.87-4.93,21.19,21.19,0,0,1,0-15,11.32,11.32,0,0,1,3.87-4.92,10.19,10.19,0,0,1,11.36,0,11.32,11.32,0,0,1,3.87,4.92,21.19,21.19,0,0,1,0,15,11.29,11.29,0,0,1-3.87,4.93,10.19,10.19,0,0,1-11.36,0Zm10.32-1.6A9.37,9.37,0,0,0,75,426.84a20,20,0,0,0,0-13.2,9.31,9.31,0,0,0-3.13-4.22,8.1,8.1,0,0,0-9.28,0,9.24,9.24,0,0,0-3.13,4.22,20,20,0,0,0,0,13.2,9.3,9.3,0,0,0,3.13,4.22,8.1,8.1,0,0,0,9.28,0Z"/><path class="cls-9" d="M257.47,418.7a7.57,7.57,0,0,1,3.28,2.91,8.78,8.78,0,0,1,0,8.79,7.87,7.87,0,0,1-3.3,3,10.77,10.77,0,0,1-4.79,1,9.94,9.94,0,0,1-8.31-3.69q-2.9-3.69-2.89-10.3a18,18,0,0,1,1.54-7.84,10.88,10.88,0,0,1,4.32-4.84,12.7,12.7,0,0,1,6.54-1.63,12.33,12.33,0,0,1,6.34,1.43l-.84,1.64a10.15,10.15,0,0,0-5.5-1.28,9.59,9.59,0,0,0-7.59,3.13q-2.78,3.14-2.77,9.07a21.59,21.59,0,0,0,.23,3.35,7.43,7.43,0,0,1,3.25-4.23,10.39,10.39,0,0,1,5.64-1.51A11.37,11.37,0,0,1,257.47,418.7Zm.37,12.12a6.66,6.66,0,0,0,0-9.59,8.09,8.09,0,0,0-5.54-1.79,8.84,8.84,0,0,0-4,.88,6.7,6.7,0,0,0-2.75,2.39,6.14,6.14,0,0,0-1,3.39,5.94,5.94,0,0,0,.94,3.19,6.63,6.63,0,0,0,2.73,2.43,9.35,9.35,0,0,0,4.3.91A7.64,7.64,0,0,0,257.84,430.82Z"/><path class="cls-9" d="M270.66,432.66a11.29,11.29,0,0,1-3.87-4.93,21.19,21.19,0,0,1,0-15,11.32,11.32,0,0,1,3.87-4.92,10.19,10.19,0,0,1,11.36,0,11.32,11.32,0,0,1,3.87,4.92,21.19,21.19,0,0,1,0,15,11.29,11.29,0,0,1-3.87,4.93,10.19,10.19,0,0,1-11.36,0Zm10.32-1.6a9.3,9.3,0,0,0,3.13-4.22,20,20,0,0,0,0-13.2,9.24,9.24,0,0,0-3.13-4.22,8.1,8.1,0,0,0-9.28,0,9.24,9.24,0,0,0-3.13,4.22,20,20,0,0,0,0,13.2,9.3,9.3,0,0,0,3.13,4.22,8.1,8.1,0,0,0,9.28,0Z"/><path class="cls-9" d="M296.89,432.66a11.29,11.29,0,0,1-3.87-4.93,21.19,21.19,0,0,1,0-15,11.32,11.32,0,0,1,3.87-4.92,10.19,10.19,0,0,1,11.36,0,11.32,11.32,0,0,1,3.87,4.92,21.19,21.19,0,0,1,0,15,11.29,11.29,0,0,1-3.87,4.93,10.19,10.19,0,0,1-11.36,0Zm10.32-1.6a9.37,9.37,0,0,0,3.13-4.22,20,20,0,0,0,0-13.2,9.31,9.31,0,0,0-3.13-4.22,8.12,8.12,0,0,0-9.29,0,9.3,9.3,0,0,0-3.12,4.22,20,20,0,0,0,0,13.2,9.35,9.35,0,0,0,3.12,4.22,8.12,8.12,0,0,0,9.29,0Z"/><rect class="cls-10" x="53.59" y="344.92" width="262.09" height="28.33"/><line class="cls-11" x1="315.68" y1="373.25" x2="53.6" y2="373.25"/><line class="cls-11" x1="315.68" y1="344.92" x2="53.6" y2="344.92"/></g></g></svg>