<svg xmlns="http://www.w3.org/2000/svg" width="370" height="510" viewBox="0 0 370 510"><defs><style>.cls-1,.cls-5{fill:none;}.cls-2{fill:#968584;}.cls-3{fill:#6fbab6;}.cls-4{fill:#cde5c0;}.cls-5{stroke:#968584;stroke-miterlimit:10;stroke-width:7px;}</style></defs><title>infografic_centre_servicii_sociale_01</title><g id="Layer_2" data-name="Layer 2"><g id="Layer_1-2" data-name="Layer 1"><rect class="cls-1" width="370" height="510"/><path d="M167.19,394.86h-2.47v-1.45h6.71v1.45H169v6.25h-1.78Z"/><path d="M174.51,400.72A3.7,3.7,0,0,1,173,399.3a4.12,4.12,0,0,1,0-4.08,3.7,3.7,0,0,1,1.51-1.42,4.42,4.42,0,0,1,2.16-.52,4.36,4.36,0,0,1,2.15.52,3.91,3.91,0,0,1,0,6.92,4.36,4.36,0,0,1-2.15.52A4.42,4.42,0,0,1,174.51,400.72Zm3.39-1.31a2.25,2.25,0,0,0,.86-.87,2.72,2.72,0,0,0,0-2.56,2.25,2.25,0,0,0-.86-.87,2.44,2.44,0,0,0-1.23-.31,2.39,2.39,0,0,0-1.23.31,2.27,2.27,0,0,0-.87.87,2.8,2.8,0,0,0,0,2.56,2.27,2.27,0,0,0,.87.87,2.39,2.39,0,0,0,1.23.31A2.44,2.44,0,0,0,177.9,399.41Z"/><path d="M184.37,394.86H181.9v-1.45h6.71v1.45h-2.46v6.25h-1.78Z"/><path d="M194.92,399.46h-3.58l-.68,1.65h-1.83l3.44-7.7H194l3.44,7.7H195.6Zm-.56-1.35-1.23-2.95-1.22,2.95Z"/><path d="M198.93,393.41h1.78v6.25h3.86v1.45h-5.64Z"/><path class="cls-2" d="M154.55,432.36v1.83H135.37v-1.43L147.17,421a16.37,16.37,0,0,0,3.13-4,7.54,7.54,0,0,0,.82-3.41,5.15,5.15,0,0,0-1.82-4.18,8,8,0,0,0-5.24-1.52,12.24,12.24,0,0,0-4.6.8,8.91,8.91,0,0,0-3.41,2.43l-1.43-1.27a10.36,10.36,0,0,1,4-2.83,14.58,14.58,0,0,1,5.56-1,10,10,0,0,1,6.54,2,6.59,6.59,0,0,1,2.43,5.38,9.19,9.19,0,0,1-1,4.11,18,18,0,0,1-3.58,4.54l-10.29,10.25Z"/><path class="cls-2" d="M159.39,433.85a1.66,1.66,0,0,1-.5-1.21,1.61,1.61,0,0,1,.5-1.2,1.68,1.68,0,0,1,2.35,0,1.61,1.61,0,0,1,.5,1.2,1.66,1.66,0,0,1-.5,1.21,1.63,1.63,0,0,1-2.35,0Z"/><path class="cls-2" d="M182.41,420.1a7.2,7.2,0,0,1,2.75,6,8.17,8.17,0,0,1-1.1,4.24,7.44,7.44,0,0,1-3.29,2.93,12.08,12.08,0,0,1-5.38,1.08,15.29,15.29,0,0,1-5.68-1,10.4,10.4,0,0,1-4.12-2.71l1-1.55a9.59,9.59,0,0,0,3.65,2.47,13.24,13.24,0,0,0,5.08,1,8.59,8.59,0,0,0,5.76-1.72,5.72,5.72,0,0,0,2-4.58,5.52,5.52,0,0,0-2.3-4.79c-1.52-1.08-4.1-1.63-7.71-1.63h-5.66l1.48-13.51h14.78v1.83H170.65L169.57,418h4Q179.67,418,182.41,420.1Z"/><path class="cls-2" d="M204.45,420.1a7.17,7.17,0,0,1,2.75,6,8.16,8.16,0,0,1-1.09,4.24,7.5,7.5,0,0,1-3.29,2.93,12.11,12.11,0,0,1-5.38,1.08,15.25,15.25,0,0,1-5.68-1,10.37,10.37,0,0,1-4.13-2.71l1-1.55a9.47,9.47,0,0,0,3.64,2.47,13.26,13.26,0,0,0,5.09,1,8.63,8.63,0,0,0,5.76-1.72,5.71,5.71,0,0,0,2-4.58,5.51,5.51,0,0,0-2.29-4.79c-1.53-1.08-4.1-1.63-7.72-1.63H189.5L191,406.29h14.79v1.83H192.69L191.62,418h4Q201.71,418,204.45,420.1Z"/><path class="cls-2" d="M216.27,432.66a11.29,11.29,0,0,1-3.87-4.93,21.16,21.16,0,0,1,0-15,11.29,11.29,0,0,1,3.87-4.93,10.19,10.19,0,0,1,11.36,0,11.29,11.29,0,0,1,3.87,4.93,21.16,21.16,0,0,1,0,15,11.29,11.29,0,0,1-3.87,4.93,10.19,10.19,0,0,1-11.36,0Zm10.33-1.6a9.35,9.35,0,0,0,3.12-4.22,20,20,0,0,0,0-13.2,9.35,9.35,0,0,0-3.12-4.22,8.12,8.12,0,0,0-9.29,0,9.37,9.37,0,0,0-3.13,4.22,20,20,0,0,0,0,13.2,9.37,9.37,0,0,0,3.13,4.22,8.12,8.12,0,0,0,9.29,0Z"/><path d="M85,212A2.75,2.75,0,0,1,86.2,216a2.59,2.59,0,0,1-1.16,1,4.37,4.37,0,0,1-1.77.33H81.71v2.13H79.93v-7.7h3.34A4.2,4.2,0,0,1,85,212Zm-.65,3.44a1.38,1.38,0,0,0,0-2,1.89,1.89,0,0,0-1.22-.35H81.71v2.67h1.46A1.89,1.89,0,0,0,84.39,215.47Z"/><path d="M93.44,219.39,92,217.24H90.32v2.15H88.53v-7.7h3.34a4.2,4.2,0,0,1,1.77.34,2.56,2.56,0,0,1,1.57,2.45,2.5,2.5,0,0,1-1.58,2.43l1.72,2.48Zm-.45-5.9a1.89,1.89,0,0,0-1.22-.35H90.32v2.68h1.45a1.83,1.83,0,0,0,1.22-.35,1.38,1.38,0,0,0,0-2Z"/><path d="M97.28,211.69h1.78v7.7H97.28Z"/><path d="M108.91,211.69l-3.34,7.7h-1.76l-3.32-7.7h1.93l2.34,5.5,2.37-5.5Z"/><path d="M115,217.74h-3.57l-.69,1.65h-1.82l3.43-7.7h1.76l3.44,7.7H115.7Zm-.56-1.36-1.22-2.94L112,216.38Z"/><path d="M120.25,213.14h-2.47v-1.45h6.71v1.45H122v6.25h-1.78Z"/><path d="M132.07,218v1.43h-6v-7.7h5.82v1.43h-4.05v1.67h3.58v1.39h-3.58V218Z"/><path class="cls-3" d="M88.23,169v27.9h-2V170.85H79.38V169Z"/><path class="cls-3" d="M95.9,196.58a1.66,1.66,0,0,1-.5-1.21,1.61,1.61,0,0,1,.5-1.2,1.68,1.68,0,0,1,2.35,0,1.61,1.61,0,0,1,.5,1.2,1.66,1.66,0,0,1-.5,1.21,1.63,1.63,0,0,1-2.35,0Z"/><path class="cls-3" d="M109.83,169v27.9h-2V170.85H101V169Z"/><path class="cls-3" d="M132.55,182.83a7.17,7.17,0,0,1,2.75,6,8.16,8.16,0,0,1-1.09,4.24,7.5,7.5,0,0,1-3.29,2.93,12.11,12.11,0,0,1-5.38,1.08,15.45,15.45,0,0,1-5.68-1,10.37,10.37,0,0,1-4.13-2.71l1-1.55a9.44,9.44,0,0,0,3.65,2.47,13.17,13.17,0,0,0,5.08,1,8.67,8.67,0,0,0,5.76-1.72,5.71,5.71,0,0,0,2-4.58,5.49,5.49,0,0,0-2.29-4.78q-2.29-1.63-7.71-1.64H117.6L119.08,169h14.79v1.83H120.79l-1.07,9.85h4Q129.81,180.7,132.55,182.83Z"/><path class="cls-3" d="M162.41,189.19h-5.86v7.73h-2v-7.73H138.65v-1.48L153.8,169h2.27L141.2,187.39h13.4v-6.81h2v6.81h5.86Z"/><path class="cls-4" d="M185,41.92v28A127,127,0,1,1,147.88,318.4l-8.18,26.75A147.28,147.28,0,0,0,185,351.92a155,155,0,0,0,0-310Z"/><path class="cls-3" d="M58,196.92a127,127,0,0,1,127-127h0v-28c-69.34,0-128,43.37-148.23,109.68A155,155,0,0,0,139.7,345.15l8.18-26.75A127.06,127.06,0,0,1,58,196.92Z"/><path d="M244.89,212.53a2.75,2.75,0,0,1,1.16,3.93,2.59,2.59,0,0,1-1.16,1,4.42,4.42,0,0,1-1.78.33h-1.55v2.13h-1.78v-7.7h3.33A4.25,4.25,0,0,1,244.89,212.53Zm-.66,3.44a1.38,1.38,0,0,0,0-2,1.85,1.85,0,0,0-1.22-.35h-1.45v2.67H243A1.85,1.85,0,0,0,244.23,216Z"/><path d="M249.2,219.11a3.53,3.53,0,0,1-.92-2.61v-4.31h1.78v4.24c0,1.38.58,2.07,1.72,2.07a1.6,1.6,0,0,0,1.28-.5,2.34,2.34,0,0,0,.44-1.57v-4.24h1.76v4.31a3.53,3.53,0,0,1-.92,2.61,4.08,4.08,0,0,1-5.14,0Z"/><path d="M264.36,216.58a1.94,1.94,0,0,1,.38,1.21,1.76,1.76,0,0,1-.79,1.55,4,4,0,0,1-2.29.55h-4v-7.7h3.76a3.66,3.66,0,0,1,2.16.54,1.7,1.7,0,0,1,.75,1.46,1.87,1.87,0,0,1-.27,1,1.85,1.85,0,0,1-.75.69A2.07,2.07,0,0,1,264.36,216.58Zm-4.91-3.05v1.81h1.77a1.74,1.74,0,0,0,1-.23.76.76,0,0,0,.34-.68.74.74,0,0,0-.34-.67,1.74,1.74,0,0,0-1-.23Zm3.14,4.78a.77.77,0,0,0,.35-.71q0-1-1.41-1h-2.08v1.91h2.08A1.91,1.91,0,0,0,262.59,218.31Z"/><path d="M266.75,212.19h1.78v6.25h3.86v1.45h-5.64Z"/><path d="M274.05,212.19h1.79v7.7h-1.79Z"/><path d="M279.88,219.51a3.87,3.87,0,0,1-1.5-1.42,4,4,0,0,1-.54-2.05,3.9,3.9,0,0,1,.54-2,3.8,3.8,0,0,1,1.5-1.42,4.45,4.45,0,0,1,2.14-.51,4.4,4.4,0,0,1,1.81.35,3.59,3.59,0,0,1,1.36,1L284,214.48a2.43,2.43,0,0,0-1.93-.91,2.56,2.56,0,0,0-1.28.32,2.27,2.27,0,0,0-.87.87,2.59,2.59,0,0,0-.32,1.28,2.55,2.55,0,0,0,.32,1.27,2.23,2.23,0,0,0,.87.88,2.55,2.55,0,0,0,1.28.31,2.43,2.43,0,0,0,1.93-.91l1.15,1a3.6,3.6,0,0,1-1.37,1A4.6,4.6,0,0,1,282,220,4.41,4.41,0,0,1,279.88,219.51Z"/><path d="M293,218.46v1.43h-6v-7.7h5.81v1.43h-4v1.67h3.57v1.39h-3.57v1.78Z"/><path class="cls-4" d="M209.59,169v27.9h-2V170.85h-6.82V169Z"/><path class="cls-4" d="M217.26,196.58a1.65,1.65,0,0,1-.49-1.21,1.6,1.6,0,0,1,.49-1.2,1.69,1.69,0,0,1,2.36,0,1.6,1.6,0,0,1,.49,1.2,1.66,1.66,0,0,1-2.85,1.21Z"/><path class="cls-4" d="M240.54,183.43a7.16,7.16,0,0,1,2.42,5.64,7.8,7.8,0,0,1-1.12,4.16,7.52,7.52,0,0,1-3.33,2.85,12.46,12.46,0,0,1-5.32,1,15.84,15.84,0,0,1-5.7-1,10.17,10.17,0,0,1-4.15-2.73l1-1.55a9.84,9.84,0,0,0,3.69,2.47,13.3,13.3,0,0,0,5.12,1,8.72,8.72,0,0,0,5.7-1.66,6.12,6.12,0,0,0,0-9.07q-2-1.64-6.1-1.63H231v-1.48l8.25-10.56H224.38V169h17.5v1.43l-8.37,10.72C236.59,181.26,238.94,182,240.54,183.43Z"/><path class="cls-4" d="M264,172.51q2.89,3.68,2.89,10.3a18.1,18.1,0,0,1-1.53,7.83,10.93,10.93,0,0,1-4.33,4.85,12.69,12.69,0,0,1-6.53,1.63,12.17,12.17,0,0,1-6.34-1.44l.83-1.63a10.19,10.19,0,0,0,5.51,1.28,9.65,9.65,0,0,0,7.59-3.13q2.78-3.13,2.77-9.07a21.53,21.53,0,0,0-.24-3.35,7.43,7.43,0,0,1-3.25,4.23,10.47,10.47,0,0,1-5.64,1.51,11.18,11.18,0,0,1-4.88-1,7.47,7.47,0,0,1-3.29-2.91,8.78,8.78,0,0,1,0-8.79,8,8,0,0,1,3.31-3,10.72,10.72,0,0,1,4.78-1C259.28,168.82,262.06,170.05,264,172.51Zm-4,10.38a6.84,6.84,0,0,0,2.75-2.39,6.13,6.13,0,0,0,1-3.39,6,6,0,0,0-.93-3.19,6.75,6.75,0,0,0-2.73-2.43,9.42,9.42,0,0,0-4.31-.92,7.65,7.65,0,0,0-5.3,1.82,6.67,6.67,0,0,0,0,9.58,8,8,0,0,0,5.54,1.8A9,9,0,0,0,260,182.89Z"/><path class="cls-4" d="M287.3,181.43a7.59,7.59,0,0,1,3.29,2.91,8.24,8.24,0,0,1,1.15,4.37,8.13,8.13,0,0,1-1.19,4.42,7.9,7.9,0,0,1-3.31,3,10.72,10.72,0,0,1-4.78,1q-5.43,0-8.31-3.69t-2.89-10.3a18.07,18.07,0,0,1,1.53-7.83,10.81,10.81,0,0,1,4.33-4.85,12.66,12.66,0,0,1,6.53-1.63,12.3,12.3,0,0,1,6.34,1.43l-.84,1.64a10.15,10.15,0,0,0-5.5-1.28,9.65,9.65,0,0,0-7.59,3.13q-2.78,3.13-2.77,9.07a21.53,21.53,0,0,0,.24,3.35,7.43,7.43,0,0,1,3.25-4.23,10.34,10.34,0,0,1,5.64-1.51A11.32,11.32,0,0,1,287.3,181.43Zm.38,12.12a6.14,6.14,0,0,0,2-4.8,6.07,6.07,0,0,0-2-4.78,8.06,8.06,0,0,0-5.54-1.8,8.85,8.85,0,0,0-4,.88,6.7,6.7,0,0,0-2.75,2.39,6.14,6.14,0,0,0-1,3.39,6,6,0,0,0,.94,3.19,6.75,6.75,0,0,0,2.73,2.43,9.39,9.39,0,0,0,4.31.92A7.67,7.67,0,0,0,287.68,193.55Z"/><path d="M99.15,467.47a4.3,4.3,0,0,1-1.33-3.42v-3.86a4.36,4.36,0,0,1,1.31-3.42,5.54,5.54,0,0,1,3.8-1.17,6.37,6.37,0,0,1,2.83.56,4.42,4.42,0,0,1,1.8,1.69L106,458.92a3.59,3.59,0,0,0-1.27-1.25,3.7,3.7,0,0,0-1.82-.39c-2,0-3,1-3,2.91v3.86c0,1.94,1,2.91,3,2.91a4,4,0,0,0,2-.41,3.63,3.63,0,0,0,1.28-1.3l1.51,1.12a5.43,5.43,0,0,1-1.91,1.73,6.22,6.22,0,0,1-2.81.54A5.66,5.66,0,0,1,99.15,467.47Z"/><path d="M114,466.94a3.31,3.31,0,0,0,1-.66l1.17,1.08a3.35,3.35,0,0,1-1.35.95,5.33,5.33,0,0,1-2,.33,4.36,4.36,0,0,1-2.88-.8,3.09,3.09,0,0,1-.94-2.46v-2.63a2.7,2.7,0,0,1,1-2.19,4.2,4.2,0,0,1,2.7-.8,4,4,0,0,1,2.71.86,3.09,3.09,0,0,1,1,2.45,3.54,3.54,0,0,1-.15,1.16,1,1,0,0,1-.52.6,2.51,2.51,0,0,1-1.12.19h-3.63v.36c0,1.16.63,1.74,1.91,1.74A3.41,3.41,0,0,0,114,466.94Zm-2.63-5.23a1.56,1.56,0,0,0-.46,1.18v.78h2.57a1.1,1.1,0,0,0,.7-.17.76.76,0,0,0,.2-.61,1.55,1.55,0,0,0-.46-1.21,1.85,1.85,0,0,0-1.3-.42A1.69,1.69,0,0,0,111.33,461.71Z"/><path d="M124.86,460.51a3,3,0,0,1,.73,2.15v5.76h-2v-5.56a1.68,1.68,0,0,0-.37-1.16,1.31,1.31,0,0,0-1-.43,1.74,1.74,0,0,0-1.28.5,3.16,3.16,0,0,0-.78,1.3v5.35h-2v-6.21a1.32,1.32,0,0,0-.16-.7,2.52,2.52,0,0,0-.59-.61l1.31-1.16a3.25,3.25,0,0,1,.88.66,1.87,1.87,0,0,1,.43.84,2.87,2.87,0,0,1,1.07-1.09,3.09,3.09,0,0,1,1.62-.41A2.74,2.74,0,0,1,124.86,460.51Z"/><path d="M129.79,461.49v4a1.81,1.81,0,0,0,.27,1.11,1,1,0,0,0,.88.34h1.29v1.52h-1.29a3.47,3.47,0,0,1-2.41-.68,3.08,3.08,0,0,1-.71-2.29v-7.06a1.32,1.32,0,0,0-.16-.7,2.34,2.34,0,0,0-.59-.61l1.31-1.16a2.64,2.64,0,0,1,1.1,1,3,3,0,0,1,.31,1.48V460h2.44v1.53Z"/><path d="M140.08,460.19l-.5,1.66a2.46,2.46,0,0,0-.66-.31,2.54,2.54,0,0,0-.76-.1q-1.41,0-2,2.07v4.91h-2v-6.21a1.32,1.32,0,0,0-.16-.7,2.34,2.34,0,0,0-.59-.61l1.31-1.16a3,3,0,0,1,.95.72,1.91,1.91,0,0,1,.4,1,3.16,3.16,0,0,1,1-1.23,2.5,2.5,0,0,1,1.49-.45A2.43,2.43,0,0,1,140.08,460.19Z"/><path d="M145.74,466.94a3.22,3.22,0,0,0,1-.66l1.17,1.08a3.35,3.35,0,0,1-1.35.95,5.33,5.33,0,0,1-2,.33,4.36,4.36,0,0,1-2.88-.8,3.06,3.06,0,0,1-.94-2.46v-2.63a2.7,2.7,0,0,1,1-2.19,4.17,4.17,0,0,1,2.69-.8,4,4,0,0,1,2.72.86,3.09,3.09,0,0,1,1,2.45,3.58,3.58,0,0,1-.14,1.16,1.06,1.06,0,0,1-.52.6,2.54,2.54,0,0,1-1.12.19h-3.63v.36c0,1.16.63,1.74,1.9,1.74A3.37,3.37,0,0,0,145.74,466.94Zm-2.63-5.23a1.59,1.59,0,0,0-.45,1.18v.78h2.57a1.1,1.1,0,0,0,.7-.17.8.8,0,0,0,.2-.61,1.55,1.55,0,0,0-.46-1.21,1.86,1.86,0,0,0-1.3-.42A1.74,1.74,0,0,0,143.11,461.71Z"/><path d="M155.46,468.27a4.11,4.11,0,0,1-1.32-1.18l1.22-1a3.28,3.28,0,0,0,1,.83,3.15,3.15,0,0,0,2.46,0,.82.82,0,0,0,.42-.77.78.78,0,0,0-.19-.53,1.67,1.67,0,0,0-.69-.37,9.31,9.31,0,0,0-1.43-.32c-1.68-.32-2.52-1.19-2.52-2.63a2.15,2.15,0,0,1,.89-1.82,3.94,3.94,0,0,1,2.39-.67,3.39,3.39,0,0,1,3.13,1.43l-1.2,1a3.16,3.16,0,0,0-.89-.7,2.32,2.32,0,0,0-1-.22,1.73,1.73,0,0,0-1.05.27.86.86,0,0,0-.37.74.79.79,0,0,0,.41.7,3.7,3.7,0,0,0,1.14.38,12.48,12.48,0,0,1,1.81.53,2.49,2.49,0,0,1,1.08.81,2.3,2.3,0,0,1,.4,1.42q0,2.52-3.58,2.52A4.6,4.6,0,0,1,155.46,468.27Z"/><path d="M167.67,466.94a3.18,3.18,0,0,0,1-.66l1.17,1.08a3.35,3.35,0,0,1-1.35.95,5.33,5.33,0,0,1-2,.33,4.4,4.4,0,0,1-2.88-.8,3.09,3.09,0,0,1-.93-2.46v-2.63a2.67,2.67,0,0,1,1-2.19,4.15,4.15,0,0,1,2.69-.8,4,4,0,0,1,2.72.86,3.12,3.12,0,0,1,1,2.45,3.54,3.54,0,0,1-.15,1.16,1,1,0,0,1-.52.6,2.49,2.49,0,0,1-1.11.19h-3.64v.36c0,1.16.64,1.74,1.91,1.74A3.37,3.37,0,0,0,167.67,466.94ZM165,461.71a1.56,1.56,0,0,0-.46,1.18v.78h2.57a1.15,1.15,0,0,0,.71-.17.8.8,0,0,0,.19-.61,1.55,1.55,0,0,0-.46-1.21,1.85,1.85,0,0,0-1.3-.42A1.69,1.69,0,0,0,165,461.71Z"/><path d="M177.79,460.19l-.5,1.66a2.46,2.46,0,0,0-.66-.31,2.54,2.54,0,0,0-.76-.1q-1.41,0-2,2.07v4.91h-2v-6.21a1.32,1.32,0,0,0-.16-.7,2.34,2.34,0,0,0-.59-.61l1.31-1.16a3,3,0,0,1,1,.72,1.91,1.91,0,0,1,.4,1,3.16,3.16,0,0,1,1-1.23,2.5,2.5,0,0,1,1.49-.45A2.45,2.45,0,0,1,177.79,460.19Z"/><path d="M181.43,468.2a3.08,3.08,0,0,1-.81-1.47L178.51,460h1.91l2,6.59a2.55,2.55,0,0,0,.17.45.22.22,0,0,0,.21.11.23.23,0,0,0,.2-.12,1.82,1.82,0,0,0,.18-.44l2-6.59H187l-2.07,6.77a3.26,3.26,0,0,1-.8,1.47,2,2,0,0,1-1.36.44A2,2,0,0,1,181.43,468.2Z"/><path d="M188.74,458.22a1.14,1.14,0,0,1-.35-.83,1.12,1.12,0,0,1,.35-.82,1.14,1.14,0,0,1,.84-.35,1.1,1.1,0,0,1,.82.35,1.12,1.12,0,0,1,.35.82,1.14,1.14,0,0,1-.35.83,1.1,1.1,0,0,1-.82.35A1.14,1.14,0,0,1,188.74,458.22Zm.17,9.46a2.91,2.91,0,0,1-.32-1.47V460h2v6.21a1.42,1.42,0,0,0,.16.7,2.41,2.41,0,0,0,.6.61l-1.3,1.16A2.65,2.65,0,0,1,188.91,467.68Z"/><path d="M193.92,467.79a3,3,0,0,1-1-2.43V463a3,3,0,0,1,1-2.42,4.18,4.18,0,0,1,2.81-.86,3.83,3.83,0,0,1,3.3,1.43l-1.35,1.09a3.07,3.07,0,0,0-.87-.76,2.3,2.3,0,0,0-1.08-.23,1.93,1.93,0,0,0-1.36.46,1.68,1.68,0,0,0-.49,1.29v2.34a1.71,1.71,0,0,0,.48,1.3,1.92,1.92,0,0,0,1.37.45,2.41,2.41,0,0,0,1.11-.23,2.66,2.66,0,0,0,.86-.75l1.35,1.1a3.33,3.33,0,0,1-1.32,1.06,5,5,0,0,1-2,.35A4.24,4.24,0,0,1,193.92,467.79Z"/><path d="M202.06,458.22a1.14,1.14,0,0,1-.35-.83,1.12,1.12,0,0,1,.35-.82,1.14,1.14,0,0,1,.84-.35,1.1,1.1,0,0,1,.82.35,1.12,1.12,0,0,1,.35.82,1.14,1.14,0,0,1-.35.83,1.1,1.1,0,0,1-.82.35A1.14,1.14,0,0,1,202.06,458.22Zm.17,9.46a2.91,2.91,0,0,1-.32-1.47V460h2v6.21a1.42,1.42,0,0,0,.16.7,2.41,2.41,0,0,0,.6.61l-1.3,1.16A2.65,2.65,0,0,1,202.23,467.68Z"/><path d="M206.82,458.22a1.11,1.11,0,0,1-.36-.83,1.09,1.09,0,0,1,.36-.82,1.15,1.15,0,0,1,1.65,0,1.08,1.08,0,0,1,.35.82,1.17,1.17,0,0,1-2,.83Zm.16,9.46a2.91,2.91,0,0,1-.32-1.47V460h2v6.21a1.32,1.32,0,0,0,.16.7,2.34,2.34,0,0,0,.59.61l-1.3,1.16A2.72,2.72,0,0,1,207,467.68Z"/><path d="M216.86,468.27a4,4,0,0,1-1.32-1.18l1.22-1a3.26,3.26,0,0,0,1,.83,2.48,2.48,0,0,0,1.17.24,2.56,2.56,0,0,0,1.3-.26.82.82,0,0,0,.41-.77.77.77,0,0,0-.18-.53,1.67,1.67,0,0,0-.69-.37,9.61,9.61,0,0,0-1.43-.32c-1.68-.32-2.52-1.19-2.52-2.63a2.15,2.15,0,0,1,.89-1.82,3.94,3.94,0,0,1,2.39-.67,3.39,3.39,0,0,1,3.13,1.43l-1.21,1a3.14,3.14,0,0,0-.88-.7,2.38,2.38,0,0,0-1-.22,1.79,1.79,0,0,0-1.06.27.89.89,0,0,0-.37.74.78.78,0,0,0,.42.7,3.54,3.54,0,0,0,1.13.38,12.67,12.67,0,0,1,1.82.53,2.49,2.49,0,0,1,1.08.81,2.37,2.37,0,0,1,.4,1.42q0,2.52-3.59,2.52A4.55,4.55,0,0,1,216.86,468.27Z"/><path d="M224.84,467.77a3.07,3.07,0,0,1-1-2.45v-2.26a3.07,3.07,0,0,1,1-2.45,4.94,4.94,0,0,1,5.6,0,3.07,3.07,0,0,1,1,2.45v2.26a3.07,3.07,0,0,1-1,2.45,4.94,4.94,0,0,1-5.6,0Zm4.15-1.12a1.76,1.76,0,0,0,.48-1.33v-2.26a1.76,1.76,0,0,0-.48-1.33,2.21,2.21,0,0,0-2.7,0,1.76,1.76,0,0,0-.48,1.33v2.26a1.76,1.76,0,0,0,.48,1.33,2.21,2.21,0,0,0,2.7,0Z"/><path d="M234.22,467.79a3,3,0,0,1-1-2.43V463a3,3,0,0,1,1-2.42,4.21,4.21,0,0,1,2.82-.86,3.81,3.81,0,0,1,3.29,1.43L239,462.26a3.07,3.07,0,0,0-.87-.76,2.26,2.26,0,0,0-1.07-.23,1.94,1.94,0,0,0-1.37.46,1.68,1.68,0,0,0-.49,1.29v2.34a1.71,1.71,0,0,0,.48,1.3,1.94,1.94,0,0,0,1.38.45,2.39,2.39,0,0,0,1.1-.23,2.66,2.66,0,0,0,.86-.75l1.35,1.1a3.33,3.33,0,0,1-1.32,1.06,5,5,0,0,1-2,.35A4.25,4.25,0,0,1,234.22,467.79Z"/><path d="M242.37,458.22a1.11,1.11,0,0,1-.36-.83,1.09,1.09,0,0,1,.36-.82,1.15,1.15,0,0,1,1.65,0,1.12,1.12,0,0,1,.35.82,1.14,1.14,0,0,1-.35.83,1.15,1.15,0,0,1-1.65,0Zm.16,9.46a2.91,2.91,0,0,1-.32-1.47V460h2v6.21a1.32,1.32,0,0,0,.17.7,2.18,2.18,0,0,0,.59.61l-1.3,1.16A2.72,2.72,0,0,1,242.53,467.68Z"/><path d="M254,466.87a2.52,2.52,0,0,0,.59.61l-1.31,1.16A2.34,2.34,0,0,1,252,467.3a3.06,3.06,0,0,1-1.13,1,3.66,3.66,0,0,1-1.71.38,3,3,0,0,1-2.05-.66,2.32,2.32,0,0,1-.76-1.86,2.13,2.13,0,0,1,.95-2,5.9,5.9,0,0,1,2.43-.73l1.05-.11a2.08,2.08,0,0,0,.82-.21.61.61,0,0,0,.28-.46c-.08-1-.68-1.51-1.82-1.51a2.6,2.6,0,0,0-1.14.23,2.57,2.57,0,0,0-.91.74l-1.35-1a3.17,3.17,0,0,1,1.29-1,5.22,5.22,0,0,1,2.11-.37,4.36,4.36,0,0,1,2.83.79,2.78,2.78,0,0,1,1,2.27v3.37A1.32,1.32,0,0,0,254,466.87Zm-2.72-.2a1.65,1.65,0,0,0,.6-1.31v-1a5.13,5.13,0,0,1-1.19.23l-.81.09c-1.11.12-1.66.56-1.66,1.32a1.07,1.07,0,0,0,.37.87,1.64,1.64,0,0,0,1,.3A2.38,2.38,0,0,0,251.3,466.67Z"/><path d="M256.44,467.68a2.92,2.92,0,0,1-.31-1.47v-8.68a1.37,1.37,0,0,0-.17-.72,2,2,0,0,0-.59-.59l1.31-1.16a2.64,2.64,0,0,1,1.1.95,2.91,2.91,0,0,1,.31,1.48v8.68a1.32,1.32,0,0,0,.17.7,2.41,2.41,0,0,0,.6.61l-1.31,1.16A2.69,2.69,0,0,1,256.44,467.68Z"/><path d="M265.42,466.94a3.22,3.22,0,0,0,1-.66l1.17,1.08a3.35,3.35,0,0,1-1.35.95,5.33,5.33,0,0,1-2,.33,4.36,4.36,0,0,1-2.88-.8,3.06,3.06,0,0,1-.94-2.46v-2.63a2.7,2.7,0,0,1,1-2.19,4.17,4.17,0,0,1,2.69-.8,4,4,0,0,1,2.72.86,3.09,3.09,0,0,1,1,2.45,3.58,3.58,0,0,1-.14,1.16,1.06,1.06,0,0,1-.52.6A2.54,2.54,0,0,1,266,465h-3.63v.36c0,1.16.63,1.74,1.9,1.74A3.37,3.37,0,0,0,265.42,466.94Zm-2.62-5.23a1.56,1.56,0,0,0-.46,1.18v.78h2.57a1.1,1.1,0,0,0,.7-.17.8.8,0,0,0,.2-.61,1.55,1.55,0,0,0-.46-1.21,1.85,1.85,0,0,0-1.3-.42A1.69,1.69,0,0,0,262.8,461.71Z"/><path d="M72.31,488.47a2.41,2.41,0,0,0,.6.61l-1.32,1.16a2.34,2.34,0,0,1-1.28-1.34,3.06,3.06,0,0,1-1.13,1,3.66,3.66,0,0,1-1.71.38,3,3,0,0,1-2-.66,2.32,2.32,0,0,1-.76-1.86,2.12,2.12,0,0,1,1-2,5.81,5.81,0,0,1,2.43-.73l1-.11a2.08,2.08,0,0,0,.82-.21.61.61,0,0,0,.28-.46c-.07-1-.68-1.51-1.82-1.51a2.44,2.44,0,0,0-2.05,1L65,482.75a3.17,3.17,0,0,1,1.29-1,5.25,5.25,0,0,1,2.11-.37,4.39,4.39,0,0,1,2.84.79,2.81,2.81,0,0,1,.94,2.27v3.37A1.32,1.32,0,0,0,72.31,488.47Zm-2.72-.2a1.65,1.65,0,0,0,.6-1.31v-1a5.13,5.13,0,0,1-1.19.23l-.81.09c-1.1.12-1.66.56-1.66,1.32a1.07,1.07,0,0,0,.37.87,1.65,1.65,0,0,0,1.06.3A2.37,2.37,0,0,0,69.59,488.27Z"/><path d="M75.23,489.39a3,3,0,0,1-1-2.43v-2.34a3,3,0,0,1,1-2.42,4.18,4.18,0,0,1,2.81-.86,3.83,3.83,0,0,1,3.3,1.43L80,483.86a3.07,3.07,0,0,0-.87-.76,2.3,2.3,0,0,0-1.08-.23,1.93,1.93,0,0,0-1.36.46,1.68,1.68,0,0,0-.49,1.29V487a1.71,1.71,0,0,0,.48,1.3,1.92,1.92,0,0,0,1.37.45,2.41,2.41,0,0,0,1.11-.23,2.66,2.66,0,0,0,.86-.75l1.35,1.1a3.33,3.33,0,0,1-1.32,1.06,5,5,0,0,1-2,.35A4.24,4.24,0,0,1,75.23,489.39Z"/><path d="M89.16,481.79l-.5,1.66a2.46,2.46,0,0,0-.66-.31,2.57,2.57,0,0,0-.77-.1q-1.4,0-2,2.07V490h-2v-6.21a1.32,1.32,0,0,0-.16-.7,2.52,2.52,0,0,0-.59-.61l1.31-1.16a2.94,2.94,0,0,1,.94.72,1.91,1.91,0,0,1,.41,1,3.16,3.16,0,0,1,1-1.23,2.5,2.5,0,0,1,1.49-.45A2.45,2.45,0,0,1,89.16,481.79Z"/><path d="M94.82,488.54a3.06,3.06,0,0,0,1-.66L97,489a3.35,3.35,0,0,1-1.35,1,5.28,5.28,0,0,1-2,.33,4.36,4.36,0,0,1-2.88-.8,3.06,3.06,0,0,1-.94-2.46v-2.63a2.7,2.7,0,0,1,1-2.19,4.15,4.15,0,0,1,2.69-.8,4,4,0,0,1,2.72.86,3.09,3.09,0,0,1,1,2.45,3.89,3.89,0,0,1-.14,1.16,1.06,1.06,0,0,1-.52.6,2.57,2.57,0,0,1-1.12.19H91.73V487c0,1.16.64,1.74,1.91,1.74A3.37,3.37,0,0,0,94.82,488.54Zm-2.63-5.23a1.6,1.6,0,0,0-.46,1.18v.78h2.58a1.12,1.12,0,0,0,.7-.17.8.8,0,0,0,.2-.61,1.59,1.59,0,0,0-.46-1.21,1.87,1.87,0,0,0-1.31-.42A1.73,1.73,0,0,0,92.19,483.31Z"/><path d="M107.09,488.47a2.34,2.34,0,0,0,.59.61l-1.29,1.16a2.4,2.4,0,0,1-1.26-1.44,3.09,3.09,0,0,1-1.17,1.08,3.6,3.6,0,0,1-1.68.36,3.42,3.42,0,0,1-2.69-1.13,4.38,4.38,0,0,1-1-3v-.58a5.13,5.13,0,0,1,.43-2.11,3.56,3.56,0,0,1,1.26-1.5,3.61,3.61,0,0,1,2-.55,3.17,3.17,0,0,1,2.68,1.17v-3.38a1.32,1.32,0,0,0-.16-.7,2.34,2.34,0,0,0-.59-.61l1.31-1.14a2.58,2.58,0,0,1,1.1.95,3,3,0,0,1,.31,1.46v8.68A1.32,1.32,0,0,0,107.09,488.47Zm-2.13-4a2.07,2.07,0,0,0-2.16-1.64,2,2,0,0,0-1.65.75,2.92,2.92,0,0,0-.6,1.88v.58a2.92,2.92,0,0,0,.6,1.88,2,2,0,0,0,1.65.75,2.07,2.07,0,0,0,2.16-1.64Z"/><path d="M109.69,479.82a1.14,1.14,0,0,1-.35-.83,1.2,1.2,0,0,1,1.19-1.17,1.08,1.08,0,0,1,.81.35,1.09,1.09,0,0,1,.36.82,1.11,1.11,0,0,1-.36.83,1.08,1.08,0,0,1-.81.35A1.11,1.11,0,0,1,109.69,479.82Zm.16,9.46a2.92,2.92,0,0,1-.31-1.47v-6.25h2v6.21a1.32,1.32,0,0,0,.16.7,2.52,2.52,0,0,0,.59.61L111,490.24A2.69,2.69,0,0,1,109.85,489.28Z"/><path d="M116.05,483.09v4a1.81,1.81,0,0,0,.27,1.11,1.06,1.06,0,0,0,.88.34h1.3v1.52h-1.3a3.44,3.44,0,0,1-2.4-.68,3.08,3.08,0,0,1-.71-2.29V480a1.32,1.32,0,0,0-.16-.7,2.41,2.41,0,0,0-.6-.61l1.32-1.16a2.71,2.71,0,0,1,1.1.95,3,3,0,0,1,.3,1.48v1.57h2.45v1.53Z"/><path d="M127.55,488.47a2.41,2.41,0,0,0,.6.61l-1.32,1.16a2.33,2.33,0,0,1-1.27-1.34,3.18,3.18,0,0,1-1.14,1,3.66,3.66,0,0,1-1.71.38,3,3,0,0,1-2-.66,2.35,2.35,0,0,1-.76-1.86,2.12,2.12,0,0,1,1-2,5.81,5.81,0,0,1,2.43-.73l1-.11a2,2,0,0,0,.82-.21.58.58,0,0,0,.28-.46c-.07-1-.68-1.51-1.82-1.51a2.44,2.44,0,0,0-2,1l-1.35-.95a3.2,3.2,0,0,1,1.3-1,5.2,5.2,0,0,1,2.1-.37,4.39,4.39,0,0,1,2.84.79,2.78,2.78,0,0,1,.94,2.27v3.37A1.42,1.42,0,0,0,127.55,488.47Zm-2.71-.2a1.67,1.67,0,0,0,.59-1.31v-1a5,5,0,0,1-1.19.23l-.81.09q-1.65.18-1.65,1.32a1.07,1.07,0,0,0,.36.87,1.65,1.65,0,0,0,1.06.3A2.41,2.41,0,0,0,124.84,488.27Z"/><path d="M131.62,483.09v4a1.81,1.81,0,0,0,.27,1.11,1.06,1.06,0,0,0,.88.34h1.3v1.52h-1.3a3.44,3.44,0,0,1-2.4-.68,3.08,3.08,0,0,1-.71-2.29V480a1.32,1.32,0,0,0-.16-.7,2.41,2.41,0,0,0-.6-.61l1.32-1.16a2.71,2.71,0,0,1,1.1.95,3,3,0,0,1,.3,1.48v1.57h2.45v1.53Z"/><path d="M140.5,488.54a3.22,3.22,0,0,0,1-.66l1.17,1.08a3.35,3.35,0,0,1-1.35,1,5.33,5.33,0,0,1-2,.33,4.36,4.36,0,0,1-2.88-.8,3.09,3.09,0,0,1-.94-2.46v-2.63a2.7,2.7,0,0,1,1-2.19,4.2,4.2,0,0,1,2.7-.8,4,4,0,0,1,2.71.86,3.09,3.09,0,0,1,1,2.45,3.54,3.54,0,0,1-.15,1.16,1,1,0,0,1-.52.6,2.51,2.51,0,0,1-1.12.19h-3.63V487c0,1.16.63,1.74,1.91,1.74A3.31,3.31,0,0,0,140.5,488.54Zm-2.62-5.23a1.56,1.56,0,0,0-.46,1.18v.78H140a1.1,1.1,0,0,0,.7-.17.76.76,0,0,0,.2-.61,1.55,1.55,0,0,0-.46-1.21,1.85,1.85,0,0,0-1.3-.42A1.69,1.69,0,0,0,137.88,483.31Z"/><path d="M156.37,481.91a3.46,3.46,0,0,1,1.24,1.51,5.09,5.09,0,0,1,.42,2.08v.58a5.09,5.09,0,0,1-.42,2.08,3.38,3.38,0,0,1-3.26,2.08,3.69,3.69,0,0,1-1.66-.32,2.85,2.85,0,0,1-1-.89V494h-2V483.81a1.29,1.29,0,0,0-.17-.71,2.29,2.29,0,0,0-.58-.6l1.31-1.16a3.27,3.27,0,0,1,.87.64,1.93,1.93,0,0,1,.41.82,3.13,3.13,0,0,1,2.82-1.46A3.46,3.46,0,0,1,156.37,481.91Zm-.31,3.59a2.92,2.92,0,0,0-.59-1.88,2,2,0,0,0-1.66-.75,2.08,2.08,0,0,0-2.15,1.64v2.56a2.08,2.08,0,0,0,2.15,1.64,2,2,0,0,0,1.66-.75,2.92,2.92,0,0,0,.59-1.88Z"/><path d="M164.77,488.54a3.06,3.06,0,0,0,1-.66L166.9,489a3.35,3.35,0,0,1-1.35,1,5.33,5.33,0,0,1-2,.33,4.4,4.4,0,0,1-2.88-.8,3.09,3.09,0,0,1-.93-2.46v-2.63a2.67,2.67,0,0,1,1-2.19,4.15,4.15,0,0,1,2.69-.8,4,4,0,0,1,2.72.86,3.12,3.12,0,0,1,1,2.45,3.89,3.89,0,0,1-.14,1.16,1,1,0,0,1-.53.6,2.49,2.49,0,0,1-1.11.19h-3.64V487c0,1.16.64,1.74,1.91,1.74A3.37,3.37,0,0,0,164.77,488.54Zm-2.63-5.23a1.56,1.56,0,0,0-.46,1.18v.78h2.57a1.15,1.15,0,0,0,.71-.17.8.8,0,0,0,.19-.61,1.58,1.58,0,0,0-.45-1.21,1.89,1.89,0,0,0-1.31-.42A1.71,1.71,0,0,0,162.14,483.31Z"/><path d="M175.83,483.09v4a1.81,1.81,0,0,0,.27,1.11,1,1,0,0,0,.88.34h1.3v1.52H177a3.42,3.42,0,0,1-2.4-.68,3,3,0,0,1-.71-2.29V480a1.32,1.32,0,0,0-.17-.7,2.18,2.18,0,0,0-.59-.61l1.31-1.16a2.64,2.64,0,0,1,1.1.95,2.91,2.91,0,0,1,.31,1.48v1.57h2.45v1.53Z"/><path d="M180.67,489.37a3.07,3.07,0,0,1-1-2.45v-2.26a3.07,3.07,0,0,1,1-2.45,4.94,4.94,0,0,1,5.6,0,3.07,3.07,0,0,1,1,2.45v2.26a3.07,3.07,0,0,1-1,2.45,4.94,4.94,0,0,1-5.6,0Zm4.15-1.12a1.76,1.76,0,0,0,.48-1.33v-2.26a1.76,1.76,0,0,0-.48-1.33,1.91,1.91,0,0,0-1.36-.46,1.88,1.88,0,0,0-1.34.46,1.76,1.76,0,0,0-.48,1.33v2.26a1.76,1.76,0,0,0,.48,1.33,1.88,1.88,0,0,0,1.34.46A1.91,1.91,0,0,0,184.82,488.25Z"/><path d="M191.42,483.09v4a1.81,1.81,0,0,0,.27,1.11,1,1,0,0,0,.88.34h1.29v1.52h-1.29a3.42,3.42,0,0,1-2.4-.68,3,3,0,0,1-.72-2.29V480a1.32,1.32,0,0,0-.16-.7,2.34,2.34,0,0,0-.59-.61l1.31-1.16a2.64,2.64,0,0,1,1.1.95,3,3,0,0,1,.31,1.48v1.57h2.44v1.53Z"/><path d="M202.56,483.09v4a1.81,1.81,0,0,0,.27,1.11,1,1,0,0,0,.88.34H205v1.52h-1.3a3.42,3.42,0,0,1-2.4-.68,3,3,0,0,1-.71-2.29V480a1.32,1.32,0,0,0-.17-.7,2.18,2.18,0,0,0-.59-.61l1.31-1.16a2.64,2.64,0,0,1,1.1.95,2.91,2.91,0,0,1,.31,1.48v1.57H205v1.53Z"/><path d="M211.44,488.54a3.06,3.06,0,0,0,1-.66l1.17,1.08a3.35,3.35,0,0,1-1.35,1,5.28,5.28,0,0,1-2,.33,4.36,4.36,0,0,1-2.88-.8,3.06,3.06,0,0,1-.94-2.46v-2.63a2.7,2.7,0,0,1,1-2.19,4.17,4.17,0,0,1,2.69-.8,4,4,0,0,1,2.72.86,3.09,3.09,0,0,1,1,2.45,3.89,3.89,0,0,1-.14,1.16,1.06,1.06,0,0,1-.52.6,2.57,2.57,0,0,1-1.12.19h-3.64V487c0,1.16.64,1.74,1.91,1.74A3.37,3.37,0,0,0,211.44,488.54Zm-2.63-5.23a1.6,1.6,0,0,0-.46,1.18v.78h2.58a1.12,1.12,0,0,0,.7-.17.8.8,0,0,0,.2-.61,1.55,1.55,0,0,0-.46-1.21,1.87,1.87,0,0,0-1.31-.42A1.73,1.73,0,0,0,208.81,483.31Z"/><path d="M221.57,481.79l-.51,1.66a2.27,2.27,0,0,0-.65-.31,2.61,2.61,0,0,0-.77-.1q-1.41,0-2,2.07V490h-2v-6.21a1.42,1.42,0,0,0-.16-.7,2.41,2.41,0,0,0-.6-.61l1.32-1.16a2.94,2.94,0,0,1,.94.72,1.91,1.91,0,0,1,.41,1,3.14,3.14,0,0,1,1-1.23,2.51,2.51,0,0,1,1.5-.45A2.45,2.45,0,0,1,221.57,481.79Z"/><path d="M223.21,479.82a1.14,1.14,0,0,1-.35-.83,1.12,1.12,0,0,1,.35-.82,1.14,1.14,0,0,1,.84-.35,1.1,1.1,0,0,1,.82.35,1.12,1.12,0,0,1,.35.82,1.14,1.14,0,0,1-.35.83,1.1,1.1,0,0,1-.82.35A1.14,1.14,0,0,1,223.21,479.82Zm.17,9.46a2.91,2.91,0,0,1-.32-1.47v-6.25h2v6.21a1.42,1.42,0,0,0,.16.7,2.41,2.41,0,0,0,.6.61l-1.3,1.16A2.59,2.59,0,0,1,223.38,489.28Z"/><path d="M229.58,483.09v4a1.81,1.81,0,0,0,.27,1.11,1,1,0,0,0,.88.34H232v1.52h-1.29a3.42,3.42,0,0,1-2.4-.68,3,3,0,0,1-.72-2.29V480a1.32,1.32,0,0,0-.16-.7,2.34,2.34,0,0,0-.59-.61l1.31-1.16a2.64,2.64,0,0,1,1.1.95,3,3,0,0,1,.31,1.48v1.57H232v1.53Z"/><path d="M234.42,489.37a3.07,3.07,0,0,1-1-2.45v-2.26a3.07,3.07,0,0,1,1-2.45,4.94,4.94,0,0,1,5.6,0,3.07,3.07,0,0,1,1,2.45v2.26a3.07,3.07,0,0,1-1,2.45,4.94,4.94,0,0,1-5.6,0Zm4.15-1.12a1.76,1.76,0,0,0,.47-1.33v-2.26a1.76,1.76,0,0,0-.47-1.33,1.91,1.91,0,0,0-1.36-.46,1.88,1.88,0,0,0-1.34.46,1.76,1.76,0,0,0-.48,1.33v2.26a1.76,1.76,0,0,0,.48,1.33,1.88,1.88,0,0,0,1.34.46A1.91,1.91,0,0,0,238.57,488.25Z"/><path d="M249.07,481.79l-.5,1.66a2.46,2.46,0,0,0-.66-.31,2.57,2.57,0,0,0-.77-.1q-1.39,0-2,2.07V490h-2v-6.21a1.32,1.32,0,0,0-.16-.7,2.52,2.52,0,0,0-.59-.61l1.31-1.16a3,3,0,0,1,1,.72,1.91,1.91,0,0,1,.4,1,3.16,3.16,0,0,1,1-1.23,2.5,2.5,0,0,1,1.49-.45A2.45,2.45,0,0,1,249.07,481.79Z"/><path d="M250.72,479.82a1.1,1.1,0,0,1-.35-.83,1.08,1.08,0,0,1,.35-.82,1.1,1.1,0,0,1,.83-.35,1.2,1.2,0,0,1,1.17,1.17,1.1,1.1,0,0,1-.35.83,1.08,1.08,0,0,1-.82.35A1.1,1.1,0,0,1,250.72,479.82Zm.16,9.46a2.91,2.91,0,0,1-.32-1.47v-6.25h2v6.21a1.32,1.32,0,0,0,.16.7,2.34,2.34,0,0,0,.59.61L252,490.24A2.69,2.69,0,0,1,250.88,489.28Z"/><path d="M262.71,488.46a2.23,2.23,0,0,0,.62.61L262,490.2a3,3,0,0,1-.9-.66,2,2,0,0,1-.43-.85,3.17,3.17,0,0,1-1.08,1.13,3,3,0,0,1-1.62.42,2.87,2.87,0,0,1-2.14-.77,3,3,0,0,1-.76-2.19v-5.72h2v5.56a1.65,1.65,0,0,0,.4,1.16,1.43,1.43,0,0,0,1.12.43,1.69,1.69,0,0,0,1.26-.53,3.46,3.46,0,0,0,.77-1.38v-5.24h2v6.19A1.46,1.46,0,0,0,262.71,488.46Z"/><path d="M265.66,489.28a2.91,2.91,0,0,1-.32-1.47v-8.68a1.37,1.37,0,0,0-.16-.72,2.33,2.33,0,0,0-.59-.59l1.31-1.16a2.71,2.71,0,0,1,1.1.95,3,3,0,0,1,.3,1.48v8.68a1.23,1.23,0,0,0,.18.7,2.41,2.41,0,0,0,.6.61l-1.32,1.16A2.72,2.72,0,0,1,265.66,489.28Z"/><path d="M276.81,483.09v4a1.81,1.81,0,0,0,.27,1.11,1,1,0,0,0,.88.34h1.3v1.52H278a3.42,3.42,0,0,1-2.4-.68,3,3,0,0,1-.71-2.29V480a1.32,1.32,0,0,0-.17-.7,2.18,2.18,0,0,0-.59-.61l1.31-1.16a2.64,2.64,0,0,1,1.1.95,2.91,2.91,0,0,1,.31,1.48v1.57h2.45v1.53Zm1.51,8.37a1.66,1.66,0,0,1,.32,1.1,3.13,3.13,0,0,1-.43,1.63,5,5,0,0,1-1.24,1.36l-.61-.58a2.55,2.55,0,0,0,1.13-1.57,1,1,0,0,1-.5.11.79.79,0,0,1-.65-.28,1.14,1.14,0,0,1-.23-.78,1.39,1.39,0,0,1,.37-.95,1.19,1.19,0,0,1,.92-.44A1.14,1.14,0,0,1,278.32,491.46Z"/><path d="M288.31,488.47a2.52,2.52,0,0,0,.59.61l-1.31,1.16a2.34,2.34,0,0,1-1.28-1.34,3.06,3.06,0,0,1-1.13,1,3.66,3.66,0,0,1-1.71.38,3,3,0,0,1-2.05-.66,2.32,2.32,0,0,1-.76-1.86,2.13,2.13,0,0,1,.95-2A5.9,5.9,0,0,1,284,485l1-.11a2.08,2.08,0,0,0,.82-.21.61.61,0,0,0,.28-.46c-.08-1-.68-1.51-1.82-1.51a2.6,2.6,0,0,0-1.14.23,2.57,2.57,0,0,0-.91.74l-1.35-.95a3.17,3.17,0,0,1,1.29-1,5.22,5.22,0,0,1,2.11-.37,4.36,4.36,0,0,1,2.83.79,2.78,2.78,0,0,1,.95,2.27v3.37A1.32,1.32,0,0,0,288.31,488.47Zm-5.62-8.78a2.78,2.78,0,0,1-.79-2.09h1.41a1.66,1.66,0,0,0,.43,1.08,1.57,1.57,0,0,0,2.09,0,1.61,1.61,0,0,0,.43-1.08h1.4a2.81,2.81,0,0,1-.78,2.09,3.24,3.24,0,0,1-4.19,0Zm2.9,8.58a1.65,1.65,0,0,0,.6-1.31v-1a5.13,5.13,0,0,1-1.19.23l-.81.09c-1.11.12-1.66.56-1.66,1.32a1,1,0,0,0,.37.87,1.64,1.64,0,0,0,1.05.3A2.38,2.38,0,0,0,285.59,488.27Z"/><path d="M296.46,481.79l-.5,1.66a2.46,2.46,0,0,0-.66-.31,2.5,2.5,0,0,0-.76-.1q-1.41,0-2,2.07V490h-2v-6.21a1.32,1.32,0,0,0-.17-.7,2.18,2.18,0,0,0-.59-.61l1.31-1.16a3,3,0,0,1,1,.72,1.91,1.91,0,0,1,.4,1,3.25,3.25,0,0,1,1-1.23,2.51,2.51,0,0,1,1.5-.45A2.42,2.42,0,0,1,296.46,481.79Z"/><path d="M298.11,479.82a1.14,1.14,0,0,1-.35-.83,1.18,1.18,0,0,1,2.36,0,1.14,1.14,0,0,1-.35.83,1.11,1.11,0,0,1-.82.35A1.13,1.13,0,0,1,298.11,479.82Zm.16,9.46a2.92,2.92,0,0,1-.31-1.47v-6.25h2v6.21a1.32,1.32,0,0,0,.16.7,2.41,2.41,0,0,0,.6.61l-1.3,1.16A2.69,2.69,0,0,1,298.27,489.28Z"/><path d="M302.86,479.82a1.14,1.14,0,0,1-.35-.83,1.12,1.12,0,0,1,.35-.82,1.14,1.14,0,0,1,.84-.35,1.1,1.1,0,0,1,.82.35,1.12,1.12,0,0,1,.35.82,1.14,1.14,0,0,1-.35.83,1.1,1.1,0,0,1-.82.35A1.14,1.14,0,0,1,302.86,479.82Zm.17,9.46a2.81,2.81,0,0,1-.32-1.47v-6.25h2v6.21a1.42,1.42,0,0,0,.16.7,2.41,2.41,0,0,0,.6.61l-1.3,1.16A2.59,2.59,0,0,1,303,489.28Z"/><path class="cls-5" d="M51.92,312.59a176.31,176.31,0,0,0,266.16,0"/></g></g></svg>