<?xml version="1.0" encoding="UTF-8"?>
<svg width="180px" height="64px" viewBox="0 0 180 64" version="1.1" xmlns="http://www.w3.org/2000/svg" xmlns:xlink="http://www.w3.org/1999/xlink">
    <!-- Generator: Sketch 57.1 (83088) - https://sketch.com -->
    <title>Branding/Logo/Block/Default</title>
    <desc>Created with Sketch.</desc>
    <defs>
        <linearGradient x1="37.5%" y1="42.0810697%" x2="62.5%" y2="0%" id="linearGradient-1">
            <stop stop-color="#3889FA" offset="0%"></stop>
            <stop stop-color="#066BF9" offset="100%"></stop>
        </linearGradient>
        <linearGradient x1="39.6694215%" y1="96.067427%" x2="60.3305785%" y2="50%" id="linearGradient-2">
            <stop stop-color="#066BF9" offset="0%"></stop>
            <stop stop-color="#3889FA" offset="100%"></stop>
        </linearGradient>
    </defs>
    <g id="Branding/Logo/Block/Default" stroke="none" stroke-width="1" fill="none" fill-rule="evenodd">
        <g id="Branding/Logo/Text/Block" transform="translate(87.000000, 4.000000)" fill="#000000">
            <path d="M2.84217094e-14,32 L16,48 L16.0769231,32.75 L19,32.75 L19,56 L3,40 L2.92307692,55.25 L2.84217094e-14,55.25 L2.84217094e-14,32 Z M40.7267081,40 L44.5,45.25 L48.25,40 L52,40 L46.375,47.5 L51.9068323,55 L48.25,55 L44.5,49.75 L40.75,55 L37,55 L42.625,47.5 L37,40 L40.7267081,40 Z M29.29,40 C33.49,40 36,42.65 36,47 L36,48 L25,48 C25.27,50.43 27.16,52.15 29.29,52.15 C31,52.15 32.62,51.52 33.55,50.02 L35.92,51.49 C34.54,53.59 32.56,55 29.29,55 C24.64,55 22,51.67 22,47.5 C22,43.33 24.94,40 29.29,40 Z M59,36 L59,40 L62,40 L62,43 L59,43 L59,50.5 C59,51.662064 59.8742038,52 61.25,52 L62,52 L62,55 L60.5,55 C57.6910828,55 56,53.6744186 56,50.5 L56,43 L54,43 L54,40 L56,40 L56,36 L59,36 Z M29.5,43 C27,43 25.5,44.5 25.5,46 L33,46 C33,44.5 32,43 29.5,43 Z M12,0 C15.380107,0 18.4338077,1.39751166 20.6148182,3.64625116 L18.4613627,5.73494513 C16.8255882,4.04824012 14.5352089,3 12,3 C7.02943725,3 3,7.02943725 3,12 C3,16.9705627 7.02943725,21 12,21 C14.5347046,21 16.824677,19.9521769 18.4603864,18.2660614 L20.6148182,20.3537488 C18.4338077,22.6024883 15.380107,24 12,24 C5.372583,24 2.84217094e-14,18.627417 2.84217094e-14,12 C2.84217094e-14,5.372583 5.372583,0 12,0 Z M27,11 L27,24 L24,24 L24,11 L27,11 Z M44,11 L44,24 L41,24 L41,11 L44,11 Z M60.25,9 L51.625,21 L59.5,21 L59.5,24 L46,24 L54.625,12 L47.5,12 L47.5,9 L60.25,9 Z M68.29,9 C72.49,9 75,11.65 75,16 L75,17 L64,17 C64.27,19.43 66.16,21.15 68.29,21.15 C70,21.15 71.62,20.52 72.55,19.02 L74.92,20.49 C73.54,22.59 71.56,24 68.29,24 C63.64,24 61,20.67 61,16.5 C61,12.33 63.94,9 68.29,9 Z M84.1706349,9 C87.4980159,9 90,11.1696429 90,15.2946429 L90,24 L87.1111111,24 L87.0853175,15.75 C87.0853175,13.0446429 85.6666667,11.6517857 83.5257937,11.6517857 C81.359127,11.6517857 79.9404762,13.0446429 79.9404762,15.75 L79.9404762,24 L77,24 L77,9.24107143 L79.9404762,9.24107143 L79.9404762,10.9285714 C80.8948413,9.72321429 82.468254,9 84.1706349,9 Z M35,5 L35,9 L38,9 L38,12 L35,12 L35,19.5 C35,20.662064 35.8742038,21 37.25,21 L38,21 L38,24 L36.5,24 C33.6910828,24 32,22.6744186 32,19.5 L32,12 L30,12 L30,9 L32,9 L32,5 L35,5 Z M68.5,12 C66,12 64.5,13.5 64.5,15 L72,15 C72,13.5 71,12 68.5,12 Z M42.5,6 C43.3382353,6 44,6.66923077 44,7.5 C44,8.33076923 43.3382353,9 42.5,9 C41.6617647,9 41,8.33076923 41,7.5 C41,6.66923077 41.6617647,6 42.5,6 Z M25.5,5 C26.3382353,5 27,5.66923077 27,6.5 C27,7.33076923 26.3382353,8 25.5,8 C24.6617647,8 24,7.33076923 24,6.5 C24,5.66923077 24.6617647,5 25.5,5 Z" id="Combined-Shape"></path>
        </g>
        <g id="Branding/Symbol/CN/Blue/64px">
            <g id="Group" transform="translate(0.000000, 11.000000)">
                <g id="N" transform="translate(32.000000, 0.000000)">
                    <polygon id="Rectangle" fill="url(#linearGradient-1)" points="23.1111111 14.2222222 32 14.2222222 32 32 23.1111111 24.8888889"></polygon>
                    <polygon id="Rectangle" fill="url(#linearGradient-2)" points="-3.15796771e-14 10.6666667 8.88888889 19.5555556 8.88888889 30.2222222 -3.15796771e-14 21.3333333"></polygon>
                    <polygon id="Rectangle" fill="#066BF9" points="0 0 32 30.2222222 32 42.6666667 0 12.4444444"></polygon>
                </g>
                <path d="M6.1003689,7.11111111 L12.2368661,13.2476083 C10.0382129,15.4462616 8.67831759,18.4836727 8.67831759,21.8387044 C8.67831759,28.5487679 14.1178988,33.9883491 20.8279622,33.9883491 C24.1829939,33.9883491 27.2204051,32.6284538 29.4190583,30.4298005 L35.5555556,36.5662978 C31.7864357,40.3354176 26.5794452,42.6666667 20.8279622,42.6666667 C9.32499632,42.6666667 0,33.3416703 0,21.8387044 C0,16.0872215 2.33124908,10.8802309 6.1003689,7.11111111 Z" id="Path" fill="#066BF9"></path>
            </g>
        </g>
    </g>
</svg>